NewsreaderDisplay-SemiBoldItalic.ufo
<glyph name="exclam" format="2">
  <advance width="557"/>
  <unicode hex="0021"/>
  <outline>
    <contour>
      <point x="697.208" y="1303.296" type="line" smooth="yes"/>
      <point x="721.3040581908845" y="1401.6421891203745"/>
      <point x="640.4" y="1454.24"/>
      <point x="548.928" y="1454.24" type="curve" smooth="yes"/>
      <point x="450.40000000000003" y="1454.24"/>
      <point x="363.66191417239753" y="1400.501221060292"/>
      <point x="339.656" y="1303.2959999999998" type="curve" smooth="yes"/>
      <point x="333.352" y="1279.84" type="line" smooth="yes"/>
      <point x="315.808" y="1208.5200000000002"/>
      <point x="343.184" y="981.568"/>
      <point x="256.464" y="501.16" type="curve"/>
      <point x="292.128" y="501.16" type="line"/>
      <point x="490.28000000000003" y="957.376"/>
      <point x="661.632" y="1162.5520000000001"/>
      <point x="690.904" y="1279.84" type="curve" smooth="yes"/>
    </contour>
    <contour>
      <point x="198.096" y="317.088" type="curve" smooth="yes"/>
      <point x="83.2" y="317.088"/>
      <point x="-4.336" y="228.128"/>
      <point x="-4.336" y="113.232" type="curve" smooth="yes"/>
      <point x="-4.336" y="33.36"/>
      <point x="50.29599999999999" y="-21.12"/>
      <point x="135.44" y="-21.12" type="curve" smooth="yes"/>
      <point x="250.33599999999998" y="-21.12"/>
      <point x="337.872" y="67.84"/>
      <point x="337.872" y="182.16" type="curve" smooth="yes"/>
      <point x="337.872" y="262.608"/>
      <point x="283.24" y="317.088"/>
    </contour>
  </outline>
</glyph>
<glyph name="ampersand" format="2">
  <advance width="1470"/>
  <unicode hex="0026"/>
  <outline>
    <contour>
      <point x="1000.9920000000001" y="266.768" type="line"/>
      <point x="1149.248" y="421.632"/>
      <point x="1261.376" y="584.552"/>
      <point x="1362.872" y="807.2479999999999" type="curve"/>
      <point x="1534.448" y="849.456" type="line"/>
      <point x="1541.4479999999999" y="874.0" type="line"/>
      <point x="1084.072" y="874.0" type="line"/>
      <point x="1077.072" y="849.456" type="line"/>
      <point x="1229.92" y="807.2479999999999" type="line"/>
      <point x="1157.4879999999998" y="558.928"/>
      <point x="1065.816" y="390.192"/>
      <point x="970.992" y="290.976" type="curve"/>
      <point x="884.08" y="223.024" type="line"/>
      <point x="787.528" y="152.768"/>
      <point x="697.456" y="139.312"/>
      <point x="599.88" y="139.312" type="curve" smooth="yes"/>
      <point x="411.824" y="139.312"/>
      <point x="304.968" y="252.06400000000002"/>
      <point x="304.968" y="436.66400000000004" type="curve" smooth="yes"/>
      <point x="304.968" y="578.8"/>
      <point x="358.912" y="684.296"/>
      <point x="542.792" y="773.184" type="curve"/>
      <point x="734.808" y="850.56" type="line"/>
      <point x="1085.616" y="975.304"/>
      <point x="1161.7359999999999" y="1088.0079999999998"/>
      <point x="1161.7359999999999" y="1228.064" type="curve" smooth="yes"/>
      <point x="1161.7359999999999" y="1356.88"/>
      <point x="1061.56" y="1454.24"/>
      <point x="845.792" y="1454.24" type="curve" smooth="yes"/>
      <point x="565.1759999999999" y="1454.24"/>
      <point x="401.15999999999997" y="1299.992"/>
      <point x="401.15999999999997" y="1066.704" type="curve" smooth="yes"/>
      <point x="401.15999999999997" y="984.976"/>
      <point x="424.672" y="885.8"/>
      <point x="475.64" y="795.104" type="curve" smooth="yes"/>
      <point x="918.3040000000001" y="0.0" type="line"/>
      <point x="1338.528" y="0.0" type="line"/>
      <point x="1345.104" y="21.695999999999998" type="line"/>
      <point x="1188.944" y="72.6" type="line"/>
      <point x="696.9599999999999" y="935.984" type="line" smooth="yes"/>
      <point x="647.384" y="1023.168"/>
      <point x="624.688" y="1108.3200000000002"/>
      <point x="624.688" y="1184.4399999999998" type="curve" smooth="yes"/>
      <point x="624.688" y="1312.968"/>
      <point x="701.12" y="1398.008"/>
      <point x="821.344" y="1398.008" type="curve" smooth="yes"/>
      <point x="910.624" y="1398.008"/>
      <point x="948.992" y="1347.792"/>
      <point x="948.992" y="1257.0" type="curve" smooth="yes"/>
      <point x="948.992" y="1133.176"/>
      <point x="896.264" y="1003.416"/>
      <point x="709.5360000000001" y="873.8000000000001" type="curve"/>
      <point x="524.88" y="794.76" type="line"/>
      <point x="154.12800000000001" y="665.84"/>
      <point x="48.256" y="512.328"/>
      <point x="48.256" y="309.424" type="curve" smooth="yes"/>
      <point x="48.256" y="126.87999999999998"/>
      <point x="174.376" y="-24.240000000000002"/>
      <point x="429.49600000000004" y="-24.240000000000002" type="curve" smooth="yes"/>
      <point x="588.216" y="-24.240000000000002"/>
      <point x="731.52" y="36.608000000000004"/>
      <point x="903.3280000000001" y="200.32799999999997" type="curve"/>
    </contour>
  </outline>
</glyph>
<glyph name="quotesingle" format="2">
  <advance width="396.864"/>
  <unicode hex="0027"/>
  <outline>
    <contour>
      <point x="280.488" y="889.024" type="line"/>
      <point x="316.272" y="889.024" type="line"/>
      <point x="604.216" y="1396.816" type="line"/>
      <point x="613.944" y="1430.0" type="line"/>
      <point x="331.344" y="1430.0" type="line"/>
      <point x="321.04" y="1396.816" type="line"/>
    </contour>
  </outline>
</glyph>
<glyph name="parenleft" format="2">
  <advance width="549.72"/>
  <unicode hex="0028"/>
  <outline>
    <contour>
      <point x="791.2" y="1466.696" type="curve"/>
      <point x="769.232" y="1488.24" type="line"/>
      <point x="167.328" y="948.5440000000001"/>
      <point x="71.816" y="673.392"/>
      <point x="71.816" y="393.368" type="curve" smooth="yes"/>
      <point x="71.816" y="220.728"/>
      <point x="127.968" y="49.608"/>
      <point x="241.62400000000002" y="-238.16" type="curve"/>
      <point x="272.28799999999995" y="-227.888" type="line"/>
      <point x="236.072" y="-66.456"/>
      <point x="223.072" y="58.816"/>
      <point x="223.072" y="214.104" type="curve" smooth="yes"/>
      <point x="223.072" y="562.288"/>
      <point x="329.104" y="943.68"/>
    </contour>
  </outline>
</glyph>
<glyph name="parenright" format="2">
	<unicode hex="0029"/>
	<advance width="549.296"/>
	<outline>
		<contour>
			<point x="-173.544" y="-216.616" type="curve"/>
			<point x="-151.576" y="-238.16" type="line"/>
			<point x="450.328" y="301.536"/>
			<point x="545.84" y="576.688"/>
			<point x="545.84" y="856.712" type="curve" smooth="yes"/>
			<point x="545.84" y="1029.352"/>
			<point x="489.688" y="1200.472"/>
			<point x="376.032" y="1488.24" type="curve"/>
			<point x="345.368" y="1477.968" type="line"/>
			<point x="381.584" y="1316.536"/>
			<point x="394.584" y="1191.264"/>
			<point x="394.584" y="1035.976" type="curve" smooth="yes"/>
			<point x="394.584" y="687.792"/>
			<point x="288.552" y="306.4"/>
		</contour>
	</outline>
</glyph>
<glyph name="asterisk" format="2">
  <advance width="798"/>
  <unicode hex="002A"/>
  <outline>
    <contour>
      <point x="725.568" y="844.2560000000001" type="line"/>
      <point x="668.776" y="1087.072" type="line"/>
      <point x="907.656" y="1148.704" type="line"/>
      <point x="905.6560000000001" y="1178.3680000000002" type="line"/>
      <point x="660.08" y="1198.576" type="line"/>
      <point x="681.024" y="1448.12" type="line"/>
      <point x="652.2080000000001" y="1455.544" type="line"/>
      <point x="552.848" y="1225.24" type="line"/>
      <point x="319.912" y="1320.8799999999999" type="line"/>
      <point x="303.368" y="1293.216" type="line"/>
      <point x="493.672" y="1130.704" type="line"/>
      <point x="331.216" y="940.3439999999999" type="line"/>
      <point x="352.03200000000004" y="917.952" type="line"/>
      <point x="565.968" y="1044.864" type="line"/>
      <point x="698.752" y="833.56" type="line"/>
    </contour>
  </outline>
</glyph>
<glyph name="plus" format="2">
  <advance width="1150.0"/>
  <unicode hex="002B"/>
  <outline>
    <contour>
      <point x="409.06399999999996" y="101.0" type="line"/>
      <point x="488.936" y="101.0" type="line"/>
      <point x="740.936" y="923.0" type="line"/>
      <point x="661.064" y="923.0" type="line"/>
    </contour>
    <contour>
      <point x="176.12" y="551.36" type="line"/>
      <point x="151.88" y="472.64" type="line"/>
      <point x="973.88" y="472.64" type="line"/>
      <point x="998.12" y="551.36" type="line"/>
    </contour>
  </outline>
</glyph>
<glyph name="comma" format="2">
  <advance width="491"/>
  <unicode hex="002C"/>
  <outline>
    <contour>
      <point x="-152.24" y="-301.512" type="curve"/>
      <point x="-135.816" y="-332.448" type="line"/>
      <point x="186.032" y="-154.608"/>
      <point x="314.12" y="27.36"/>
      <point x="314.12" y="172.64800000000002" type="curve" smooth="yes"/>
      <point x="314.12" y="257.728"/>
      <point x="258.944" y="310.176"/>
      <point x="174.256" y="310.176" type="curve" smooth="yes"/>
      <point x="58.816" y="310.176"/>
      <point x="-12.815999999999999" y="222.368"/>
      <point x="-12.815999999999999" y="147.344" type="curve" smooth="yes"/>
      <point x="-12.815999999999999" y="116.768"/>
      <point x="94.44800000000001" y="74.08"/>
      <point x="94.44800000000001" y="-16.576" type="curve" smooth="yes"/>
      <point x="94.44800000000001" y="-92.48"/>
      <point x="27.448" y="-192.512"/>
    </contour>
  </outline>
</glyph>
<glyph name="hyphen" format="2">
	<unicode hex="002D"/>
	<advance width="638.752"/>
	<outline>
		<contour>
			<point x="138.456" y="589.84" type="line"/>
			<point x="95.248" y="447.824" type="line"/>
			<point x="503.568" y="447.824" type="line"/>
			<point x="547.2" y="589.84" type="line"/>
		</contour>
	</outline>
</glyph>
<glyph name="period" format="2">
  <advance width="493"/>
  <unicode hex="002E"/>
  <outline>
    <contour>
      <point x="186.192" y="316.512" type="curve" smooth="yes"/>
      <point x="71.296" y="316.512"/>
      <point x="-16.24" y="227.552"/>
      <point x="-16.24" y="113.232" type="curve" smooth="yes"/>
      <point x="-16.24" y="33.36"/>
      <point x="38.391999999999996" y="-21.12"/>
      <point x="123.536" y="-21.12" type="curve" smooth="yes"/>
      <point x="238.432" y="-21.12"/>
      <point x="325.96799999999996" y="67.84"/>
      <point x="325.96799999999996" y="182.16" type="curve" smooth="yes"/>
      <point x="325.96799999999996" y="262.03200000000004"/>
      <point x="271.336" y="316.512"/>
    </contour>
  </outline>
</glyph>
<glyph name="slash" format="2">
	<unicode hex="002F"/>
	<advance width="805.608"/>
	<outline>
		<contour>
			<point x="-76.512" y="0" type="line"/>
			<point x="2" y="0" type="line"/>
			<point x="1008.12" y="1430" type="line"/>
			<point x="929.608" y="1430" type="line"/>
		</contour>
	</outline>
</glyph>
<glyph name="zero" format="2">
	<unicode hex="0030"/>
	<advance width="1284.8"/>
	<outline>
		<contour>
			<point x="362.92" y="284.632" type="curve" smooth="yes"/>
			<point x="362.92" y="704.944"/>
			<point x="637.888" y="1396.552"/>
			<point x="916.248" y="1396.552" type="curve" smooth="yes"/>
			<point x="1004.84" y="1396.552"/>
			<point x="1045.304" y="1312.2"/>
			<point x="1045.304" y="1145.368" type="curve" smooth="yes"/>
			<point x="1045.304" y="725.056"/>
			<point x="770.336" y="33.448"/>
			<point x="491.976" y="33.448" type="curve" smooth="yes"/>
			<point x="403.384" y="33.448"/>
			<point x="362.92" y="117.8"/>
		</contour>
		<contour>
			<point x="919.216" y="1454.24" type="curve" smooth="yes"/>
			<point x="429.6" y="1454.24"/>
			<point x="112.848" y="902.992"/>
			<point x="112.848" y="426.032" type="curve" smooth="yes"/>
			<point x="112.848" y="157.96"/>
			<point x="247.456" y="-24.24"/>
			<point x="489.008" y="-24.24" type="curve" smooth="yes"/>
			<point x="978.624" y="-24.24"/>
			<point x="1295.376" y="527.008"/>
			<point x="1295.376" y="1003.968" type="curve" smooth="yes"/>
			<point x="1295.376" y="1272.04"/>
			<point x="1160.768" y="1454.24"/>
		</contour>
	</outline>
</glyph>
<glyph name="one" format="2">
  <advance width="1285"/>
  <unicode hex="0031"/>
  <outline>
    <contour>
      <point x="433.368" y="75.93599999999999" type="line"/>
      <point x="143.072" y="22.12" type="line"/>
      <point x="134.92" y="0.0" type="line"/>
      <point x="987.8480000000001" y="0.0" type="line"/>
      <point x="996.9999999999999" y="22.12" type="line"/>
      <point x="731.304" y="76.36" type="line"/>
      <point x="1147.64" y="1441.52" type="line"/>
      <point x="1026.208" y="1441.52" type="line"/>
      <point x="353.328" y="1117.192" type="line"/>
      <point x="366.264" y="1084.352" type="line"/>
      <point x="860.7120000000001" y="1217.5120000000002" type="line"/>
      <point x="793.3520000000001" y="1256.104" type="line"/>
    </contour>
  </outline>
</glyph>
<glyph name="colon" format="2">
	<unicode hex="003A"/>
	<advance width="562.016"/>
	<outline>
		<contour>
			<point x="200.528" y="316.512" type="curve" smooth="yes"/>
			<point x="85.632" y="316.512"/>
			<point x="-1.904" y="227.552"/>
			<point x="-1.904" y="113.232" type="curve" smooth="yes"/>
			<point x="-1.904" y="33.36"/>
			<point x="52.728" y="-21.12"/>
			<point x="137.872" y="-21.12" type="curve" smooth="yes"/>
			<point x="252.768" y="-21.12"/>
			<point x="340.304" y="67.84"/>
			<point x="340.304" y="182.16" type="curve" smooth="yes"/>
			<point x="340.304" y="262.032"/>
			<point x="285.672" y="316.512"/>
		</contour>
		<contour>
			<point x="423.144" y="1044.544" type="curve" smooth="yes"/>
			<point x="308.248" y="1044.544"/>
			<point x="220.712" y="955.584"/>
			<point x="220.712" y="841.264" type="curve" smooth="yes"/>
			<point x="220.712" y="761.392"/>
			<point x="275.344" y="706.912"/>
			<point x="360.488" y="706.912" type="curve" smooth="yes"/>
			<point x="475.384" y="706.912"/>
			<point x="562.92" y="795.872"/>
			<point x="562.92" y="910.192" type="curve" smooth="yes"/>
			<point x="562.92" y="990.064"/>
			<point x="508.288" y="1044.544"/>
		</contour>
	</outline>
</glyph>
<glyph name="semicolon" format="2">
	<unicode hex="003B"/>
	<advance width="563.896"/>
	<outline>
		<contour>
			<point x="-129.208" y="-301.512" type="curve"/>
			<point x="-112.784" y="-332.448" type="line"/>
			<point x="209.064" y="-154.608"/>
			<point x="337.152" y="27.36"/>
			<point x="337.152" y="172.648" type="curve" smooth="yes"/>
			<point x="337.152" y="257.728"/>
			<point x="281.976" y="310.176"/>
			<point x="197.288" y="310.176" type="curve" smooth="yes"/>
			<point x="81.848" y="310.176"/>
			<point x="10.216" y="222.368"/>
			<point x="10.216" y="147.344" type="curve" smooth="yes"/>
			<point x="10.216" y="116.768"/>
			<point x="117.48" y="74.08"/>
			<point x="117.48" y="-16.576" type="curve" smooth="yes"/>
			<point x="117.48" y="-92.48"/>
			<point x="50.48" y="-192.512"/>
		</contour>
		<contour>
			<point x="418.48" y="1044.544" type="curve" smooth="yes"/>
			<point x="303.584" y="1044.544"/>
			<point x="216.048" y="955.584"/>
			<point x="216.048" y="841.264" type="curve" smooth="yes"/>
			<point x="216.048" y="761.392"/>
			<point x="270.68" y="706.912"/>
			<point x="355.824" y="706.912" type="curve" smooth="yes"/>
			<point x="470.72" y="706.912"/>
			<point x="558.256" y="795.872"/>
			<point x="558.256" y="910.192" type="curve" smooth="yes"/>
			<point x="558.256" y="990.064"/>
			<point x="503.624" y="1044.544"/>
		</contour>
	</outline>
</glyph>
<glyph name="less" format="2">
  <advance width="1150"/>
  <unicode hex="003C"/>
  <outline>
    <contour>
      <point x="169.44" y="484.70399999999995" type="line"/>
      <point x="984.9920000000001" y="526.264" type="line"/>
      <point x="1010.688" y="611.352" type="line"/>
      <point x="190.464" y="532.2800000000001" type="line"/>
      <point x="176.39999999999998" y="485.784" type="line"/>
      <point x="947.616" y="404.16799999999995" type="line"/>
      <point x="973.5519999999999" y="489.67199999999997" type="line"/>
      <point x="183.92" y="534.688" type="line"/>
    </contour>
  </outline>
</glyph>
<glyph name="greater" format="2">
	<unicode hex="003E"/>
	<advance width="1150"/>
	<outline>
		<contour>
			<point x="979.56" y="539.296" type="line"/>
			<point x="164.008" y="497.736" type="line"/>
			<point x="138.312" y="412.648" type="line"/>
			<point x="958.536" y="491.72" type="line"/>
			<point x="972.6" y="538.216" type="line"/>
			<point x="201.384" y="619.832" type="line"/>
			<point x="175.448" y="534.328" type="line"/>
			<point x="965.08" y="489.312" type="line"/>
		</contour>
	</outline>
</glyph>
<glyph name="at" format="2">
  <advance width="1811.416"/>
  <unicode hex="0040"/>
  <outline>
    <contour>
      <point x="1367.288" y="283.93600000000004" type="curve" smooth="yes"/>
      <point x="1307.648" y="283.93600000000004"/>
      <point x="1274.824" y="314.576"/>
      <point x="1274.824" y="387.312" type="curve" smooth="yes"/>
      <point x="1274.824" y="425.496"/>
      <point x="1282.976" y="475.256"/>
      <point x="1301.432" y="538.592" type="curve" smooth="yes"/>
      <point x="1442.5839999999998" y="1039.0" type="line"/>
      <point x="1208.04" y="1039.0" type="line"/>
      <point x="1181.616" y="948.0640000000001" type="line"/>
      <point x="1081.28" y="627.272" type="line" smooth="yes"/>
      <point x="982.0799999999999" y="456.03999999999996"/>
      <point x="910.136" y="402.432"/>
      <point x="851.192" y="402.432" type="curve" smooth="yes"/>
      <point x="808.5200000000001" y="402.432"/>
      <point x="792.184" y="427.528"/>
      <point x="792.184" y="493.20000000000005" type="curve" smooth="yes"/>
      <point x="792.184" y="662.24"/>
      <point x="947.256" y="971.8000000000001"/>
      <point x="1094.664" y="971.8000000000001" type="curve" smooth="yes"/>
      <point x="1152.664" y="971.8000000000001"/>
      <point x="1184.456" y="939.288"/>
      <point x="1218.3680000000002" y="860.1999999999999" type="curve"/>
      <point x="1232.0639999999999" y="882.0160000000001" type="line"/>
      <point x="1192.336" y="1005.7919999999999"/>
      <point x="1109.312" y="1059.696"/>
      <point x="1027.768" y="1059.696" type="curve" smooth="yes"/>
      <point x="785.496" y="1059.696"/>
      <point x="540.8240000000001" y="693.4240000000001"/>
      <point x="540.8240000000001" y="435.272" type="curve" smooth="yes"/>
      <point x="540.8240000000001" y="306.216"/>
      <point x="594.0640000000001" y="240.456"/>
      <point x="712.0959999999999" y="240.456" type="curve" smooth="yes"/>
      <point x="821.456" y="240.456"/>
      <point x="937.6080000000001" y="302.976"/>
      <point x="1116.76" y="627.056" type="curve"/>
      <point x="1093.2160000000001" y="630.328" type="line"/>
      <point x="1071.944" y="531.1519999999999" type="line" smooth="yes"/>
      <point x="1064.944" y="498.728"/>
      <point x="1060.7920000000001" y="468.152"/>
      <point x="1060.7920000000001" y="441.15200000000004" type="curve" smooth="yes"/>
      <point x="1060.7920000000001" y="305.216"/>
      <point x="1149.4560000000001" y="240.456"/>
      <point x="1301.6960000000001" y="240.456" type="curve" smooth="yes"/>
      <point x="1639.315168026362" y="240.456"/>
      <point x="1840.32" y="543.28"/>
      <point x="1840.32" y="885.672" type="curve" smooth="yes"/>
      <point x="1840.32" y="1225.208"/>
      <point x="1580.7596417910447" y="1456.5439999999999"/>
      <point x="1153.624" y="1456.5439999999999" type="curve" smooth="yes"/>
      <point x="540.543229742612" y="1456.5439999999999"/>
      <point x="91.216" y="969.3668837209302"/>
      <point x="91.216" y="444.78400000000005" type="curve" smooth="yes"/>
      <point x="91.216" y="27.532800000000005"/>
      <point x="397.672" y="-218.0"/>
      <point x="850.848" y="-218.0" type="curve" smooth="yes"/>
      <point x="1096.688" y="-218.0"/>
      <point x="1331.48" y="-145.424"/>
      <point x="1525.4160000000002" y="-24.424" type="curve"/>
      <point x="1509.024" y="8.936" type="line"/>
      <point x="1286.76" y="-119.72800000000001"/>
      <point x="1072.2959999999998" y="-161.944"/>
      <point x="885.968" y="-161.944" type="curve" smooth="yes"/>
      <point x="485.32800000000003" y="-161.944"/>
      <point x="233.08" y="76.80799999999999"/>
      <point x="233.08" y="456.784" type="curve" smooth="yes"/>
      <point x="233.08" y="973.736"/>
      <point x="598.2449664138678" y="1405.488"/>
      <point x="1139.384" y="1405.488" type="curve" smooth="yes"/>
      <point x="1510.082657487091" y="1405.488"/>
      <point x="1717.1519999999998" y="1175.76"/>
      <point x="1717.1519999999998" y="869.336" type="curve" smooth="yes"/>
      <point x="1717.1519999999998" y="523.64"/>
      <point x="1535.0114657835775" y="283.93600000000004"/>
    </contour>
  </outline>
</glyph>
<glyph name="A" format="2">
	<unicode hex="0041"/>
	<advance width="1472.656"/>
	<outline>
		<contour>
			<point x="350.744" y="510.36" type="line"/>
			<point x="1028.256" y="510.36" type="line"/>
			<point x="1048.376" y="575.688" type="line"/>
			<point x="371.44" y="575.688" type="line"/>
		</contour>
		<contour>
			<point x="1236.528" y="71.568" type="line"/>
			<point x="1062.8" y="1441.52" type="line"/>
			<point x="920.8" y="1441.52" type="line"/>
			<point x="6.64" y="75.752" type="line"/>
			<point x="-158.848" y="22.968" type="line"/>
			<point x="-166.544" y="0" type="line"/>
			<point x="230.968" y="0" type="line"/>
			<point x="238.664" y="22.968" type="line"/>
			<point x="83.936" y="72.752" type="line"/>
			<point x="839.52" y="1214.912" type="line"/>
			<point x="813.4" y="1214.912" type="line"/>
			<point x="945.464" y="68.296" type="line"/>
			<point x="782.8" y="22.968" type="line"/>
			<point x="774.68" y="0" type="line"/>
			<point x="1363.656" y="0" type="line"/>
			<point x="1371.352" y="22.968" type="line"/>
		</contour>
	</outline>
	<anchor name="UCtop" x="967.856" y="1430"/>
	<anchor name="bottom" x="521.696" y="0"/>
	<anchor name="right" x="1230.432" y="0"/>
</glyph>
<glyph name="B" format="2">
	<unicode hex="0042"/>
	<advance width="1373.608"/>
	<outline>
		<contour>
			<point x="544.504" y="1369.28" type="line"/>
			<point x="875.448" y="1369.28" type="line" smooth="yes"/>
			<point x="1030.224" y="1369.28"/>
			<point x="1092.776" y="1308.152"/>
			<point x="1092.776" y="1191.96" type="curve" smooth="yes"/>
			<point x="1092.776" y="981.08"/>
			<point x="976.496" y="793.48"/>
			<point x="765.848" y="793.48" type="curve" smooth="yes"/>
			<point x="374.256" y="793.48" type="line"/>
			<point x="370.536" y="732.76" type="line"/>
			<point x="746.976" y="732.76" type="line" smooth="yes"/>
			<point x="913.016" y="732.76"/>
			<point x="979.384" y="655.784"/>
			<point x="979.384" y="529.688" type="curve" smooth="yes"/>
			<point x="979.384" y="249.56"/>
			<point x="820.864" y="60.72"/>
			<point x="549.696" y="60.72" type="curve" smooth="yes"/>
			<point x="171.44" y="60.72" type="line"/>
			<point x="238.704" y="0" type="line"/>
			<point x="598.008" y="0" type="line" smooth="yes"/>
			<point x="1036.568" y="0"/>
			<point x="1277.752" y="216.272"/>
			<point x="1277.752" y="467.032" type="curve" smooth="yes"/>
			<point x="1277.752" y="629.72"/>
			<point x="1156.4" y="756.36"/>
			<point x="904.648" y="775.936" type="curve"/>
			<point x="878.888" y="761.816" type="line"/>
			<point x="1211.0797287448" y="789.436459945"/>
			<point x="1375.088" y="955.032"/>
			<point x="1375.088" y="1157.152" type="curve" smooth="yes"/>
			<point x="1375.088" y="1306.576"/>
			<point x="1266.512" y="1430"/>
			<point x="974.288" y="1430" type="curve" smooth="yes"/>
			<point x="674.704" y="1430" type="line"/>
		</contour>
		<contour>
			<point x="481.256" y="1362.792" type="line"/>
			<point x="85.224" y="68.904" type="line"/>
			<point x="-85.568" y="22.968" type="line"/>
			<point x="-91.992" y="0" type="line"/>
			<point x="372.04" y="0" type="line"/>
			<point x="808.312" y="1430" type="line"/>
			<point x="336.128" y="1430" type="line"/>
			<point x="329.704" y="1407.032" type="line"/>
		</contour>
	</outline>
	<anchor name="UCtop" x="918.096" y="1430"/>
	<anchor name="bottom" x="547.376" y="0"/>
</glyph>
<glyph name="C" format="2">
	<unicode hex="0043"/>
	<advance width="1402.656"/>
	<outline>
		<contour>
			<point x="1064.888" y="127.888" type="line"/>
			<point x="965.872" y="61.176"/>
			<point x="855.464" y="35.688"/>
			<point x="752.912" y="35.688" type="curve" smooth="yes"/>
			<point x="547.72" y="35.688"/>
			<point x="411.072" y="183.024"/>
			<point x="411.072" y="489.312" type="curve" smooth="yes"/>
			<point x="411.072" y="956.184"/>
			<point x="677.064" y="1392.976"/>
			<point x="1091.896" y="1392.976" type="curve" smooth="yes"/>
			<point x="1199.416" y="1392.976"/>
			<point x="1284.872" y="1363.704"/>
			<point x="1362.752" y="1254.592" type="curve"/>
			<point x="1310.544" y="1353.52" type="line"/>
			<point x="1415.928" y="966.864" type="line"/>
			<point x="1447.288" y="966.864" type="line"/>
			<point x="1493.832" y="1495.024" type="line"/>
			<point x="1479.984" y="1495.024" type="line"/>
			<point x="1313.456" y="1396.728" type="line"/>
			<point x="1452.248" y="1409.032" type="line"/>
			<point x="1343.072" y="1439.696"/>
			<point x="1237.928" y="1454.24"/>
			<point x="1120.48" y="1454.24" type="curve" smooth="yes"/>
			<point x="540.48" y="1454.24"/>
			<point x="123.464" y="1037.48"/>
			<point x="123.464" y="515.672" type="curve" smooth="yes"/>
			<point x="123.464" y="191.36"/>
			<point x="330.168" y="-24.24"/>
			<point x="739.824" y="-24.24" type="curve" smooth="yes"/>
			<point x="873.704" y="-24.24"/>
			<point x="993.56" y="-9.816"/>
			<point x="1137.776" y="26.368" type="curve"/>
			<point x="1319.376" y="384.744" type="line"/>
			<point x="1289.864" y="384.744" type="line"/>
			<point x="975.704" y="64.792" type="line"/>
		</contour>
	</outline>
	<anchor name="UCtop" x="1003.6" y="1430"/>
	<anchor name="bottom" x="651.36" y="0"/>
	<anchor name="right" x="1149.552" y="0"/>
</glyph>
<glyph name="D" format="2">
	<unicode hex="0044"/>
	<advance width="1539.4"/>
	<outline>
		<contour>
			<point x="551.168" y="65.328" type="curve" smooth="yes"/>
			<point x="225.008" y="65.328" type="line"/>
			<point x="205.192" y="0" type="line"/>
			<point x="533.104" y="0" type="line" smooth="yes"/>
			<point x="1158.376" y="0"/>
			<point x="1533.848" y="403.768"/>
			<point x="1533.848" y="891.184" type="curve" smooth="yes"/>
			<point x="1533.848" y="1236.52"/>
			<point x="1280.536" y="1430"/>
			<point x="891.12" y="1430" type="curve" smooth="yes"/>
			<point x="643.192" y="1430" type="line"/>
			<point x="662.384" y="1364.672" type="line"/>
			<point x="881.632" y="1364.672" type="line" smooth="yes"/>
			<point x="1116.368" y="1364.672"/>
			<point x="1244.112" y="1235.3160816327"/>
			<point x="1244.112" y="989.336" type="curve" smooth="yes"/>
			<point x="1244.112" y="447.6695543113"/>
			<point x="937.304" y="65.328"/>
		</contour>
		<contour>
			<point x="481.256" y="1362.792" type="line"/>
			<point x="85.224" y="68.904" type="line"/>
			<point x="-85.568" y="22.968" type="line"/>
			<point x="-91.992" y="0" type="line"/>
			<point x="372.04" y="0" type="line"/>
			<point x="808.312" y="1430" type="line"/>
			<point x="336.128" y="1430" type="line"/>
			<point x="329.704" y="1407.032" type="line"/>
		</contour>
	</outline>
	<anchor name="UCtop" x="1032.248" y="1430"/>
	<anchor name="bottom" x="634.248" y="0"/>
</glyph>
<glyph name="E" format="2">
  <advance width="1360.96"/>
  <unicode hex="0045"/>
  <anchor x="940.528" y="1430.0" name="UCtop"/>
  <anchor x="1044.472" y="0.0" name="right"/>
  <anchor x="572.528" y="0.0" name="bottom"/>
  <outline>
    <contour>
      <point x="481.25600000000003" y="1362.7920000000001" type="line"/>
      <point x="85.224" y="68.904" type="line"/>
      <point x="-85.568" y="22.968" type="line"/>
      <point x="-91.99199999999999" y="0.0" type="line"/>
      <point x="372.04" y="0.0" type="line"/>
      <point x="808.312" y="1430.0" type="line"/>
      <point x="336.12800000000004" y="1430.0" type="line"/>
      <point x="329.704" y="1407.032" type="line"/>
    </contour>
    <contour>
      <point x="1293.3999999999999" y="1389.336" type="line"/>
      <point x="1381.6" y="1011.072" type="line"/>
      <point x="1414.08" y="1011.072" type="line"/>
      <point x="1482.992" y="1497.9920000000002" type="line"/>
      <point x="1467.936" y="1497.9920000000002" type="line"/>
      <point x="1303.976" y="1430.0" type="line"/>
      <point x="628.64" y="1430.0" type="line"/>
      <point x="604.2800000000001" y="1364.672" type="line"/>
      <point x="1420.096" y="1364.672" type="line"/>
    </contour>
    <contour>
      <point x="1022.664" y="-65.44800000000001" type="line"/>
      <point x="1039.84" y="-65.44800000000001" type="line"/>
      <point x="1295.704" y="404.616" type="line"/>
      <point x="1267.224" y="423.432" type="line"/>
      <point x="872.88" y="45.208" type="line"/>
      <point x="1056.848" y="65.328" type="line"/>
      <point x="216.848" y="65.328" type="line"/>
      <point x="191.64000000000001" y="0.0" type="line"/>
      <point x="890.576" y="0.0" type="line"/>
    </contour>
    <contour>
      <point x="932.056" y="455.0" type="line"/>
      <point x="989.056" y="746.0" type="line"/>
      <point x="1111.056" y="1039.0" type="line"/>
      <point x="1082.424" y="1039.0" type="line"/>
      <point x="902.3919999999999" y="792.056" type="line"/>
      <point x="488.42400000000004" y="760.24" type="line"/>
      <point x="475.06399999999996" y="732.76" type="line"/>
      <point x="881.456" y="704.944" type="line"/>
      <point x="903.424" y="455.0" type="line"/>
    </contour>
  </outline>
</glyph>
<glyph name="F" format="2">
	<unicode hex="0046"/>
	<advance width="1227.72"/>
	<outline>
		<contour>
			<point x="1095.824" y="1004.76" type="line"/>
			<point x="1067.192" y="1004.76" type="line"/>
			<point x="887.16" y="757.816" type="line"/>
			<point x="473.192" y="726" type="line"/>
			<point x="459.832" y="698.52" type="line"/>
			<point x="866.224" y="670.704" type="line"/>
			<point x="888.192" y="420.76" type="line"/>
			<point x="916.824" y="420.76" type="line"/>
			<point x="973.824" y="711.76" type="line"/>
		</contour>
		<contour>
			<point x="1356.744" y="1011.072" type="line"/>
			<point x="1425.656" y="1497.992" type="line"/>
			<point x="1410.6" y="1497.992" type="line"/>
			<point x="1246.64" y="1430" type="line"/>
			<point x="628.64" y="1430" type="line"/>
			<point x="604.28" y="1364.672" type="line"/>
			<point x="1362.76" y="1364.672" type="line"/>
			<point x="1236.064" y="1389.336" type="line"/>
			<point x="1324.264" y="1011.072" type="line"/>
		</contour>
		<contour>
			<point x="392.16" y="67.208" type="line"/>
			<point x="808.312" y="1430" type="line"/>
			<point x="336.128" y="1430" type="line"/>
			<point x="329.704" y="1407.032" type="line"/>
			<point x="481.256" y="1362.792" type="line"/>
			<point x="85.224" y="68.904" type="line"/>
			<point x="-85.568" y="22.968" type="line"/>
			<point x="-91.992" y="0" type="line"/>
			<point x="537.288" y="0" type="line"/>
			<point x="542.712" y="22.968" type="line"/>
		</contour>
	</outline>
	<anchor name="UCtop" x="903.592" y="1430"/>
	<anchor name="bottom" x="227.288" y="0"/>
</glyph>
<glyph name="G" format="2">
	<unicode hex="0047"/>
	<advance width="1526.376"/>
	<outline>
		<contour>
			<point x="764.008" y="32.72" type="curve" smooth="yes"/>
			<point x="539.808" y="32.72"/>
			<point x="410.648" y="186.664"/>
			<point x="410.648" y="489.312" type="curve" smooth="yes"/>
			<point x="410.648" y="956.184"/>
			<point x="676.696" y="1392.976"/>
			<point x="1093.248" y="1392.976" type="curve" smooth="yes"/>
			<point x="1200.768" y="1392.976"/>
			<point x="1286.224" y="1363.704"/>
			<point x="1364.104" y="1254.592" type="curve"/>
			<point x="1311.896" y="1353.52" type="line"/>
			<point x="1417.28" y="966.864" type="line"/>
			<point x="1448.64" y="966.864" type="line"/>
			<point x="1495.184" y="1495.024" type="line"/>
			<point x="1481.336" y="1495.024" type="line"/>
			<point x="1314.808" y="1396.728" type="line"/>
			<point x="1453.6" y="1409.032" type="line"/>
			<point x="1344.424" y="1439.696"/>
			<point x="1239.28" y="1454.24"/>
			<point x="1121.832" y="1454.24" type="curve" smooth="yes"/>
			<point x="540.112" y="1454.24"/>
			<point x="123.04" y="1037.48"/>
			<point x="123.04" y="515.672" type="curve" smooth="yes"/>
			<point x="123.04" y="191.36"/>
			<point x="347.6" y="-24.24"/>
			<point x="763.016" y="-24.24" type="curve" smooth="yes"/>
			<point x="947.4371304348" y="-24.24"/>
			<point x="1122.088" y="3.64"/>
			<point x="1351.488" y="72.824" type="curve"/>
			<point x="1361.032" y="102.728" type="line"/>
			<point x="1238.52" y="102.728" type="line"/>
			<point x="1380.552" y="572.824" type="line"/>
			<point x="1514.616" y="615.336" type="line"/>
			<point x="1522.888" y="639.576" type="line"/>
			<point x="919.544" y="639.576" type="line"/>
			<point x="911.272" y="615.336" type="line"/>
			<point x="1077.864" y="566.824" type="line"/>
			<point x="909.864" y="13.976" type="line"/>
			<point x="989.28" y="80.344" type="line"/>
			<point x="910.864" y="42.208"/>
			<point x="837.36" y="32.72"/>
		</contour>
	</outline>
	<anchor name="UCtop" x="1024.952" y="1430"/>
	<anchor name="bottom" x="724.552" y="0"/>
</glyph>
<glyph name="H" format="2">
	<unicode hex="0048"/>
	<advance width="1658.504"/>
	<outline>
		<contour>
			<point x="417.92" y="707.76" type="line"/>
			<point x="1351.92" y="707.76" type="line"/>
			<point x="1376.432" y="773.088" type="line"/>
			<point x="441.432" y="773.088" type="line"/>
		</contour>
		<contour>
			<point x="481.256" y="1362.792" type="line"/>
			<point x="85.224" y="68.904" type="line"/>
			<point x="-85.568" y="22.968" type="line"/>
			<point x="-91.992" y="0" type="line"/>
			<point x="537.288" y="0" type="line"/>
			<point x="542.712" y="22.968" type="line"/>
			<point x="392.16" y="67.208" type="line"/>
			<point x="787.768" y="1361.096" type="line"/>
			<point x="958.56" y="1407.032" type="line"/>
			<point x="964.984" y="1430" type="line"/>
			<point x="336.128" y="1430" type="line"/>
			<point x="329.704" y="1407.032" type="line"/>
		</contour>
		<contour>
			<point x="1387.768" y="1362.792" type="line"/>
			<point x="991.736" y="68.904" type="line"/>
			<point x="820.944" y="22.968" type="line"/>
			<point x="814.52" y="0" type="line"/>
			<point x="1443.8" y="0" type="line"/>
			<point x="1450.224" y="22.968" type="line"/>
			<point x="1299.672" y="67.208" type="line"/>
			<point x="1695.704" y="1361.096" type="line"/>
			<point x="1865.496" y="1407.032" type="line"/>
			<point x="1871.92" y="1430" type="line"/>
			<point x="1242.64" y="1430" type="line"/>
			<point x="1237.216" y="1407.032" type="line"/>
		</contour>
	</outline>
	<anchor name="UCtop" x="1093.184" y="1430"/>
	<anchor name="bottom" x="698.224" y="0"/>
</glyph>
<glyph name="I" format="2">
	<unicode hex="0049"/>
	<advance width="750.992"/>
	<outline>
		<contour>
			<point x="481.256" y="1362.792" type="line"/>
			<point x="85.224" y="68.904" type="line"/>
			<point x="-85.568" y="22.968" type="line"/>
			<point x="-91.992" y="0" type="line"/>
			<point x="537.288" y="0" type="line"/>
			<point x="542.712" y="22.968" type="line"/>
			<point x="392.16" y="67.208" type="line"/>
			<point x="787.768" y="1361.096" type="line"/>
			<point x="958.56" y="1407.032" type="line"/>
			<point x="964.984" y="1430" type="line"/>
			<point x="336.128" y="1430" type="line"/>
			<point x="329.704" y="1407.032" type="line"/>
		</contour>
	</outline>
	<anchor name="UCtop" x="641.736" y="1430"/>
	<anchor name="right" x="357.448" y="0"/>
	<anchor name="bottom" x="213.528" y="0"/>
</glyph>
<glyph name="J" format="2">
	<unicode hex="004A"/>
	<advance width="874.184"/>
	<outline>
		<contour>
			<point x="691.2" y="543.688" type="curve" smooth="yes"/>
			<point x="940.144" y="1355.584" type="line"/>
			<point x="1111.36" y="1407.032" type="line"/>
			<point x="1117.784" y="1430" type="line"/>
			<point x="488.928" y="1430" type="line"/>
			<point x="482.504" y="1407.032" type="line"/>
			<point x="634.056" y="1362.792" type="line"/>
			<point x="283.576" y="219.32" type="line" smooth="yes"/>
			<point x="250.936" y="111.944"/>
			<point x="214.088" y="87.728"/>
			<point x="158.808" y="87.728" type="curve" smooth="yes"/>
			<point x="76.808" y="87.728"/>
			<point x="28.656" y="199.952"/>
			<point x="-7.856" y="199.952" type="curve" smooth="yes"/>
			<point x="-65.272" y="199.952"/>
			<point x="-117.208" y="152.744"/>
			<point x="-117.208" y="86.84" type="curve" smooth="yes"/>
			<point x="-117.208" y="25.056"/>
			<point x="-69.272" y="-20.848"/>
			<point x="27.752" y="-20.848" type="curve" smooth="yes"/>
			<point x="261.712" y="-20.848"/>
			<point x="590.56" y="216.888"/>
		</contour>
	</outline>
	<anchor name="UCtop" x="801.776" y="1430"/>
	<anchor name="bottom" x="272.68" y="0"/>
</glyph>
<glyph name="K" format="2">
	<unicode hex="004B"/>
	<advance width="1533.552"/>
	<outline>
		<contour>
			<point x="1292.12" y="71.992" type="line"/>
			<point x="857.04" y="918.84" type="line"/>
			<point x="804.664" y="848.408" type="line"/>
			<point x="1532.352" y="1361.672" type="line"/>
			<point x="1714.864" y="1407.032" type="line"/>
			<point x="1721.56" y="1430" type="line"/>
			<point x="1274.904" y="1430" type="line"/>
			<point x="1267.208" y="1407.032" type="line"/>
			<point x="1432.24" y="1361.368" type="line"/>
			<point x="635.792" y="789.24" type="line"/>
			<point x="515.424" y="789.24" type="line"/>
			<point x="490.064" y="723.912" type="line"/>
			<point x="614.672" y="723.912" type="line"/>
			<point x="949.696" y="64.088" type="line"/>
			<point x="798.688" y="22.968" type="line"/>
			<point x="790.992" y="0" type="line"/>
			<point x="1428.848" y="0" type="line"/>
			<point x="1436.544" y="22.968" type="line"/>
		</contour>
		<contour>
			<point x="481.256" y="1362.792" type="line"/>
			<point x="85.224" y="68.904" type="line"/>
			<point x="-85.568" y="22.968" type="line"/>
			<point x="-91.992" y="0" type="line"/>
			<point x="537.288" y="0" type="line"/>
			<point x="542.712" y="22.968" type="line"/>
			<point x="392.16" y="67.208" type="line"/>
			<point x="787.768" y="1361.096" type="line"/>
			<point x="958.56" y="1407.032" type="line"/>
			<point x="964.984" y="1430" type="line"/>
			<point x="336.128" y="1430" type="line"/>
			<point x="329.704" y="1407.032" type="line"/>
		</contour>
	</outline>
	<anchor name="UCtop" x="1056.696" y="1430"/>
	<anchor name="bottom" x="668.696" y="0"/>
</glyph>
<glyph name="L" format="2">
	<unicode hex="004C"/>
	<advance width="1273.496"/>
	<outline>
		<contour>
			<point x="787.768" y="1361.096" type="line"/>
			<point x="958.56" y="1407.032" type="line"/>
			<point x="964.984" y="1430" type="line"/>
			<point x="336.128" y="1430" type="line"/>
			<point x="329.704" y="1407.032" type="line"/>
			<point x="481.256" y="1362.792" type="line"/>
			<point x="85.224" y="68.904" type="line"/>
			<point x="-85.568" y="22.968" type="line"/>
			<point x="-91.992" y="0" type="line"/>
			<point x="372.04" y="0" type="line"/>
		</contour>
		<contour>
			<point x="803.296" y="45.208" type="line"/>
			<point x="918.144" y="65.328" type="line"/>
			<point x="199.104" y="65.328" type="line"/>
			<point x="173.896" y="0" type="line"/>
			<point x="820.992" y="0" type="line"/>
			<point x="953.08" y="-65.448" type="line"/>
			<point x="970.256" y="-65.448" type="line"/>
			<point x="1233.032" y="414.984" type="line"/>
			<point x="1204.552" y="433.8" type="line"/>
		</contour>
	</outline>
	<anchor name="UCtop" x="647.704" y="1430"/>
	<anchor name="right" x="1004.032" y="1430"/>
	<anchor name="bottom" x="500.8" y="0"/>
	<anchor name="mid" x="1090.112" y="747.56"/>
</glyph>
<glyph name="M" format="2">
	<unicode hex="004D"/>
	<advance width="2038.656"/>
	<outline>
		<contour>
			<point x="591.16" y="1381.296" type="line"/>
			<point x="540.048" y="1357.256" type="line"/>
			<point x="682.608" y="-11.52" type="line"/>
			<point x="827.392" y="-11.52" type="line"/>
			<point x="1767.184" y="1395.608" type="line"/>
			<point x="1781.696" y="1430" type="line"/>
			<point x="1714.344" y="1430" type="line"/>
			<point x="897.16" y="200.48" type="line"/>
			<point x="961.056" y="218.288" type="line"/>
			<point x="837.616" y="1430" type="line"/>
			<point x="367.256" y="1430" type="line"/>
			<point x="361.832" y="1407.032" type="line"/>
			<point x="507.776" y="1333.128" type="line"/>
			<point x="62.344" y="67.088" type="line"/>
			<point x="-110.904" y="22.968" type="line"/>
			<point x="-117.176" y="0" type="line"/>
			<point x="299.248" y="0" type="line"/>
			<point x="305.672" y="22.968" type="line"/>
			<point x="131.792" y="68.36" type="line"/>
		</contour>
		<contour>
			<point x="1719.856" y="1430" type="line"/>
			<point x="1426.848" y="70.904" type="line"/>
			<point x="1251.056" y="22.968" type="line"/>
			<point x="1244.632" y="0" type="line"/>
			<point x="1868.248" y="0" type="line"/>
			<point x="1874.672" y="22.968" type="line"/>
			<point x="1729.12" y="69.208" type="line"/>
			<point x="2008.368" y="1362.216" type="line"/>
			<point x="2200.04" y="1407.032" type="line"/>
			<point x="2205.464" y="1430" type="line"/>
		</contour>
	</outline>
	<anchor name="UCtop" x="1243.656" y="1430"/>
	<anchor name="bottom" x="788.696" y="0"/>
</glyph>
<glyph name="N" format="2">
  <advance width="1508"/>
  <unicode hex="004E"/>
  <anchor x="1052.816" y="1430.0" name="UCtop"/>
  <anchor x="656.336" y="0.0" name="bottom"/>
  <outline>
    <contour>
      <point x="1206.944" y="273.896" type="line"/>
      <point x="796.344" y="1430.0" type="line"/>
      <point x="318.224" y="1430.0" type="line"/>
      <point x="311.376" y="1407.032" type="line"/>
      <point x="479.136" y="1337.7359999999999" type="line"/>
      <point x="90.49600000000001" y="64.784" type="line"/>
      <point x="-79.872" y="22.968" type="line"/>
      <point x="-86.72" y="0.0" type="line"/>
      <point x="332.55199999999996" y="0.0" type="line"/>
      <point x="338.976" y="22.968" type="line"/>
      <point x="161.64000000000001" y="66.05600000000001" type="line"/>
      <point x="550.736" y="1343.464" type="line"/>
      <point x="520.648" y="1321.576" type="line"/>
      <point x="997.856" y="-11.52" type="line"/>
      <point x="1141.7040000000002" y="-11.52" type="line"/>
      <point x="1562.04" y="1365.2160000000001" type="line"/>
      <point x="1732.408" y="1407.032" type="line"/>
      <point x="1739.256" y="1430.0" type="line"/>
      <point x="1319.9840000000002" y="1430.0" type="line"/>
      <point x="1313.5600000000002" y="1407.032" type="line"/>
      <point x="1490.896" y="1363.944" type="line"/>
      <point x="1158.92" y="273.896" type="line"/>
    </contour>
  </outline>
</glyph>
<glyph name="O" format="2">
  <advance width="1564.048"/>
  <unicode hex="004F"/>
  <guideline x="843.024" y="715.576" angle="2.4563852387021825" identifier="MtFeclmc44"/>
  <anchor x="1075.592" y="1430.0" name="UCtop"/>
  <anchor x="590.632" y="0.0" name="bottom"/>
  <anchor x="743.352" y="0.0" name="right"/>
  <anchor x="1422.9360000000001" y="1430.0" name="horn"/>
  <outline>
    <contour>
      <point x="401.25600000000003" y="368.744" type="curve" smooth="yes"/>
      <point x="401.25600000000003" y="750.936"/>
      <point x="662.072" y="1391.552"/>
      <point x="1036.7359999999999" y="1391.552" type="curve" smooth="yes"/>
      <point x="1195.3760000000002" y="1391.552"/>
      <point x="1285.792" y="1284.0159999999998"/>
      <point x="1285.792" y="1061.2559999999999" type="curve" smooth="yes"/>
      <point x="1285.792" y="679.064"/>
      <point x="1024.9759999999999" y="38.448"/>
      <point x="650.312" y="38.448" type="curve" smooth="yes"/>
      <point x="491.67199999999997" y="38.448"/>
      <point x="401.25600000000003" y="145.984"/>
    </contour>
    <contour>
      <point x="1567.0079999999998" y="915.904" type="curve" smooth="yes"/>
      <point x="1567.0079999999998" y="1241.0320000000002"/>
      <point x="1373.424" y="1454.24"/>
      <point x="1019.768" y="1454.24" type="curve" smooth="yes"/>
      <point x="495.672" y="1454.24"/>
      <point x="120.03999999999999" y="967.9200000000001"/>
      <point x="120.03999999999999" y="514.096" type="curve" smooth="yes"/>
      <point x="120.03999999999999" y="188.968"/>
      <point x="313.62399999999997" y="-24.240000000000002"/>
      <point x="667.28" y="-24.240000000000002" type="curve" smooth="yes"/>
      <point x="1191.376" y="-24.240000000000002"/>
      <point x="1567.0079999999998" y="462.08000000000004"/>
    </contour>
  </outline>
</glyph>
<glyph name="P" format="2">
	<unicode hex="0050"/>
	<advance width="1311.528"/>
	<outline>
		<contour>
			<point x="734.128" y="698.336" type="curve" smooth="yes"/>
			<point x="413.616" y="698.336" type="line"/>
			<point x="398.432" y="633.008" type="line"/>
			<point x="804.08" y="633.008" type="line" smooth="yes"/>
			<point x="1206.552" y="633.008"/>
			<point x="1435.704" y="832.552"/>
			<point x="1435.704" y="1103.216" type="curve" smooth="yes"/>
			<point x="1435.704" y="1279.88"/>
			<point x="1312.432" y="1430"/>
			<point x="968.256" y="1430" type="curve" smooth="yes"/>
			<point x="643.944" y="1430" type="line"/>
			<point x="611.952" y="1364.672" type="line"/>
			<point x="863.368" y="1364.672" type="line" smooth="yes"/>
			<point x="1065.696" y="1364.672"/>
			<point x="1142.064" y="1277.048"/>
			<point x="1142.064" y="1145.136" type="curve" smooth="yes"/>
			<point x="1142.064" y="902.312"/>
			<point x="996.808" y="698.336"/>
		</contour>
		<contour>
			<point x="392.16" y="67.208" type="line"/>
			<point x="808.312" y="1430" type="line"/>
			<point x="336.128" y="1430" type="line"/>
			<point x="329.704" y="1407.032" type="line"/>
			<point x="481.256" y="1362.792" type="line"/>
			<point x="85.224" y="68.904" type="line"/>
			<point x="-85.568" y="22.968" type="line"/>
			<point x="-91.992" y="0" type="line"/>
			<point x="537.288" y="0" type="line"/>
			<point x="542.712" y="22.968" type="line"/>
		</contour>
	</outline>
	<anchor name="UCtop" x="948.616" y="1430"/>
	<anchor name="bottom" x="229.592" y="0"/>
</glyph>
<glyph name="Q" format="2">
  <advance width="1563.624"/>
  <unicode hex="0051"/>
  <anchor x="1093.128" y="1430.0" name="UCtop"/>
  <anchor x="469.064" y="-123.768" name="bottom"/>
  <outline>
    <contour>
      <point x="741.368" y="-280.2" type="line" smooth="yes"/>
      <point x="887.072" y="-412.2"/>
      <point x="1007.9920000000001" y="-465.0"/>
      <point x="1197.096" y="-465.0" type="curve" smooth="yes"/>
      <point x="1309.08" y="-465.0"/>
      <point x="1458.0" y="-428.792"/>
      <point x="1544.672" y="-401.152" type="curve"/>
      <point x="1557.944" y="-353.67199999999997" type="line"/>
      <point x="1375.664" y="-367.73600000000005"/>
      <point x="1243.104" y="-317.376"/>
      <point x="1091.824" y="-224.584" type="curve" smooth="yes"/>
      <point x="708.792" y="9.567999999999998" type="line"/>
      <point x="705.488" y="-10.184" type="line"/>
      <point x="1227.024" y="4.768000000000001"/>
      <point x="1567.008" y="488.824"/>
      <point x="1567.008" y="915.904" type="curve" smooth="yes"/>
      <point x="1567.008" y="1241.032"/>
      <point x="1373.4240000000002" y="1454.24"/>
      <point x="1019.768" y="1454.24" type="curve" smooth="yes"/>
      <point x="495.67199999999997" y="1454.24"/>
      <point x="120.03999999999999" y="967.9200000000001"/>
      <point x="120.03999999999999" y="514.096" type="curve" smooth="yes"/>
      <point x="120.03999999999999" y="318.12"/>
      <point x="193.92" y="178.056"/>
      <point x="317.168" y="72.968" type="curve" smooth="yes"/>
    </contour>
    <contour>
      <point x="401.25600000000003" y="368.74399999999997" type="curve" smooth="yes"/>
      <point x="401.25600000000003" y="750.9359999999999"/>
      <point x="662.072" y="1391.5520000000001"/>
      <point x="1036.736" y="1391.5520000000001" type="curve" smooth="yes"/>
      <point x="1195.3760000000002" y="1391.5520000000001"/>
      <point x="1285.7920000000001" y="1284.0159999999998"/>
      <point x="1285.7920000000001" y="1061.256" type="curve" smooth="yes"/>
      <point x="1285.7920000000001" y="679.0640000000001"/>
      <point x="1024.976" y="38.448"/>
      <point x="650.312" y="38.448" type="curve" smooth="yes"/>
      <point x="491.672" y="38.448"/>
      <point x="401.25600000000003" y="145.984"/>
    </contour>
  </outline>
</glyph>
<glyph name="R" format="2">
	<unicode hex="0052"/>
	<advance width="1480.384"/>
	<outline>
		<contour>
			<point x="781.624" y="768.848" type="curve" smooth="yes"/>
			<point x="367.848" y="768.848" type="line"/>
			<point x="386.192" y="705.824" type="line"/>
			<point x="726.304" y="705.824" type="line" smooth="yes"/>
			<point x="798.576" y="705.824"/>
			<point x="817.456" y="686.432"/>
			<point x="864.824" y="498.928" type="curve" smooth="yes"/>
			<point x="950.6" y="187.08" type="line" smooth="yes"/>
			<point x="995.544" y="11.936"/>
			<point x="1070.616" y="-32.176"/>
			<point x="1405.168" y="0" type="curve"/>
			<point x="1418.712" y="42.632" type="line"/>
			<point x="1320.08" y="40.784"/>
			<point x="1295.512" y="59.688"/>
			<point x="1254.144" y="192.48" type="curve" smooth="yes"/>
			<point x="1153.192" y="515.104" type="line" smooth="yes"/>
			<point x="1108.16" y="662.432"/>
			<point x="1031.136" y="735.184"/>
			<point x="873.448" y="737.88" type="curve"/>
			<point x="873.448" y="735.456" type="line"/>
			<point x="1230.864" y="742.336"/>
			<point x="1427.376" y="909.456"/>
			<point x="1427.376" y="1144.64" type="curve" smooth="yes"/>
			<point x="1427.376" y="1316.24"/>
			<point x="1293.352" y="1430"/>
			<point x="981.752" y="1430" type="curve" smooth="yes"/>
			<point x="616.64" y="1430" type="line"/>
			<point x="554.424" y="1366.976" type="line"/>
			<point x="892.68" y="1366.976" type="line" smooth="yes"/>
			<point x="1067.096" y="1366.976"/>
			<point x="1137.8" y="1296.52"/>
			<point x="1137.8" y="1159.328" type="curve" smooth="yes"/>
			<point x="1137.8" y="946.08"/>
			<point x="1004.512" y="768.848"/>
		</contour>
		<contour>
			<point x="392.16" y="67.208" type="line"/>
			<point x="808.312" y="1430" type="line"/>
			<point x="336.128" y="1430" type="line"/>
			<point x="329.704" y="1407.032" type="line"/>
			<point x="481.256" y="1362.792" type="line"/>
			<point x="85.224" y="68.904" type="line"/>
			<point x="-85.568" y="22.968" type="line"/>
			<point x="-91.992" y="0" type="line"/>
			<point x="537.288" y="0" type="line"/>
			<point x="542.712" y="22.968" type="line"/>
		</contour>
	</outline>
	<anchor name="UCtop" x="951.936" y="1430"/>
	<anchor name="bottom" x="745.04" y="0"/>
</glyph>
<glyph name="S" format="2">
	<unicode hex="0053"/>
	<advance width="1156.288"/>
	<outline>
		<contour>
			<point x="1078.944" y="1265.536" type="curve"/>
			<point x="1035.248" y="1349.784" type="line"/>
			<point x="1143.776" y="1004.464" type="line"/>
			<point x="1171.984" y="1004.464" type="line"/>
			<point x="1210.752" y="1495.448" type="line"/>
			<point x="1194.752" y="1495.448" type="line"/>
			<point x="1049.008" y="1378.24" type="line"/>
			<point x="1187.656" y="1345.816" type="line"/>
			<point x="1062.424" y="1421.056"/>
			<point x="949.976" y="1454.24"/>
			<point x="812.096" y="1454.24" type="curve" smooth="yes"/>
			<point x="488.512" y="1454.24"/>
			<point x="280.072" y="1279.88"/>
			<point x="280.072" y="1017.44" type="curve" smooth="yes"/>
			<point x="280.072" y="826.416"/>
			<point x="382.336" y="744.688"/>
			<point x="511.36" y="671.808" type="curve" smooth="yes"/>
			<point x="640.384" y="598.928"/>
			<point x="802.6" y="542.896"/>
			<point x="802.6" y="349.736" type="curve" smooth="yes"/>
			<point x="802.6" y="148.504"/>
			<point x="656.504" y="33.568"/>
			<point x="404.936" y="33.568" type="curve" smooth="yes"/>
			<point x="298.56" y="33.568"/>
			<point x="222.288" y="61.272"/>
			<point x="138.952" y="112.432" type="curve"/>
			<point x="233.408" y="22.424" type="line"/>
			<point x="72.304" y="433.776" type="line"/>
			<point x="40.912" y="433.776" type="line"/>
			<point x="39.552" y="36.912" type="line"/>
			<point x="141.304" y="-2.392"/>
			<point x="260.456" y="-24.24"/>
			<point x="412.016" y="-24.24" type="curve" smooth="yes"/>
			<point x="807.56" y="-24.24"/>
			<point x="1044.912" y="185.416"/>
			<point x="1044.912" y="469.016" type="curve" smooth="yes"/>
			<point x="1044.912" y="705.44"/>
			<point x="896.456" y="796.344"/>
			<point x="762.28" y="870.768" type="curve" smooth="yes"/>
			<point x="628.104" y="945.192"/>
			<point x="496.208" y="1004.832"/>
			<point x="496.208" y="1157.232" type="curve" smooth="yes"/>
			<point x="496.208" y="1311.056"/>
			<point x="605.752" y="1395.944"/>
			<point x="784.792" y="1395.944" type="curve" smooth="yes"/>
			<point x="913.008" y="1395.944"/>
			<point x="1011.616" y="1347.208"/>
		</contour>
	</outline>
	<anchor name="UCtop" x="796.232" y="1430"/>
	<anchor name="bottom" x="473.672" y="0"/>
</glyph>
<glyph name="T" format="2">
  <advance width="1440"/>
  <unicode hex="0054"/>
  <anchor x="978.2159999999999" y="1430.0" name="UCtop"/>
  <anchor x="573.5039999999999" y="0.0" name="bottom"/>
  <outline>
    <contour>
      <point x="1528.52" y="1364.672" type="line"/>
      <point x="1434.8880000000001" y="1380.096" type="line"/>
      <point x="1510.6000000000001" y="958.776" type="line"/>
      <point x="1543.992" y="958.776" type="line"/>
      <point x="1640.416" y="1506.816" type="line"/>
      <point x="1622.568" y="1506.816" type="line"/>
      <point x="1405.96" y="1407.2160000000001" type="line"/>
      <point x="1529.032" y="1430.0" type="line"/>
      <point x="460.056" y="1430.0" type="line"/>
      <point x="574.072" y="1407.2160000000001" type="line"/>
      <point x="413.64" y="1506.816" type="line"/>
      <point x="395.79200000000003" y="1506.816" type="line"/>
      <point x="174.736" y="972.0160000000001" type="line"/>
      <point x="204.52" y="955.352" type="line"/>
      <point x="550.2959999999999" y="1380.096" type="line"/>
      <point x="412.96799999999996" y="1364.672" type="line"/>
    </contour>
    <contour>
      <point x="836.288" y="1397.0320000000002" type="line"/>
      <point x="429.56" y="68.904" type="line"/>
      <point x="258.76800000000003" y="22.968" type="line"/>
      <point x="252.344" y="0.0" type="line"/>
      <point x="881.6239999999999" y="0.0" type="line"/>
      <point x="887.048" y="22.968" type="line"/>
      <point x="736.496" y="67.20800000000001" type="line"/>
      <point x="1143.648" y="1397.0320000000002" type="line"/>
    </contour>
  </outline>
</glyph>
<glyph name="U" format="2">
	<unicode hex="0055"/>
	<advance width="1551.32"/>
	<outline>
		<contour>
			<point x="520.896" y="590.704" type="curve" smooth="yes"/>
			<point x="756.592" y="1361.096" type="line"/>
			<point x="927.384" y="1407.032" type="line"/>
			<point x="933.808" y="1430" type="line"/>
			<point x="304.952" y="1430" type="line"/>
			<point x="298.528" y="1407.032" type="line"/>
			<point x="450.08" y="1362.792" type="line"/>
			<point x="231.048" y="649.664" type="line" smooth="yes"/>
			<point x="95.984" y="209.44"/>
			<point x="282.304" y="-24.24"/>
			<point x="727.408" y="-24.24" type="curve" smooth="yes"/>
			<point x="1058.344" y="-24.24"/>
			<point x="1243.856" y="136.344"/>
			<point x="1366.248" y="537.488" type="curve" smooth="yes"/>
			<point x="1618.552" y="1365.216" type="line"/>
			<point x="1788.92" y="1407.032" type="line"/>
			<point x="1795.768" y="1430" type="line"/>
			<point x="1376.072" y="1430" type="line"/>
			<point x="1369.648" y="1407.032" type="line"/>
			<point x="1546.984" y="1363.944" type="line"/>
			<point x="1310.072" y="587.664" type="line" smooth="yes"/>
			<point x="1211.096" y="264.432"/>
			<point x="1058.448" y="143.608"/>
			<point x="815.96" y="143.608" type="curve" smooth="yes"/>
			<point x="537.896" y="143.608"/>
			<point x="425.28" y="277.944"/>
		</contour>
	</outline>
	<anchor name="UCtop" x="1121.28" y="1430"/>
	<anchor name="right" x="901.168" y="0"/>
	<anchor name="bottom" x="680.56" y="0"/>
	<anchor name="horn" x="1649.808" y="1430"/>
</glyph>
<glyph name="V" format="2">
	<unicode hex="0056"/>
	<advance width="1444.744"/>
	<outline>
		<contour>
			<point x="358.216" y="1358.432" type="line"/>
			<point x="514.984" y="-11.52" type="line"/>
			<point x="656.984" y="-11.52" type="line"/>
			<point x="1562.344" y="1354.248" type="line"/>
			<point x="1727.832" y="1407.032" type="line"/>
			<point x="1735.528" y="1430" type="line"/>
			<point x="1336.32" y="1430" type="line"/>
			<point x="1328.624" y="1407.032" type="line"/>
			<point x="1483.352" y="1357.248" type="line"/>
			<point x="735.296" y="215.088" type="line"/>
			<point x="774.136" y="215.088" type="line"/>
			<point x="659.032" y="1361.704" type="line"/>
			<point x="821.696" y="1407.032" type="line"/>
			<point x="829.816" y="1430" type="line"/>
			<point x="231.088" y="1430" type="line"/>
			<point x="223.392" y="1407.032" type="line"/>
		</contour>
	</outline>
	<anchor name="UCtop" x="1070.352" y="1430"/>
	<anchor name="bottom" x="609.952" y="0"/>
</glyph>
<glyph name="W" format="2">
	<unicode hex="0057"/>
	<advance width="2057.744"/>
	<outline>
		<contour>
			<point x="2104.448" y="1358.4" type="line"/>
			<point x="1468.896" y="254.288" type="line"/>
			<point x="1522.288" y="254.288" type="line"/>
			<point x="1488.456" y="1441.52" type="line"/>
			<point x="1331.64" y="1441.52" type="line"/>
			<point x="610.328" y="255.56" type="line"/>
			<point x="657.72" y="255.56" type="line"/>
			<point x="666.976" y="1358.824" type="line"/>
			<point x="839.888" y="1407.032" type="line"/>
			<point x="847.432" y="1430" type="line"/>
			<point x="240.456" y="1430" type="line"/>
			<point x="233.912" y="1407.032" type="line"/>
			<point x="367.008" y="1355.552" type="line"/>
			<point x="364.96" y="-11.52" type="line"/>
			<point x="513.744" y="-11.52" type="line"/>
			<point x="1262.256" y="1193.168" type="line"/>
			<point x="1192.312" y="1162.64" type="line"/>
			<point x="1229.96" y="-11.52" type="line"/>
			<point x="1378.744" y="-11.52" type="line"/>
			<point x="2182.136" y="1355.4" type="line"/>
			<point x="2344.744" y="1407.032" type="line"/>
			<point x="2351.288" y="1430" type="line"/>
			<point x="1953.96" y="1430" type="line"/>
			<point x="1946.84" y="1407.032" type="line"/>
		</contour>
	</outline>
	<anchor name="UCtop" x="1390.24" y="1430"/>
	<anchor name="bottom" x="926.8" y="0"/>
</glyph>
<glyph name="X" format="2">
	<unicode hex="0058"/>
	<advance width="1455.496"/>
	<outline>
		<contour>
			<point x="751.472" y="689.4" type="line"/>
			<point x="857.328" y="749.208" type="line"/>
			<point x="1510.2" y="1351.792" type="line"/>
			<point x="1670.776" y="1407.032" type="line"/>
			<point x="1677.2" y="1430" type="line"/>
			<point x="1262.936" y="1430" type="line"/>
			<point x="1257.088" y="1407.032" type="line"/>
			<point x="1415.728" y="1353.096" type="line"/>
			<point x="833.6" y="806.2" type="line"/>
			<point x="719.232" y="742.456" type="line"/>
			<point x="3.576" y="78.208" type="line"/>
			<point x="-157" y="22.968" type="line"/>
			<point x="-164" y="0" type="line"/>
			<point x="254.144" y="0" type="line"/>
			<point x="260.568" y="22.968" type="line"/>
			<point x="101.928" y="76.904" type="line"/>
		</contour>
		<contour>
			<point x="888.456" y="71.6" type="line"/>
			<point x="716.488" y="22.968" type="line"/>
			<point x="708.216" y="0" type="line"/>
			<point x="1339.336" y="0" type="line"/>
			<point x="1347.032" y="22.968" type="line"/>
			<point x="1204.936" y="73.6" type="line"/>
			<point x="927.224" y="833.864" type="line"/>
			<point x="918.376" y="858.712" type="line"/>
			<point x="740.528" y="1357.128" type="line"/>
			<point x="911.376" y="1407.032" type="line"/>
			<point x="917.648" y="1430" type="line"/>
			<point x="287.528" y="1430" type="line"/>
			<point x="280.256" y="1407.032" type="line"/>
			<point x="425.32" y="1355.128" type="line"/>
			<point x="672.64" y="676.44" type="line"/>
			<point x="681.216" y="653.984" type="line"/>
		</contour>
	</outline>
	<anchor name="UCtop" x="1071.552" y="1430"/>
	<anchor name="bottom" x="517.792" y="0"/>
</glyph>
<glyph name="Y" format="2">
	<unicode hex="0059"/>
	<advance width="1414.672"/>
	<outline>
		<contour>
			<point x="1437.592" y="1353.096" type="line"/>
			<point x="851.016" y="670.584" type="line"/>
			<point x="902.456" y="670.584" type="line"/>
			<point x="693.728" y="1355.432" type="line"/>
			<point x="868.456" y="1407.032" type="line"/>
			<point x="874.728" y="1430" type="line"/>
			<point x="240.608" y="1430" type="line"/>
			<point x="235.76" y="1407.032" type="line"/>
			<point x="383.76" y="1352.584" type="line"/>
			<point x="612.848" y="664.208" type="line"/>
			<point x="430.424" y="68.904" type="line"/>
			<point x="259.632" y="22.968" type="line"/>
			<point x="253.208" y="0" type="line"/>
			<point x="882.488" y="0" type="line"/>
			<point x="887.912" y="22.968" type="line"/>
			<point x="737.36" y="67.208" type="line"/>
			<point x="918.936" y="659.24" type="line"/>
			<point x="1517.856" y="1351.792" type="line"/>
			<point x="1678.432" y="1407.032" type="line"/>
			<point x="1684.28" y="1430" type="line"/>
			<point x="1284.224" y="1430" type="line"/>
			<point x="1278.376" y="1407.032" type="line"/>
		</contour>
	</outline>
	<anchor name="UCtop" x="1026.96" y="1430"/>
	<anchor name="bottom" x="574.368" y="0"/>
</glyph>
<glyph name="Z" format="2">
	<unicode hex="005A"/>
	<advance width="1333.952"/>
	<outline>
		<contour>
			<point x="1500.832" y="1430" type="line"/>
			<point x="579.352" y="1430" type="line"/>
			<point x="462.632" y="1501.056" type="line"/>
			<point x="447.24" y="1501.056" type="line"/>
			<point x="210.496" y="1014.712" type="line"/>
			<point x="232.736" y="1000.44" type="line"/>
			<point x="578.232" y="1364.672" type="line"/>
			<point x="1409.048" y="1364.672" type="line"/>
			<point x="1162.016" y="1414.632" type="line"/>
			<point x="-52.816" y="27.96" type="line"/>
			<point x="-61.328" y="0" type="line"/>
			<point x="888.176" y="0" type="line"/>
			<point x="1015.376" y="-64.72" type="line"/>
			<point x="1036.464" y="-64.72" type="line"/>
			<point x="1264.36" y="426.04" type="line"/>
			<point x="1241.816" y="439.04" type="line"/>
			<point x="893.872" y="65.328" type="line"/>
			<point x="151.384" y="65.328" type="line"/>
			<point x="281.488" y="18.792" type="line"/>
			<point x="1492.32" y="1401.464" type="line"/>
		</contour>
	</outline>
	<anchor name="UCtop" x="995.28" y="1430"/>
	<anchor name="bottom" x="520" y="0"/>
</glyph>
<glyph name="bracketleft" format="2">
	<unicode hex="005B"/>
	<advance width="591.688"/>
	<outline>
		<contour>
			<point x="-47.144" y="-222.4" type="line"/>
			<point x="342.016" y="-222.4" type="line"/>
			<point x="352.712" y="-188.736" type="line"/>
			<point x="144.56" y="-162.192" type="line"/>
			<point x="623.928" y="1403.792" type="line"/>
			<point x="847.352" y="1430.336" type="line"/>
			<point x="858.048" y="1464" type="line"/>
			<point x="468.464" y="1464" type="line"/>
		</contour>
	</outline>
</glyph>
<glyph name="backslash" format="2">
	<unicode hex="005C"/>
	<advance width="752.424"/>
	<outline>
		<contour>
			<point x="541.816" y="0" type="line"/>
			<point x="405.456" y="1430" type="line"/>
			<point x="331.608" y="1430" type="line"/>
			<point x="467.968" y="0" type="line"/>
		</contour>
	</outline>
</glyph>
<glyph name="bracketright" format="2">
	<unicode hex="005D"/>
	<advance width="591.536"/>
	<outline>
		<contour>
			<point x="704.648" y="1464" type="line"/>
			<point x="315.064" y="1464" type="line"/>
			<point x="304.792" y="1430.336" type="line"/>
			<point x="512.52" y="1403.792" type="line"/>
			<point x="33.576" y="-162.192" type="line"/>
			<point x="-190.272" y="-188.736" type="line"/>
			<point x="-200.544" y="-222.4" type="line"/>
			<point x="189.04" y="-222.4" type="line"/>
		</contour>
	</outline>
</glyph>
<glyph name="asciicircum" format="2">
	<unicode hex="005E"/>
	<advance width="1150"/>
	<outline>
		<contour>
			<point x="833.76" y="1350.04" type="line"/>
			<point x="945.64" y="662" type="line"/>
			<point x="1022.784" y="662" type="line"/>
			<point x="895.784" y="1430" type="line"/>
			<point x="819.368" y="1430" type="line"/>
			<point x="224.368" y="662" type="line"/>
			<point x="317.512" y="662" type="line"/>
			<point x="846.216" y="1350.04" type="line"/>
		</contour>
	</outline>
</glyph>
<glyph name="a" format="2">
	<unicode hex="0061"/>
	<advance width="1143.576"/>
	<outline>
		<contour>
			<point x="581.096" y="86.744" type="line" smooth="yes"/>
			<point x="558.584" y="19.904"/>
			<point x="592.792" y="-24.24"/>
			<point x="671.088" y="-24.24" type="curve" smooth="yes"/>
			<point x="795.496" y="-24.24"/>
			<point x="947.544" y="73.48"/>
			<point x="1111.816" y="341.232" type="curve"/>
			<point x="1101.12" y="349.504" type="line"/>
			<point x="969.2" y="194.824"/>
			<point x="869.648" y="138.16"/>
			<point x="799.264" y="136.232" type="curve"/>
			<point x="824.504" y="100.144" type="line"/>
			<point x="1135.688" y="1024" type="line"/>
			<point x="884.072" y="1024" type="line"/>
			<point x="845.256" y="910.704" type="line"/>
			<point x="691.28" y="464.656" type="line" smooth="yes"/>
			<point x="529.544" y="208.688"/>
			<point x="428.2" y="150.432"/>
			<point x="362.648" y="150.432" type="curve" smooth="yes"/>
			<point x="309.312" y="150.432"/>
			<point x="281.76" y="175.92"/>
			<point x="281.76" y="252.288" type="curve" smooth="yes"/>
			<point x="281.76" y="517.784"/>
			<point x="545.384" y="942.776"/>
			<point x="737.184" y="942.776" type="curve" smooth="yes"/>
			<point x="788.672" y="942.776"/>
			<point x="829.856" y="922.472"/>
			<point x="862.736" y="859.952" type="curve"/>
			<point x="872.584" y="889.768" type="line"/>
			<point x="813.288" y="996.696"/>
			<point x="735.808" y="1045.936"/>
			<point x="651.752" y="1045.936" type="curve" smooth="yes"/>
			<point x="344.52" y="1045.936"/>
			<point x="-5.056" y="542.808"/>
			<point x="-5.056" y="178.328" type="curve" smooth="yes"/>
			<point x="-5.056" y="53.904"/>
			<point x="78.728" y="-24.24"/>
			<point x="200.688" y="-24.24" type="curve" smooth="yes"/>
			<point x="340.096" y="-24.24"/>
			<point x="474.032" y="68.032"/>
			<point x="720.304" y="464.32" type="curve"/>
			<point x="706.336" y="467.288" type="line"/>
		</contour>
	</outline>
	<anchor name="top" x="755.688" y="1024"/>
	<anchor name="right" x="940.56" y="0"/>
	<anchor name="bottom" x="445.096" y="0"/>
</glyph>
<glyph name="b" format="2">
	<unicode hex="0062"/>
	<advance width="1079"/>
	<outline>
		<contour>
			<point x="274.688" y="209.128" type="curve" smooth="yes"/>
			<point x="396.624" y="614.424" type="line" smooth="yes"/>
			<point x="434.432" y="706.44"/>
			<point x="569.872" y="883.904"/>
			<point x="695.016" y="883.904" type="curve" smooth="yes"/>
			<point x="755.144" y="883.904"/>
			<point x="780.816" y="843.624"/>
			<point x="780.816" y="776.464" type="curve" smooth="yes"/>
			<point x="780.816" y="458.872"/>
			<point x="543.976" y="21.512"/>
			<point x="357.36" y="21.512" type="curve" smooth="yes"/>
			<point x="294.992" y="21.512"/>
			<point x="261.96" y="60.848"/>
			<point x="261.96" y="129.76" type="curve" smooth="yes"/>
			<point x="261.96" y="154.64"/>
			<point x="266.536" y="181.672"/>
		</contour>
		<contour>
			<point x="351.288" y="1256.784" type="curve"/>
			<point x="77.88" y="363.464" type="line" smooth="yes"/>
			<point x="63.304" y="316.736"/>
			<point x="56.728" y="272.584"/>
			<point x="56.728" y="233.008" type="curve" smooth="yes"/>
			<point x="56.728" y="76.144"/>
			<point x="165.104" y="-24.24"/>
			<point x="349.328" y="-24.24" type="curve" smooth="yes"/>
			<point x="725.992" y="-24.24"/>
			<point x="1075.632" y="440.952"/>
			<point x="1075.632" y="808.368" type="curve" smooth="yes"/>
			<point x="1075.632" y="956.152"/>
			<point x="994.696" y="1048.24"/>
			<point x="853.28" y="1048.24" type="curve" smooth="yes"/>
			<point x="722.136" y="1048.24"/>
			<point x="566.08" y="937.664"/>
			<point x="400.808" y="685.608" type="curve"/>
			<point x="412.384" y="679.272" type="line"/>
			<point x="686.672" y="1488.24" type="line"/>
			<point x="675.616" y="1488.24" type="line"/>
			<point x="203.832" y="1398.944" type="line"/>
			<point x="201.016" y="1381.496" type="line"/>
			<point x="259.016" y="1333.744"/>
			<point x="313.288" y="1288.144"/>
		</contour>
	</outline>
	<anchor name="UCtop" x="828.816" y="1430"/>
	<anchor name="bottom" x="317.448" y="0"/>
</glyph>
<glyph name="c" format="2">
	<unicode hex="0063"/>
	<advance width="873.648"/>
	<outline>
		<contour>
			<point x="658.696" y="998.4" type="curve" smooth="yes"/>
			<point x="712.088" y="998.4"/>
			<point x="728.208" y="973.584"/>
			<point x="701.816" y="877.528" type="curve" smooth="yes"/>
			<point x="675.424" y="781.472"/>
			<point x="699" y="748.384"/>
			<point x="768.24" y="748.384" type="curve" smooth="yes"/>
			<point x="857.504" y="748.384"/>
			<point x="919.584" y="810.624"/>
			<point x="919.584" y="890.432" type="curve" smooth="yes"/>
			<point x="919.584" y="979.88"/>
			<point x="854.528" y="1048.24"/>
			<point x="684.64" y="1048.24" type="curve" smooth="yes"/>
			<point x="314.488" y="1048.24"/>
			<point x="34.064" y="679.504"/>
			<point x="34.064" y="286.704" type="curve" smooth="yes"/>
			<point x="34.064" y="94.2"/>
			<point x="140.48" y="-24.24"/>
			<point x="343.304" y="-24.24" type="curve" smooth="yes"/>
			<point x="526.104" y="-24.24"/>
			<point x="665.584" y="75"/>
			<point x="797.368" y="413.232" type="curve"/>
			<point x="784.248" y="414.384" type="line"/>
			<point x="672.216" y="213.648"/>
			<point x="565.12" y="148.856"/>
			<point x="449.912" y="148.856" type="curve" smooth="yes"/>
			<point x="346.584" y="148.856"/>
			<point x="300.16" y="206.672"/>
			<point x="300.16" y="344.008" type="curve" smooth="yes"/>
			<point x="300.16" y="674.48"/>
			<point x="475.432" y="998.4"/>
		</contour>
	</outline>
	<anchor name="top" x="611.096" y="1024"/>
	<anchor name="right" x="673.784" y="0"/>
	<anchor name="bottom" x="302.656" y="0"/>
</glyph>
<glyph name="e" format="2">
	<unicode hex="0065"/>
	<advance width="906.792"/>
	<outline>
		<contour>
			<point x="639.424" y="995.52" type="curve" smooth="yes"/>
			<point x="685.976" y="995.52"/>
			<point x="713.192" y="961.528"/>
			<point x="713.192" y="894.12" type="curve" smooth="yes"/>
			<point x="713.192" y="749.12"/>
			<point x="625.672" y="643.456"/>
			<point x="245" y="512.552" type="curve"/>
			<point x="239" y="477.312" type="line"/>
			<point x="470.032" y="535.04"/>
			<point x="747.208" y="618.864"/>
			<point x="866.76" y="674.224" type="curve"/>
			<point x="908.88" y="732.8"/>
			<point x="928.544" y="799.04"/>
			<point x="928.544" y="865.368" type="curve" smooth="yes"/>
			<point x="928.544" y="961.5128622754"/>
			<point x="868" y="1048.24"/>
			<point x="676" y="1048.24" type="curve" smooth="yes"/>
			<point x="276.648" y="1048.24"/>
			<point x="31.184" y="619.2592241814"/>
			<point x="31.184" y="286.704" type="curve" smooth="yes"/>
			<point x="31.184" y="99.288"/>
			<point x="134.2240013715" y="-24.24"/>
			<point x="344.456" y="-24.24" type="curve" smooth="yes"/>
			<point x="519.712" y="-24.24"/>
			<point x="679.184" y="59.096"/>
			<point x="817.816" y="413.232" type="curve"/>
			<point x="804.696" y="414.384" type="line"/>
			<point x="684.848" y="202.016"/>
			<point x="566.608" y="148.856"/>
			<point x="452.216" y="148.856" type="curve" smooth="yes"/>
			<point x="347.16" y="148.856"/>
			<point x="297.28" y="206.672"/>
			<point x="297.28" y="344.008" type="curve" smooth="yes"/>
			<point x="297.28" y="630.128"/>
			<point x="458.672" y="995.52"/>
		</contour>
	</outline>
	<anchor name="top" x="612.936" y="1024"/>
	<anchor name="right" x="684.832" y="0"/>
	<anchor name="bottom" x="319.624" y="0"/>
</glyph>
<glyph name="f" format="2">
	<unicode hex="0066"/>
	<advance width="682"/>
	<outline>
		<contour>
			<point x="123.672" y="958.008" type="line"/>
			<point x="834.632" y="958.008" type="line"/>
			<point x="847.176" y="1024" type="line"/>
			<point x="134.792" y="1024" type="line"/>
		</contour>
		<contour>
			<point x="418.904" y="273.888" type="curve" smooth="yes"/>
			<point x="626.872" y="1089.92" type="line" smooth="yes"/>
			<point x="692.208" y="1346.72"/>
			<point x="787.824" y="1441.608"/>
			<point x="887.432" y="1441.608" type="curve" smooth="yes"/>
			<point x="932.976" y="1441.608"/>
			<point x="949.096" y="1414.032"/>
			<point x="931.432" y="1326.888" type="curve" smooth="yes"/>
			<point x="913.768" y="1239.744"/>
			<point x="929.856" y="1197.264"/>
			<point x="995.696" y="1197.264" type="curve" smooth="yes"/>
			<point x="1084.448" y="1197.264"/>
			<point x="1151.776" y="1259.016"/>
			<point x="1151.776" y="1352.312" type="curve" smooth="yes"/>
			<point x="1151.776" y="1429.064"/>
			<point x="1091.752" y="1488.24"/>
			<point x="946.736" y="1488.24" type="curve" smooth="yes"/>
			<point x="644.904" y="1488.24"/>
			<point x="393.28" y="1277.752"/>
			<point x="320.52" y="950.2" type="curve" smooth="yes"/>
			<point x="110.432" y="2.984" type="line" smooth="yes"/>
			<point x="38.816" y="-317.056"/>
			<point x="-50.432" y="-408.672"/>
			<point x="-139.616" y="-408.672" type="curve" smooth="yes"/>
			<point x="-182.248" y="-408.672"/>
			<point x="-192.248" y="-388.736"/>
			<point x="-171.16" y="-299.2" type="curve" smooth="yes"/>
			<point x="-150.072" y="-209.664"/>
			<point x="-170.04" y="-173.216"/>
			<point x="-244.664" y="-173.216" type="curve" smooth="yes"/>
			<point x="-324.2" y="-173.216"/>
			<point x="-370.528" y="-233.544"/>
			<point x="-370.528" y="-305.112" type="curve" smooth="yes"/>
			<point x="-370.528" y="-399.04"/>
			<point x="-299.296" y="-465"/>
			<point x="-169.56" y="-465" type="curve" smooth="yes"/>
			<point x="53.928" y="-465"/>
			<point x="282.424" y="-262.008"/>
		</contour>
	</outline>
	<anchor name="UCtop" x="831.32" y="1430"/>
	<anchor name="bottom" x="-26.936" y="-440.76"/>
</glyph>
<glyph name="g" format="2">
	<unicode hex="0067"/>
	<advance width="974"/>
	<outline>
		<contour>
			<point x="1029.336" y="883.04" type="curve" smooth="yes"/>
			<point x="1093.568" y="883.04"/>
			<point x="1147.504" y="953.424"/>
			<point x="1147.504" y="1020.056" type="curve" smooth="yes"/>
			<point x="1147.504" y="1047.176"/>
			<point x="1133.688" y="1061.6"/>
			<point x="1106.688" y="1061.6" type="curve" smooth="yes"/>
			<point x="1050.688" y="1061.6"/>
			<point x="966.208" y="1017.696"/>
			<point x="674.264" y="1037.816" type="curve"/>
			<point x="675.816" y="1010.76" type="line"/>
			<point x="936.464" y="1025.624"/>
			<point x="963.408" y="883.04"/>
		</contour>
		<contour>
			<point x="391.056" y="406.48" type="curve"/>
			<point x="356.08" y="406.48"/>
			<point x="338.592" y="430.272"/>
			<point x="338.592" y="501.704" type="curve" smooth="yes"/>
			<point x="338.592" y="728.256"/>
			<point x="487.88" y="1001.944"/>
			<point x="613.584" y="1001.944" type="curve"/>
			<point x="648.56" y="1001.944"/>
			<point x="666.048" y="978.152"/>
			<point x="666.048" y="906.72" type="curve" smooth="yes"/>
			<point x="666.048" y="680.168"/>
			<point x="516.76" y="406.48"/>
		</contour>
		<contour>
			<point x="605.008" y="1047.664" type="curve"/>
			<point x="325.576" y="1047.664"/>
			<point x="115.848" y="848.288"/>
			<point x="115.848" y="613.984" type="curve" smooth="yes"/>
			<point x="115.848" y="459.568"/>
			<point x="211.384" y="360.76"/>
			<point x="399.632" y="360.76" type="curve"/>
			<point x="676.184" y="360.76"/>
			<point x="888.792" y="548.616"/>
			<point x="888.792" y="788.68" type="curve" smooth="yes"/>
			<point x="888.792" y="943.096"/>
			<point x="793.256" y="1047.664"/>
		</contour>
		<contour>
			<point x="291.184" y="-465" type="curve" smooth="yes"/>
			<point x="640.52" y="-465"/>
			<point x="843.376" y="-325.912"/>
			<point x="843.376" y="-139.08" type="curve" smooth="yes"/>
			<point x="843.376" y="-7.7649292929"/>
			<point x="738.5871715141" y="91.6195167072"/>
			<point x="470.824" y="160.888" type="curve" smooth="yes"/>
			<point x="203.9878183055" y="230.0893999143"/>
			<point x="186.168" y="247.592"/>
			<point x="186.168" y="288.352" type="curve" smooth="yes"/>
			<point x="186.168" y="327.144"/>
			<point x="217.384" y="362.632"/>
			<point x="307.08" y="373.848" type="curve"/>
			<point x="298.408" y="399.512" type="line"/>
			<point x="119.248" y="377.472"/>
			<point x="15.264" y="286.664"/>
			<point x="15.264" y="171.68" type="curve" smooth="yes"/>
			<point x="15.264" y="70.264"/>
			<point x="74.592" y="-2.576"/>
			<point x="316.248" y="-58.76" type="curve" smooth="yes"/>
			<point x="564.24" y="-116.672"/>
			<point x="644.24" y="-178.104"/>
			<point x="644.24" y="-255.384" type="curve" smooth="yes"/>
			<point x="644.24" y="-343.784"/>
			<point x="540.6" y="-417.008"/>
			<point x="325.192" y="-417.008" type="curve" smooth="yes"/>
			<point x="90.776" y="-417.008"/>
			<point x="15.224" y="-335.128"/>
			<point x="15.224" y="-227.632" type="curve" smooth="yes"/>
			<point x="15.224" y="-125.16"/>
			<point x="97.736" y="-36.632"/>
			<point x="317.72" y="-20.944" type="curve"/>
			<point x="317.72" y="-2.792" type="line"/>
			<point x="266.856" y="-2.792" type="line"/>
			<point x="-45.68" y="-39.336"/>
			<point x="-151.448" y="-128.952"/>
			<point x="-151.448" y="-241.232" type="curve" smooth="yes"/>
			<point x="-151.448" y="-363.936"/>
			<point x="-38.264" y="-465"/>
		</contour>
	</outline>
	<anchor name="top" x="592.096" y="1024"/>
	<anchor name="bottom" x="314.896" y="-440.76"/>
</glyph>
<glyph name="h" format="2">
  <advance width="1155.76"/>
  <unicode hex="0068"/>
  <anchor x="849.2719999999999" y="1430.0" name="UCtop"/>
  <anchor x="405.768" y="0.0" name="bottom"/>
  <anchor x="552.608" y="1207.0" name="center"/>
  <outline>
    <contour>
      <point x="405.8" y="520.184" type="line"/>
      <point x="453.28000000000003" y="645.664"/>
      <point x="606.544" y="853.3919999999999"/>
      <point x="736.352" y="853.3919999999999" type="curve" smooth="yes"/>
      <point x="787.632" y="853.3919999999999"/>
      <point x="813.6640000000001" y="832.784"/>
      <point x="813.6640000000001" y="793.328" type="curve" smooth="yes"/>
      <point x="813.6640000000001" y="770.176"/>
      <point x="802.5120000000001" y="740.176"/>
      <point x="758.728" y="634.336" type="curve" smooth="yes"/>
      <point x="542.256" y="111.92800000000001" type="line" smooth="yes"/>
      <point x="506.288" y="24.567999999999998"/>
      <point x="546.2239999999999" y="-24.240000000000002"/>
      <point x="655.12" y="-24.240000000000002" type="curve" smooth="yes"/>
      <point x="782.408" y="-24.240000000000002"/>
      <point x="940.64" y="75.304"/>
      <point x="1121.424" y="330.20799999999997" type="curve"/>
      <point x="1111.152" y="338.904" type="line"/>
      <point x="924.2479999999999" y="151.088"/>
      <point x="810.52" y="123.35199999999999"/>
      <point x="733.712" y="133.96" type="curve"/>
      <point x="798.5360000000001" y="88.42399999999999" type="line"/>
      <point x="1030.696" y="658.808" type="line" smooth="yes"/>
      <point x="1084.088" y="789.8639999999999"/>
      <point x="1093.664" y="837.4960000000001"/>
      <point x="1093.664" y="886.312" type="curve" smooth="yes"/>
      <point x="1093.664" y="975.336"/>
      <point x="1037.2160000000001" y="1048.24"/>
      <point x="898.408" y="1048.24" type="curve" smooth="yes"/>
      <point x="745.664" y="1048.24"/>
      <point x="624.544" y="977.3040000000001"/>
      <point x="398.112" y="570.864" type="curve"/>
      <point x="409.72" y="570.864" type="line"/>
      <point x="715.7040000000001" y="1488.24" type="line"/>
      <point x="704.648" y="1488.24" type="line"/>
      <point x="238.37599999999998" y="1398.944" type="line"/>
      <point x="234.40800000000002" y="1381.4959999999999" type="line"/>
      <point x="291.408" y="1334.5888145695362"/>
      <point x="349.832" y="1286.4095907981875"/>
      <point x="385.832" y="1256.784" type="curve"/>
      <point x="-29.872" y="0.0" type="line"/>
      <point x="229.8" y="0.0" type="line"/>
    </contour>
  </outline>
</glyph>
<glyph name="i" format="2">
	<unicode hex="0069"/>
	<advance width="653.296"/>
	<outline>
		<contour>
			<point x="65.424" y="136.096" type="line" smooth="yes"/>
			<point x="23.128" y="20.752"/>
			<point x="49.672" y="-24.24"/>
			<point x="159.624" y="-24.24" type="curve" smooth="yes"/>
			<point x="285.336" y="-24.24"/>
			<point x="444.472" y="77.456"/>
			<point x="611.808" y="331.904" type="curve"/>
			<point x="601.112" y="339.328" type="line"/>
			<point x="409.832" y="136.992"/>
			<point x="307.72" y="119.048"/>
			<point x="240.128" y="133.752" type="curve"/>
			<point x="308.224" y="88" type="line"/>
			<point x="606.264" y="893.84" type="line" smooth="yes"/>
			<point x="643.44" y="994.52"/>
			<point x="624.168" y="1042.304"/>
			<point x="511.368" y="1042.304" type="curve" smooth="yes"/>
			<point x="376.808" y="1042.304"/>
			<point x="225.944" y="941.88"/>
			<point x="50.976" y="691.248" type="curve"/>
			<point x="62.52" y="682.552" type="line"/>
			<point x="233.04" y="857.68"/>
			<point x="309.808" y="888.2"/>
			<point x="400.272" y="873.352" type="curve"/>
			<point x="361.768" y="936" type="line"/>
		</contour>
		<contour>
			<point x="454.848" y="1318.528" type="curve" smooth="yes"/>
			<point x="454.848" y="1240.656"/>
			<point x="510.904" y="1174.688"/>
			<point x="601.2" y="1174.688" type="curve" smooth="yes"/>
			<point x="700.248" y="1174.688"/>
			<point x="764.328" y="1249.56"/>
			<point x="764.328" y="1333.368" type="curve" smooth="yes"/>
			<point x="764.328" y="1410.088"/>
			<point x="710" y="1472.448"/>
			<point x="620.28" y="1472.448" type="curve" smooth="yes"/>
			<point x="520.656" y="1472.448"/>
			<point x="454.848" y="1401.184"/>
		</contour>
	</outline>
	<anchor name="top" x="628.008" y="1430"/>
	<anchor name="bottom" x="169.856" y="0"/>
	<anchor name="right" x="354.952" y="0"/>
</glyph>
<glyph name="j" format="2">
	<unicode hex="006A"/>
	<advance width="601.112"/>
	<outline>
		<contour>
			<point x="435.032" y="1318.528" type="curve" smooth="yes"/>
			<point x="435.032" y="1240.656"/>
			<point x="491.088" y="1174.688"/>
			<point x="581.384" y="1174.688" type="curve" smooth="yes"/>
			<point x="680.432" y="1174.688"/>
			<point x="744.512" y="1249.56"/>
			<point x="744.512" y="1333.368" type="curve" smooth="yes"/>
			<point x="744.512" y="1410.088"/>
			<point x="690.184" y="1472.448"/>
			<point x="600.464" y="1472.448" type="curve" smooth="yes"/>
			<point x="500.84" y="1472.448"/>
			<point x="435.032" y="1401.184"/>
		</contour>
		<contour>
			<point x="346.456" y="139.696" type="curve" smooth="yes"/>
			<point x="587.296" y="893.84" type="line" smooth="yes"/>
			<point x="619.2" y="995.368"/>
			<point x="605.2" y="1042.304"/>
			<point x="492.4" y="1042.304" type="curve" smooth="yes"/>
			<point x="357.84" y="1042.304"/>
			<point x="208.672" y="941.456"/>
			<point x="36.248" y="691.248" type="curve"/>
			<point x="47.792" y="682.552" type="line"/>
			<point x="209.408" y="856.832"/>
			<point x="290.84" y="888.2"/>
			<point x="381.304" y="873.352" type="curve"/>
			<point x="342.8" y="936" type="line"/>
			<point x="20.048" y="-104.392" type="line" smooth="yes"/>
			<point x="-58.328" y="-353.368"/>
			<point x="-108.816" y="-408.672"/>
			<point x="-166.336" y="-408.672" type="curve" smooth="yes"/>
			<point x="-211.88" y="-408.672"/>
			<point x="-229.032" y="-387.128"/>
			<point x="-208.824" y="-297.352" type="curve" smooth="yes"/>
			<point x="-188.616" y="-207.152"/>
			<point x="-207.28" y="-168.976"/>
			<point x="-282.056" y="-168.976" type="curve" smooth="yes"/>
			<point x="-362.44" y="-168.976"/>
			<point x="-408.768" y="-232.696"/>
			<point x="-408.768" y="-305.112" type="curve" smooth="yes"/>
			<point x="-408.768" y="-395.008"/>
			<point x="-339.84" y="-465"/>
			<point x="-207.8" y="-465" type="curve" smooth="yes"/>
			<point x="2.624" y="-465"/>
			<point x="216.792" y="-269.832"/>
		</contour>
	</outline>
	<anchor name="top" x="598.136" y="1430"/>
	<anchor name="bottom" x="-121.448" y="-440.76"/>
</glyph>
<glyph name="k" format="2">
	<unicode hex="006B"/>
	<advance width="1107.288"/>
	<outline>
		<contour>
			<point x="715.704" y="1488.24" type="line"/>
			<point x="704.648" y="1488.24" type="line"/>
			<point x="238.376" y="1398.944" type="line"/>
			<point x="234.408" y="1381.496" type="line"/>
			<point x="291.408" y="1334.5888145695"/>
			<point x="349.832" y="1286.4095907982"/>
			<point x="385.832" y="1256.784" type="curve"/>
			<point x="-29.872" y="0" type="line"/>
			<point x="232.344" y="0" type="line"/>
		</contour>
		<contour>
			<point x="404.256" y="549.432" type="line"/>
			<point x="525.144" y="53.928"/>
			<point x="579.2" y="-24.24"/>
			<point x="680.04" y="-24.24" type="curve" smooth="yes"/>
			<point x="793.936" y="-24.24"/>
			<point x="900.8" y="56.112"/>
			<point x="1056.192" y="344.744" type="curve"/>
			<point x="1043.344" y="352.592" type="line"/>
			<point x="928.096" y="187.792"/>
			<point x="871.064" y="150.032"/>
			<point x="827.608" y="150.032" type="curve" smooth="yes"/>
			<point x="773.488" y="150.032"/>
			<point x="715.184" y="249.28"/>
			<point x="595.216" y="733.424" type="curve"/>
			<point x="543.696" y="666.296" type="line"/>
			<point x="690.744" y="822.928"/>
			<point x="831.768" y="908.552"/>
			<point x="901.496" y="908.552" type="curve" smooth="yes"/>
			<point x="929.552" y="908.552"/>
			<point x="939.52" y="894.432"/>
			<point x="934.912" y="833.136" type="curve" smooth="yes"/>
			<point x="930.304" y="771.84"/>
			<point x="949.272" y="740.872"/>
			<point x="1011.784" y="740.872" type="curve" smooth="yes"/>
			<point x="1095.96" y="740.872"/>
			<point x="1175.136" y="809.928"/>
			<point x="1175.136" y="917.464" type="curve" smooth="yes"/>
			<point x="1175.136" y="991.912"/>
			<point x="1127.384" y="1048.24"/>
			<point x="1024.576" y="1048.24" type="curve" smooth="yes"/>
			<point x="908.52" y="1048.24"/>
			<point x="766.528" y="950.488"/>
			<point x="410.496" y="568.032" type="curve"/>
		</contour>
	</outline>
	<anchor name="UCtop" x="873.872" y="1430"/>
	<anchor name="bottom" x="444.112" y="0"/>
</glyph>
<glyph name="l" format="2">
	<unicode hex="006C"/>
	<advance width="602.624"/>
	<outline>
		<contour>
			<point x="384.44" y="1257.208" type="curve"/>
			<point x="25.696" y="136.52" type="line" smooth="yes"/>
			<point x="-11.904" y="19.176"/>
			<point x="9.944" y="-24.24"/>
			<point x="123.928" y="-24.24" type="curve" smooth="yes"/>
			<point x="243.728" y="-24.24"/>
			<point x="404.136" y="82.544"/>
			<point x="575.288" y="343.352" type="curve"/>
			<point x="564.592" y="350.776" type="line"/>
			<point x="373.288" y="143.536"/>
			<point x="263.08" y="120.2"/>
			<point x="200.704" y="133.752" type="curve"/>
			<point x="266.496" y="87.424" type="line"/>
			<point x="715.768" y="1488.24" type="line"/>
			<point x="704.712" y="1488.24" type="line"/>
			<point x="236.984" y="1398.944" type="line"/>
			<point x="233.016" y="1381.496" type="line"/>
			<point x="290.016" y="1334.7478145695"/>
			<point x="348.44" y="1286.7331697456"/>
		</contour>
	</outline>
	<anchor name="UCtop" x="534.032" y="1430"/>
	<anchor name="bottom" x="130.736" y="0"/>
	<anchor name="right" x="708.072" y="1464"/>
	<anchor name="mid" x="631.544" y="582"/>
</glyph>
<glyph name="m" format="2">
	<unicode hex="006D"/>
	<advance width="1746.992"/>
	<outline>
		<contour>
			<point x="1389.768" y="88.424" type="line"/>
			<point x="1621.928" y="658.808" type="line" smooth="yes"/>
			<point x="1675.32" y="789.864"/>
			<point x="1684.896" y="837.496"/>
			<point x="1684.896" y="886.312" type="curve" smooth="yes"/>
			<point x="1684.896" y="975.336"/>
			<point x="1630.144" y="1048.24"/>
			<point x="1495.152" y="1048.24" type="curve" smooth="yes"/>
			<point x="1332.832" y="1048.24"/>
			<point x="1213.312" y="944.48"/>
			<point x="997.896" y="543.096" type="curve"/>
			<point x="1017.016" y="543.096" type="line"/>
			<point x="1079.416" y="727.928" type="line" smooth="yes"/>
			<point x="1106.256" y="810.416"/>
			<point x="1114.376" y="852.44"/>
			<point x="1114.376" y="891.464" type="curve" smooth="yes"/>
			<point x="1114.376" y="984.52"/>
			<point x="1059.104" y="1048.24"/>
			<point x="941.688" y="1048.24" type="curve" smooth="yes"/>
			<point x="795.576" y="1048.24"/>
			<point x="682.696" y="962.936"/>
			<point x="486" y="591.024" type="curve"/>
			<point x="494.728" y="591.024" type="line"/>
			<point x="631.872" y="1022.272" type="line"/>
			<point x="574.64" y="1039.12"/>
			<point x="539.4" y="1045.696"/>
			<point x="473.016" y="1045.696" type="curve" smooth="yes"/>
			<point x="302.64" y="1045.696"/>
			<point x="189.28" y="943.816"/>
			<point x="52.128" y="609.76" type="curve"/>
			<point x="63.552" y="604.336" type="line"/>
			<point x="186.408" y="829.496"/>
			<point x="263.688" y="873.504"/>
			<point x="309.232" y="873.504" type="curve" smooth="yes"/>
			<point x="334.776" y="873.504"/>
			<point x="338.2" y="850.232"/>
			<point x="328.08" y="820.872" type="curve"/>
			<point x="51.224" y="0" type="line"/>
			<point x="309.624" y="0" type="line"/>
			<point x="486.2" y="523.64" type="line" smooth="yes"/>
			<point x="544.776" y="682.256"/>
			<point x="687.192" y="853.392"/>
			<point x="787.264" y="853.392" type="curve" smooth="yes"/>
			<point x="825.968" y="853.392"/>
			<point x="846.76" y="840.088"/>
			<point x="846.76" y="807.264" type="curve" smooth="yes"/>
			<point x="846.76" y="784.992"/>
			<point x="838.912" y="755.144"/>
			<point x="809.8" y="672.352" type="curve" smooth="yes"/>
			<point x="574.056" y="0" type="line"/>
			<point x="837.968" y="0" type="line"/>
			<point x="1021.696" y="524.216" type="line"/>
			<point x="1073.784" y="659.64"/>
			<point x="1213.048" y="853.392"/>
			<point x="1333.096" y="853.392" type="curve" smooth="yes"/>
			<point x="1380.984" y="853.392"/>
			<point x="1404.896" y="834.056"/>
			<point x="1404.896" y="797.992" type="curve" smooth="yes"/>
			<point x="1404.896" y="771.448"/>
			<point x="1393.744" y="740.176"/>
			<point x="1349.96" y="634.336" type="curve" smooth="yes"/>
			<point x="1133.488" y="111.928" type="line" smooth="yes"/>
			<point x="1097.52" y="24.568"/>
			<point x="1137.456" y="-24.24"/>
			<point x="1246.352" y="-24.24" type="curve" smooth="yes"/>
			<point x="1373.64" y="-24.24"/>
			<point x="1531.872" y="75.304"/>
			<point x="1712.656" y="330.208" type="curve"/>
			<point x="1702.384" y="338.904" type="line"/>
			<point x="1515.48" y="151.088"/>
			<point x="1401.752" y="123.352"/>
			<point x="1324.944" y="133.96" type="curve"/>
		</contour>
	</outline>
	<anchor name="top" x="1044.904" y="1024"/>
	<anchor name="bottom" x="725.144" y="0"/>
</glyph>
<glyph name="n" format="2">
	<unicode hex="006E"/>
	<advance width="1235.584"/>
	<outline>
		<contour>
			<point x="63.552" y="604.336" type="line"/>
			<point x="186.408" y="829.496"/>
			<point x="263.688" y="873.504"/>
			<point x="309.232" y="873.504" type="curve" smooth="yes"/>
			<point x="334.776" y="873.504"/>
			<point x="338.2" y="850.232"/>
			<point x="328.08" y="820.872" type="curve"/>
			<point x="51.224" y="0" type="line"/>
			<point x="309.624" y="0" type="line"/>
			<point x="485.624" y="520.184" type="line"/>
			<point x="533.104" y="645.664"/>
			<point x="686.368" y="853.392"/>
			<point x="816.176" y="853.392" type="curve" smooth="yes"/>
			<point x="867.456" y="853.392"/>
			<point x="893.488" y="832.784"/>
			<point x="893.488" y="793.328" type="curve" smooth="yes"/>
			<point x="893.488" y="770.176"/>
			<point x="882.336" y="740.176"/>
			<point x="838.552" y="634.336" type="curve" smooth="yes"/>
			<point x="622.08" y="111.928" type="line" smooth="yes"/>
			<point x="586.112" y="24.568"/>
			<point x="626.048" y="-24.24"/>
			<point x="734.944" y="-24.24" type="curve" smooth="yes"/>
			<point x="862.232" y="-24.24"/>
			<point x="1020.464" y="75.304"/>
			<point x="1201.248" y="330.208" type="curve"/>
			<point x="1190.976" y="338.904" type="line"/>
			<point x="1004.072" y="151.088"/>
			<point x="890.344" y="123.352"/>
			<point x="813.536" y="133.96" type="curve"/>
			<point x="878.36" y="88.424" type="line"/>
			<point x="1110.52" y="658.808" type="line" smooth="yes"/>
			<point x="1163.912" y="789.864"/>
			<point x="1173.488" y="837.496"/>
			<point x="1173.488" y="886.312" type="curve" smooth="yes"/>
			<point x="1173.488" y="975.336"/>
			<point x="1117.04" y="1048.24"/>
			<point x="978.232" y="1048.24" type="curve" smooth="yes"/>
			<point x="825.488" y="1048.24"/>
			<point x="704.368" y="977.304"/>
			<point x="477.936" y="570.864" type="curve"/>
			<point x="489.544" y="570.864" type="line"/>
			<point x="631.872" y="1022.272" type="line"/>
			<point x="574.64" y="1039.12"/>
			<point x="539.4" y="1045.696"/>
			<point x="473.016" y="1045.696" type="curve" smooth="yes"/>
			<point x="302.64" y="1045.696"/>
			<point x="189.28" y="943.816"/>
			<point x="52.128" y="609.76" type="curve"/>
		</contour>
	</outline>
	<anchor name="top" x="778.392" y="1024"/>
	<anchor name="bottom" x="475.912" y="0"/>
</glyph>
<glyph name="o" format="2">
	<unicode hex="006F"/>
	<advance width="1022.336"/>
	<outline>
		<contour>
			<point x="668.008" y="1048.24" type="curve" smooth="yes"/>
			<point x="330.872" y="1048.24"/>
			<point x="37.032" y="683.28"/>
			<point x="37.032" y="313.856" type="curve" smooth="yes"/>
			<point x="37.032" y="103.96"/>
			<point x="144.928" y="-24.24"/>
			<point x="352.752" y="-24.24" type="curve" smooth="yes"/>
			<point x="689.888" y="-24.24"/>
			<point x="983.728" y="340.72"/>
			<point x="983.728" y="710.144" type="curve" smooth="yes"/>
			<point x="983.728" y="920.04"/>
			<point x="875.832" y="1048.24"/>
		</contour>
		<contour>
			<point x="340.488" y="26.296" type="curve" smooth="yes"/>
			<point x="289.448" y="26.296"/>
			<point x="267.384" y="63.488"/>
			<point x="267.384" y="150.928" type="curve" smooth="yes"/>
			<point x="267.384" y="496.216"/>
			<point x="498.776" y="997.704"/>
			<point x="680.272" y="997.704" type="curve" smooth="yes"/>
			<point x="731.312" y="997.704"/>
			<point x="753.376" y="960.512"/>
			<point x="753.376" y="873.072" type="curve" smooth="yes"/>
			<point x="753.376" y="527.784"/>
			<point x="521.984" y="26.296"/>
		</contour>
	</outline>
	<anchor name="top" x="671.12" y="1024"/>
	<anchor name="bottom" x="332.88" y="0"/>
	<anchor name="horn" x="825.608" y="1024"/>
	<anchor name="right" x="438.568" y="0"/>
</glyph>
<glyph name="p" format="2">
	<unicode hex="0070"/>
	<advance width="1195.216"/>
	<outline>
		<contour>
			<point x="402.928" y="265.056" type="curve" smooth="yes"/>
			<point x="479.864" y="537.16" type="line" smooth="yes"/>
			<point x="555.336" y="726.216"/>
			<point x="688.664" y="883.056"/>
			<point x="806.752" y="883.056" type="curve" smooth="yes"/>
			<point x="862.392" y="883.056"/>
			<point x="891.912" y="845.448"/>
			<point x="891.912" y="750.536" type="curve" smooth="yes"/>
			<point x="891.912" y="421.312"/>
			<point x="656.832" y="27.448"/>
			<point x="488.968" y="27.448" type="curve" smooth="yes"/>
			<point x="418.72" y="27.448"/>
			<point x="388.504" y="90.48"/>
			<point x="388.504" y="167.12" type="curve" smooth="yes"/>
			<point x="388.504" y="198.664"/>
			<point x="393.928" y="233.208"/>
		</contour>
		<contour>
			<point x="251.856" y="120.848" type="line"/>
			<point x="281.2018426966" y="35.1144719101"/>
			<point x="359.696" y="-24.24"/>
			<point x="510.472" y="-24.24" type="curve" smooth="yes"/>
			<point x="842.288" y="-24.24"/>
			<point x="1178.216" y="386.832"/>
			<point x="1178.216" y="782.688" type="curve" smooth="yes"/>
			<point x="1178.216" y="956.7375851393"/>
			<point x="1093.376" y="1048.24"/>
			<point x="950.352" y="1048.24" type="curve" smooth="yes"/>
			<point x="798.76" y="1048.24"/>
			<point x="647.2860052564" y="941.4089925196"/>
			<point x="475.392" y="593.28" type="curve"/>
			<point x="490.24" y="593.28" type="line"/>
			<point x="625.448" y="1022.696" type="line"/>
			<point x="569.488" y="1039.12"/>
			<point x="534.672" y="1045.696"/>
			<point x="469.56" y="1045.696" type="curve" smooth="yes"/>
			<point x="299.184" y="1045.696"/>
			<point x="185.824" y="943.816"/>
			<point x="48.672" y="609.76" type="curve"/>
			<point x="60.096" y="604.336" type="line"/>
			<point x="182.952" y="829.496"/>
			<point x="260.232" y="873.504"/>
			<point x="305.776" y="873.504" type="curve" smooth="yes"/>
			<point x="330.168" y="873.504"/>
			<point x="334.896" y="853.112"/>
			<point x="324.624" y="820.872" type="curve"/>
			<point x="-42.352" y="-379.52" type="line"/>
			<point x="-170.512" y="-412.064" type="line"/>
			<point x="-177.088" y="-440.76" type="line"/>
			<point x="353.12" y="-440.76" type="line"/>
			<point x="360.12" y="-411.64" type="line"/>
			<point x="224.104" y="-379.944" type="line"/>
			<point x="366.104" y="97.784" type="line"/>
		</contour>
	</outline>
	<anchor name="top" x="755.968" y="1024"/>
	<anchor name="bottom" x="77.864" y="-440.76"/>
</glyph>
<glyph name="q" format="2">
	<unicode hex="0071"/>
	<advance width="1113.832"/>
	<outline>
		<contour>
			<point x="450.096" y="-380.368" type="line"/>
			<point x="302.84" y="-411.64" type="line"/>
			<point x="294.144" y="-440.76" type="line"/>
			<point x="821.656" y="-440.76" type="line"/>
			<point x="829.928" y="-412.064" type="line"/>
			<point x="716.976" y="-379.52" type="line"/>
			<point x="1138.856" y="1024" type="line"/>
			<point x="890" y="1024" type="line"/>
			<point x="848.4" y="905.528" type="line"/>
			<point x="692.248" y="469.32" type="line" smooth="yes"/>
			<point x="535.176" y="226.072"/>
			<point x="430.016" y="150.432"/>
			<point x="361.496" y="150.432" type="curve" smooth="yes"/>
			<point x="309.312" y="150.432"/>
			<point x="280.608" y="175.344"/>
			<point x="280.608" y="252.288" type="curve" smooth="yes"/>
			<point x="280.608" y="481.752"/>
			<point x="525.832" y="942.776"/>
			<point x="736.032" y="942.776" type="curve" smooth="yes"/>
			<point x="800.336" y="942.776"/>
			<point x="848.216" y="910.656"/>
			<point x="886.64" y="803.992" type="curve"/>
			<point x="892.792" y="847.744" type="line"/>
			<point x="830.528" y="984.576"/>
			<point x="745.928" y="1045.936"/>
			<point x="651.752" y="1045.936" type="curve" smooth="yes"/>
			<point x="333" y="1045.936"/>
			<point x="-6.208" y="526.68"/>
			<point x="-6.208" y="178.328" type="curve" smooth="yes"/>
			<point x="-6.208" y="53.904"/>
			<point x="77.576" y="-24.24"/>
			<point x="199.536" y="-24.24" type="curve" smooth="yes"/>
			<point x="320.4" y="-24.24"/>
			<point x="460.032" y="42.912"/>
			<point x="719.152" y="464.32" type="curve"/>
			<point x="704.76" y="464.32" type="line"/>
		</contour>
	</outline>
	<anchor name="top" x="740.072" y="1024"/>
	<anchor name="bottom" x="573.04" y="-440.76"/>
</glyph>
<glyph name="r" format="2">
	<unicode hex="0072"/>
	<advance width="951.152"/>
	<outline>
		<contour>
			<point x="328.08" y="820.872" type="curve"/>
			<point x="51.224" y="0" type="line"/>
			<point x="309.624" y="0" type="line"/>
			<point x="425.84" y="342.952" type="line" smooth="yes"/>
			<point x="536.776" y="668.944"/>
			<point x="686.728" y="866.208"/>
			<point x="784.032" y="866.208" type="curve" smooth="yes"/>
			<point x="808.544" y="866.208"/>
			<point x="817.664" y="854.088"/>
			<point x="815.056" y="802.848" type="curve" smooth="yes"/>
			<point x="812.448" y="751.608"/>
			<point x="833.144" y="727.064"/>
			<point x="889.536" y="727.064" type="curve" smooth="yes"/>
			<point x="982.888" y="727.064"/>
			<point x="1063.608" y="806.992"/>
			<point x="1063.608" y="917.768" type="curve" smooth="yes"/>
			<point x="1063.608" y="998.424"/>
			<point x="1017.976" y="1048.24"/>
			<point x="925.072" y="1048.24" type="curve" smooth="yes"/>
			<point x="798.232" y="1048.24"/>
			<point x="669.848" y="951.096"/>
			<point x="471.424" y="531.2" type="curve"/>
			<point x="471.336" y="508.304" type="line"/>
			<point x="631.872" y="1022.272" type="line"/>
			<point x="574.64" y="1039.12"/>
			<point x="539.4" y="1045.696"/>
			<point x="473.016" y="1045.696" type="curve" smooth="yes"/>
			<point x="302.64" y="1045.696"/>
			<point x="189.28" y="943.816"/>
			<point x="52.128" y="609.76" type="curve"/>
			<point x="63.552" y="604.336" type="line"/>
			<point x="186.408" y="829.496"/>
			<point x="263.688" y="873.504"/>
			<point x="309.232" y="873.504" type="curve" smooth="yes"/>
			<point x="334.776" y="873.504"/>
			<point x="338.2" y="850.232"/>
		</contour>
	</outline>
	<anchor name="top" x="659.312" y="1024"/>
	<anchor name="bottom" x="187.624" y="0"/>
</glyph>
<glyph name="s" format="2">
	<unicode hex="0073"/>
	<advance width="779.192"/>
	<outline>
		<contour>
			<point x="155.504" y="248.984" type="curve" smooth="yes"/>
			<point x="15.76" y="248.984"/>
			<point x="-33.664" y="210.472"/>
			<point x="-33.664" y="122.72" type="curve" smooth="yes"/>
			<point x="-33.664" y="33.544"/>
			<point x="35.568" y="-24.24"/>
			<point x="216.76" y="-24.24" type="curve" smooth="yes"/>
			<point x="474.616" y="-24.24"/>
			<point x="647.76" y="152.104"/>
			<point x="647.76" y="353.8" type="curve" smooth="yes"/>
			<point x="647.76" y="441.552"/>
			<point x="608.464" y="525.304"/>
			<point x="497.264" y="636.312" type="curve" smooth="yes"/>
			<point x="386.064" y="747.32"/>
			<point x="357.976" y="798.536"/>
			<point x="357.976" y="857.84" type="curve" smooth="yes"/>
			<point x="357.976" y="944.88"/>
			<point x="420.92" y="999.184"/>
			<point x="534.312" y="999.184" type="curve" smooth="yes"/>
			<point x="578.672" y="999.184"/>
			<point x="606.608" y="992.912"/>
			<point x="624.304" y="967.552" type="curve" smooth="yes"/>
			<point x="642" y="942.192"/>
			<point x="649.424" y="894.92"/>
			<point x="644.424" y="789.048" type="curve" smooth="yes"/>
			<point x="780.2" y="789.048"/>
			<point x="822.864" y="823.776"/>
			<point x="822.864" y="902.432" type="curve" smooth="yes"/>
			<point x="822.864" y="986.64"/>
			<point x="761.568" y="1048.24"/>
			<point x="586.344" y="1048.24" type="curve" smooth="yes"/>
			<point x="340.912" y="1048.24"/>
			<point x="183.432" y="889.584"/>
			<point x="183.432" y="693.96" type="curve" smooth="yes"/>
			<point x="183.432" y="601.696"/>
			<point x="217.76" y="520.848"/>
			<point x="329.96" y="413.024" type="curve" smooth="yes"/>
			<point x="442.16" y="305.2"/>
			<point x="472.192" y="246.224"/>
			<point x="472.192" y="185.616" type="curve" smooth="yes"/>
			<point x="472.192" y="91.456"/>
			<point x="406.248" y="36.664"/>
			<point x="278.704" y="36.664" type="curve" smooth="yes"/>
			<point x="236.984" y="36.664"/>
			<point x="207.2" y="42.632"/>
			<point x="186.656" y="70.296" type="curve" smooth="yes"/>
			<point x="166.112" y="97.96"/>
			<point x="156.112" y="152.896"/>
		</contour>
	</outline>
	<anchor name="top" x="533.224" y="1024"/>
	<anchor name="bottom" x="245.448" y="0"/>
</glyph>
<glyph name="t" format="2">
	<unicode hex="0074"/>
	<advance width="715.768"/>
	<outline>
		<contour>
			<point x="134.128" y="962.248" type="line"/>
			<point x="823.392" y="962.248" type="line"/>
			<point x="837.664" y="1024" type="line"/>
			<point x="150.552" y="1024" type="line"/>
		</contour>
		<contour>
			<point x="389.2" y="340.424" type="curve" smooth="yes"/>
			<point x="713.568" y="1300.104" type="line"/>
			<point x="446.656" y="1300.104" type="line"/>
			<point x="123.656" y="345.528" type="line" smooth="yes"/>
			<point x="79.056" y="216.784"/>
			<point x="73.664" y="157.16"/>
			<point x="73.664" y="122.68" type="curve" smooth="yes"/>
			<point x="73.664" y="14.12"/>
			<point x="139.016" y="-24.24"/>
			<point x="215.4" y="-24.24" type="curve" smooth="yes"/>
			<point x="322.208" y="-24.24"/>
			<point x="463.712" y="20.216"/>
			<point x="679.28" y="351.656" type="curve"/>
			<point x="667.312" y="361.2" type="line"/>
			<point x="523.488" y="191.128"/>
			<point x="450.056" y="161.096"/>
			<point x="400.512" y="161.096" type="curve" smooth="yes"/>
			<point x="370.664" y="161.096"/>
			<point x="353.816" y="171.944"/>
			<point x="353.816" y="199.488" type="curve" smooth="yes"/>
			<point x="353.816" y="221.696"/>
			<point x="358.936" y="254.992"/>
		</contour>
	</outline>
	<anchor name="bottom" x="237.464" y="0"/>
	<anchor name="right" x="760.664" y="1535"/>
</glyph>
<glyph name="u" format="2">
	<unicode hex="0075"/>
	<advance width="1160.856"/>
	<outline>
		<contour>
			<point x="611.888" y="91.408" type="line" smooth="yes"/>
			<point x="590.376" y="16.512"/>
			<point x="623.16" y="-24.24"/>
			<point x="693.4" y="-24.24" type="curve" smooth="yes"/>
			<point x="817.808" y="-24.24"/>
			<point x="969.856" y="73.48"/>
			<point x="1134.128" y="341.232" type="curve"/>
			<point x="1124.704" y="348.656" type="line"/>
			<point x="960.984" y="157.512"/>
			<point x="846.592" y="126.288"/>
			<point x="772.816" y="134.96" type="curve"/>
			<point x="840.848" y="86.576" type="line"/>
			<point x="1157.424" y="1024" type="line"/>
			<point x="898.6" y="1024" type="line"/>
			<point x="705.688" y="443.904" type="line" smooth="yes"/>
			<point x="650.576" y="303.312"/>
			<point x="533.728" y="168.488"/>
			<point x="443.864" y="168.488" type="curve" smooth="yes"/>
			<point x="393.888" y="168.488"/>
			<point x="364.28" y="185.912"/>
			<point x="364.28" y="230.944" type="curve" smooth="yes"/>
			<point x="364.28" y="254.792"/>
			<point x="373.552" y="288.064"/>
			<point x="395.488" y="344.176" type="curve" smooth="yes"/>
			<point x="606.392" y="887.904" type="line" smooth="yes"/>
			<point x="649.416" y="999.008"/>
			<point x="609.632" y="1042.304"/>
			<point x="502.8" y="1042.304" type="curve" smooth="yes"/>
			<point x="370.936" y="1042.304"/>
			<point x="217.616" y="941.576"/>
			<point x="51.672" y="690.064" type="curve"/>
			<point x="62.792" y="681.368" type="line"/>
			<point x="226.168" y="865.048"/>
			<point x="313.152" y="889.384"/>
			<point x="403.848" y="872.896" type="curve"/>
			<point x="357.376" y="936" type="line"/>
			<point x="118.608" y="287.072" type="line" smooth="yes"/>
			<point x="102.184" y="241.952"/>
			<point x="92.608" y="188.624"/>
			<point x="92.608" y="145.808" type="curve" smooth="yes"/>
			<point x="92.608" y="48.816"/>
			<point x="136.184" y="-24.24"/>
			<point x="277.96" y="-24.24" type="curve" smooth="yes"/>
			<point x="419.376" y="-24.24"/>
			<point x="544.576" y="84.416"/>
			<point x="718.704" y="417" type="curve"/>
			<point x="710.552" y="427.176" type="line"/>
		</contour>
	</outline>
	<anchor name="top" x="744.48" y="1024"/>
	<anchor name="right" x="910.744" y="0"/>
	<anchor name="bottom" x="439.28" y="0"/>
	<anchor name="horn" x="1059.304" y="1024"/>
</glyph>
<glyph name="v" format="2">
  <advance width="1051.04"/>
  <unicode hex="0076"/>
  <anchor x="684.968" y="1024.0" name="top"/>
  <anchor x="394.008" y="0.0" name="bottom"/>
  <outline>
    <contour>
      <point x="1026.424" y="841.3919999999999" type="curve" smooth="yes"/>
      <point x="1026.424" y="982.88"/>
      <point x="976.728" y="1047.664"/>
      <point x="886.432" y="1047.664" type="curve" smooth="yes"/>
      <point x="804.048" y="1047.664"/>
      <point x="758.8720000000001" y="992.216"/>
      <point x="758.8720000000001" y="926.4639999999999" type="curve" smooth="yes"/>
      <point x="758.8720000000001" y="802.496"/>
      <point x="920.9599999999999" y="806.096"/>
      <point x="920.9599999999999" y="619.544" type="curve" smooth="yes"/>
      <point x="920.9599999999999" y="371.832"/>
      <point x="679.4960000000001" y="123.008"/>
      <point x="493.184" y="123.008" type="curve" smooth="yes"/>
      <point x="430.216" y="123.008"/>
      <point x="398.216" y="147.976"/>
      <point x="398.216" y="214.976" type="curve" smooth="yes"/>
      <point x="398.216" y="253.824"/>
      <point x="409.216" y="306.976"/>
      <point x="430.792" y="377.28" type="curve" smooth="yes"/>
      <point x="631.464" y="1022.1200000000001" type="line"/>
      <point x="570.144" y="1038.816"/>
      <point x="533.664" y="1045.6960000000001"/>
      <point x="469.976" y="1045.6960000000001" type="curve" smooth="yes"/>
      <point x="287.72799999999995" y="1045.6960000000001"/>
      <point x="178.184" y="942.968"/>
      <point x="41.032" y="609.76" type="curve"/>
      <point x="52.455999999999996" y="604.336" type="line"/>
      <point x="175.31199999999998" y="829.4960000000001"/>
      <point x="252.592" y="873.504"/>
      <point x="298.13599999999997" y="873.504" type="curve" smooth="yes"/>
      <point x="323.68" y="873.504"/>
      <point x="327.104" y="851.808"/>
      <point x="316.984" y="820.872" type="curve"/>
      <point x="165.336" y="347.61600000000004" type="line" smooth="yes"/>
      <point x="144.488" y="283.616"/>
      <point x="134.06400000000002" y="226.49599999999998"/>
      <point x="134.06400000000002" y="178.104" type="curve" smooth="yes"/>
      <point x="134.06400000000002" y="49.84"/>
      <point x="206.664" y="-24.240000000000002"/>
      <point x="359.616" y="-24.240000000000002" type="curve" smooth="yes"/>
      <point x="664.424" y="-24.240000000000002"/>
      <point x="1026.424" y="409.128"/>
    </contour>
  </outline>
</glyph>
<glyph name="w" format="2">
	<unicode hex="0077"/>
	<advance width="1590.152"/>
	<outline>
		<contour>
			<point x="922.208" y="1024" type="line"/>
			<point x="824.304" y="611.432" type="line" smooth="yes"/>
			<point x="742.912" y="267.368"/>
			<point x="584.8" y="123.008"/>
			<point x="476.032" y="123.008" type="curve" smooth="yes"/>
			<point x="423.76" y="123.008"/>
			<point x="394.064" y="141.28"/>
			<point x="394.064" y="202.672" type="curve" smooth="yes"/>
			<point x="394.064" y="240.52"/>
			<point x="405.064" y="294.944"/>
			<point x="429.064" y="371.52" type="curve" smooth="yes"/>
			<point x="632.04" y="1022.12" type="line"/>
			<point x="570.72" y="1038.816"/>
			<point x="534.24" y="1045.696"/>
			<point x="470.552" y="1045.696" type="curve" smooth="yes"/>
			<point x="288.304" y="1045.696"/>
			<point x="178.76" y="942.968"/>
			<point x="41.608" y="609.76" type="curve"/>
			<point x="53.032" y="604.336" type="line"/>
			<point x="175.888" y="829.496"/>
			<point x="253.168" y="873.504"/>
			<point x="298.712" y="873.504" type="curve" smooth="yes"/>
			<point x="324.256" y="873.504"/>
			<point x="327.68" y="851.808"/>
			<point x="317.56" y="820.872" type="curve"/>
			<point x="164.76" y="345.888" type="line" smooth="yes"/>
			<point x="141.488" y="274.344"/>
			<point x="130.216" y="213.104"/>
			<point x="130.216" y="162.592" type="curve" smooth="yes"/>
			<point x="130.216" y="38.872"/>
			<point x="198.272" y="-24.24"/>
			<point x="334.192" y="-24.24" type="curve" smooth="yes"/>
			<point x="491.096" y="-24.24"/>
			<point x="684.76" y="107.384"/>
			<point x="822.776" y="488.688" type="curve"/>
			<point x="813.688" y="488.688" type="line"/>
			<point x="759.016" y="287.216" type="line" smooth="yes"/>
			<point x="747.016" y="241.792"/>
			<point x="740.44" y="202.52"/>
			<point x="740.44" y="167.824" type="curve" smooth="yes"/>
			<point x="740.44" y="39.024"/>
			<point x="822.576" y="-24.24"/>
			<point x="960.504" y="-24.24" type="curve" smooth="yes"/>
			<point x="1250.896" y="-24.24"/>
			<point x="1561.416" y="409.128"/>
			<point x="1561.416" y="841.392" type="curve" smooth="yes"/>
			<point x="1561.416" y="982.88"/>
			<point x="1511.72" y="1047.664"/>
			<point x="1421.424" y="1047.664" type="curve" smooth="yes"/>
			<point x="1339.04" y="1047.664"/>
			<point x="1293.864" y="992.216"/>
			<point x="1293.864" y="926.464" type="curve" smooth="yes"/>
			<point x="1293.864" y="802.496"/>
			<point x="1455.952" y="806.096"/>
			<point x="1455.952" y="619.544" type="curve" smooth="yes"/>
			<point x="1455.952" y="376.92"/>
			<point x="1275.448" y="123.008"/>
			<point x="1098.888" y="123.008" type="curve" smooth="yes"/>
			<point x="1031.104" y="123.008"/>
			<point x="1001.2" y="153.792"/>
			<point x="1001.2" y="223.72" type="curve" smooth="yes"/>
			<point x="1001.2" y="257.296"/>
			<point x="1008.504" y="300.328"/>
			<point x="1020.808" y="353.664" type="curve" smooth="yes"/>
			<point x="1171.728" y="1024" type="line"/>
		</contour>
	</outline>
	<anchor name="top" x="1015.76" y="1024"/>
	<anchor name="bottom" x="754.48" y="0"/>
</glyph>
<glyph name="x" format="2">
  <advance width="1064.7440000000001"/>
  <unicode hex="0078"/>
  <anchor x="705.912" y="1024.0" name="top"/>
  <anchor x="396.472" y="0.0" name="bottom"/>
  <outline>
    <contour>
      <point x="570.616" y="491.35200000000003" type="line"/>
      <point x="685.92" y="671.808" type="line" smooth="yes"/>
      <point x="779.8" y="818.84"/>
      <point x="855.4879999999999" y="880.984"/>
      <point x="915.1519999999999" y="880.984" type="curve" smooth="yes"/>
      <point x="950.088" y="880.984"/>
      <point x="959.4799999999999" y="867.8639999999999"/>
      <point x="959.448" y="820.472" type="curve" smooth="yes"/>
      <point x="959.4159999999999" y="773.08"/>
      <point x="976.264" y="755.384"/>
      <point x="1025.656" y="755.384" type="curve" smooth="yes"/>
      <point x="1110.744" y="755.384"/>
      <point x="1176.8880000000001" y="830.864"/>
      <point x="1176.8880000000001" y="926.7040000000001" type="curve" smooth="yes"/>
      <point x="1176.8880000000001" y="1000.696"/>
      <point x="1119.168" y="1048.24"/>
      <point x="1035.416" y="1048.24" type="curve" smooth="yes"/>
      <point x="940.0559999999999" y="1048.24"/>
      <point x="864.784" y="1003.6959999999999"/>
      <point x="765.272" y="850.184" type="curve" smooth="yes"/>
      <point x="563.856" y="539.496" type="line"/>
      <point x="495.832" y="521.624" type="line"/>
      <point x="365.648" y="315.984" type="line" smooth="yes"/>
      <point x="290.92" y="198.10399999999998"/>
      <point x="212.256" y="144.016"/>
      <point x="161.71200000000002" y="144.016" type="curve" smooth="yes"/>
      <point x="128.928" y="144.016"/>
      <point x="116.536" y="158.56"/>
      <point x="117.992" y="203.256" type="curve" smooth="yes"/>
      <point x="119.44800000000001" y="247.952"/>
      <point x="102.17599999999999" y="268.64799999999997"/>
      <point x="52.36" y="268.64799999999997" type="curve" smooth="yes"/>
      <point x="-33.424" y="268.64799999999997"/>
      <point x="-96.024" y="197.408"/>
      <point x="-96.024" y="98.72000000000001" type="curve" smooth="yes"/>
      <point x="-96.024" y="24.728"/>
      <point x="-44.816" y="-24.240000000000002"/>
      <point x="39.36" y="-24.240000000000002" type="curve" smooth="yes"/>
      <point x="145.80800000000002" y="-24.240000000000002"/>
      <point x="238.89600000000002" y="38.12"/>
      <point x="343.952" y="211.384" type="curve" smooth="yes"/>
      <point x="503.592" y="474.32800000000003" type="line"/>
    </contour>
    <contour>
      <point x="981.048" y="385.936" type="curve"/>
      <point x="966.928" y="385.936" type="line"/>
      <point x="898.376" y="202.712"/>
      <point x="833.376" y="135.8"/>
      <point x="786.44" y="135.8" type="curve" smooth="yes"/>
      <point x="763.744" y="135.8"/>
      <point x="750.712" y="149.68"/>
      <point x="739.7439999999999" y="199.552" type="curve" smooth="yes"/>
      <point x="590.704" y="880.784" type="line" smooth="yes"/>
      <point x="562.5279999999999" y="1007.032"/>
      <point x="523.376" y="1048.24"/>
      <point x="437.728" y="1048.24" type="curve" smooth="yes"/>
      <point x="302.08000000000004" y="1048.24"/>
      <point x="196.096" y="956.976"/>
      <point x="124.58399999999999" y="631.2800000000001" type="curve"/>
      <point x="138.704" y="631.2800000000001" type="line"/>
      <point x="199.888" y="818.32"/>
      <point x="255.61599999999999" y="888.7760000000001"/>
      <point x="298.552" y="888.7760000000001" type="curve" smooth="yes"/>
      <point x="320.096" y="888.7760000000001"/>
      <point x="332.552" y="872.592"/>
      <point x="343.52000000000004" y="824.448" type="curve" smooth="yes"/>
      <point x="492.56" y="143.21599999999998" type="line" smooth="yes"/>
      <point x="520.312" y="17.544"/>
      <point x="559.8879999999999" y="-24.240000000000002"/>
      <point x="645.536" y="-24.240000000000002" type="curve" smooth="yes"/>
      <point x="784.456" y="-24.240000000000002"/>
      <point x="899.288" y="64.904"/>
    </contour>
  </outline>
</glyph>
<glyph name="y" format="2">
	<unicode hex="0079"/>
	<advance width="1066.152"/>
	<outline>
		<contour>
			<point x="59.488" y="588.4" type="line"/>
			<point x="138.496" y="814.56"/>
			<point x="180.744" y="859.352"/>
			<point x="224.808" y="859.352" type="curve" smooth="yes"/>
			<point x="251.264" y="859.352"/>
			<point x="276.024" y="834.864"/>
			<point x="304.872" y="732.192" type="curve" smooth="yes"/>
			<point x="339.232" y="612.136"/>
			<point x="380.984" y="319.344"/>
			<point x="425.936" y="-263.616" type="curve"/>
			<point x="651.984" y="-31.192" type="line"/>
			<point x="629.12" y="451.192"/>
			<point x="577.912" y="765.272"/>
			<point x="534.52" y="886.696" type="curve" smooth="yes"/>
			<point x="491.128" y="1008.12"/>
			<point x="442.192" y="1048.24"/>
			<point x="368.112" y="1048.24" type="curve" smooth="yes"/>
			<point x="226.888" y="1048.24"/>
			<point x="123.16" y="936.488"/>
			<point x="44.216" y="588.4" type="curve"/>
		</contour>
		<contour>
			<point x="541.304" y="-94.92" type="line"/>
			<point x="389.456" y="-295.368"/>
			<point x="213.792" y="-394.248"/>
			<point x="93.368" y="-394.248" type="curve" smooth="yes"/>
			<point x="42.888" y="-394.248"/>
			<point x="23.8" y="-370.16"/>
			<point x="43.224" y="-279.472" type="curve" smooth="yes"/>
			<point x="62.648" y="-188.784"/>
			<point x="44.256" y="-149.424"/>
			<point x="-30.528" y="-149.424" type="curve" smooth="yes"/>
			<point x="-119.88" y="-149.424"/>
			<point x="-174.904" y="-219.296"/>
			<point x="-174.904" y="-304.44" type="curve" smooth="yes"/>
			<point x="-174.904" y="-398.552"/>
			<point x="-117.728" y="-465"/>
			<point x="7.144" y="-465" type="curve" smooth="yes"/>
			<point x="214.888" y="-465"/>
			<point x="424.128" y="-346.6"/>
			<point x="653.76" y="-42.144" type="curve" smooth="yes"/>
			<point x="883.392" y="262.312"/>
			<point x="1087.448" y="811.344"/>
			<point x="1087.448" y="993.24" type="curve" smooth="yes"/>
			<point x="1087.448" y="1022.664"/>
			<point x="1067.48" y="1038.24"/>
			<point x="1015.848" y="1038.24" type="curve" smooth="yes"/>
			<point x="975.584" y="1038.24"/>
			<point x="930.84" y="1033.848"/>
			<point x="889.24" y="1024" type="curve"/>
			<point x="889.24" y="566.08"/>
			<point x="770.528" y="180.168"/>
			<point x="567.968" y="-84.576" type="curve"/>
		</contour>
	</outline>
	<anchor name="top" x="669.944" y="1024"/>
	<anchor name="bottom" x="776.224" y="-123.616"/>
</glyph>
<glyph name="z" format="2">
	<unicode hex="007A"/>
	<advance width="892.08"/>
	<outline>
		<contour>
			<point x="-64.184" y="12.328" type="line"/>
			<point x="-30.4" y="-20" type="line"/>
			<point x="957.208" y="1014.488" type="line"/>
			<point x="923.424" y="1047.968" type="line"/>
		</contour>
		<contour>
			<point x="91.376" y="638.744" type="line"/>
			<point x="204.232" y="855.696"/>
			<point x="288.112" y="893.76"/>
			<point x="442.504" y="819.392" type="curve" smooth="yes"/>
			<point x="655.944" y="718.664" type="line"/>
			<point x="809.432" y="898.392" type="line"/>
			<point x="517.904" y="1024.088" type="line" smooth="yes"/>
			<point x="358.128" y="1092.632"/>
			<point x="211.496" y="1018.888"/>
			<point x="76.256" y="642.592" type="curve"/>
		</contour>
		<contour>
			<point x="337.912" y="20.76" type="line" smooth="yes"/>
			<point x="507.528" y="-83.176"/>
			<point x="679.328" y="-22.736"/>
			<point x="867.552" y="428.56" type="curve"/>
			<point x="852.432" y="431.44" type="line"/>
			<point x="720.448" y="185.608"/>
			<point x="609.688" y="115.848"/>
			<point x="438.608" y="236.248" type="curve" smooth="yes"/>
			<point x="277.144" y="346.368" type="line"/>
			<point x="111.536" y="166.728" type="line"/>
		</contour>
	</outline>
	<anchor name="top" x="549.56" y="1024"/>
	<anchor name="bottom" x="289.8" y="0"/>
</glyph>
<glyph name="braceleft" format="2">
	<unicode hex="007B"/>
	<advance width="572.936"/>
	<outline>
		<contour>
			<point x="68.608" y="608.056" type="line"/>
			<point x="138.76" y="600.512" type="line" smooth="yes"/>
			<point x="205.912" y="592.392"/>
			<point x="231.216" y="565.784"/>
			<point x="231.216" y="523.024" type="curve" smooth="yes"/>
			<point x="231.216" y="369.984"/>
			<point x="13.456" y="159.656"/>
			<point x="13.456" y="-20.648" type="curve" smooth="yes"/>
			<point x="13.456" y="-129.256"/>
			<point x="73" y="-206.832"/>
			<point x="209.208" y="-225.92" type="curve" smooth="yes"/>
			<point x="294.96" y="-238.16" type="line"/>
			<point x="306.84" y="-207.616" type="line"/>
			<point x="255.384" y="-194.376" type="line" smooth="yes"/>
			<point x="193.136" y="-179.408"/>
			<point x="167.8" y="-144.92"/>
			<point x="167.8" y="-80.64" type="curve" smooth="yes"/>
			<point x="167.8" y="85.208"/>
			<point x="349.928" y="310.472"/>
			<point x="349.928" y="467.032" type="curve" smooth="yes"/>
			<point x="349.928" y="547.24"/>
			<point x="296.6" y="607.6"/>
			<point x="193.24" y="624.6" type="curve"/>
			<point x="188.512" y="612.6" type="line"/>
			<point x="335.088" y="636.144"/>
			<point x="431.816" y="712.88"/>
			<point x="470.448" y="852.064" type="curve" smooth="yes"/>
			<point x="509.08" y="991.824"/>
			<point x="517.992" y="1133.576"/>
			<point x="550.416" y="1247.912" type="curve" smooth="yes"/>
			<point x="582.84" y="1362.248"/>
			<point x="649.416" y="1432.304"/>
			<point x="760.84" y="1448.576" type="curve" smooth="yes"/>
			<point x="819.144" y="1457" type="line"/>
			<point x="819.176" y="1488.24" type="line"/>
			<point x="730.968" y="1480.816" type="line" smooth="yes"/>
			<point x="533.496" y="1464.12"/>
			<point x="408.952" y="1362.448"/>
			<point x="366.224" y="1225.568" type="curve" smooth="yes"/>
			<point x="323.496" y="1088.688"/>
			<point x="341.552" y="931.824"/>
			<point x="316.736" y="807.728" type="curve" smooth="yes"/>
			<point x="291.92" y="683.632"/>
			<point x="245.248" y="658.992"/>
			<point x="140.736" y="648.024" type="curve" smooth="yes"/>
			<point x="79.456" y="642.6" type="line"/>
		</contour>
	</outline>
</glyph>
<glyph name="bar" format="2">
  <advance width="439"/>
  <unicode hex="007C"/>
  <outline>
    <contour>
      <point x="-114.776" y="-465.0" type="line"/>
      <point x="-31.2" y="-465.0" type="line"/>
      <point x="566.976" y="1535.0" type="line"/>
      <point x="482.976" y="1535.0" type="line"/>
    </contour>
  </outline>
</glyph>
<glyph name="braceright" format="2">
	<unicode hex="007D"/>
	<advance width="572.208"/>
	<outline>
		<contour>
			<point x="572.688" y="642.024" type="line"/>
			<point x="502.536" y="649.568" type="line" smooth="yes"/>
			<point x="435.384" y="657.688"/>
			<point x="410.08" y="684.296"/>
			<point x="410.08" y="727.056" type="curve" smooth="yes"/>
			<point x="410.08" y="880.096"/>
			<point x="627.84" y="1090.424"/>
			<point x="627.84" y="1270.728" type="curve" smooth="yes"/>
			<point x="627.84" y="1379.336"/>
			<point x="568.296" y="1456.912"/>
			<point x="432.088" y="1476" type="curve" smooth="yes"/>
			<point x="346.336" y="1488.24" type="line"/>
			<point x="334.456" y="1457.696" type="line"/>
			<point x="385.912" y="1444.456" type="line" smooth="yes"/>
			<point x="448.16" y="1429.488"/>
			<point x="473.496" y="1395"/>
			<point x="473.496" y="1330.72" type="curve" smooth="yes"/>
			<point x="473.496" y="1164.872"/>
			<point x="291.368" y="939.608"/>
			<point x="291.368" y="783.048" type="curve" smooth="yes"/>
			<point x="291.368" y="702.84"/>
			<point x="344.696" y="642.48"/>
			<point x="448.056" y="625.48" type="curve"/>
			<point x="452.784" y="637.48" type="line"/>
			<point x="306.208" y="613.936"/>
			<point x="209.48" y="537.2"/>
			<point x="170.848" y="398.016" type="curve" smooth="yes"/>
			<point x="132.216" y="258.256"/>
			<point x="123.304" y="116.504"/>
			<point x="90.88" y="2.168" type="curve" smooth="yes"/>
			<point x="58.456" y="-112.168"/>
			<point x="-8.12" y="-182.224"/>
			<point x="-119.544" y="-198.496" type="curve" smooth="yes"/>
			<point x="-177.848" y="-206.92" type="line"/>
			<point x="-177.88" y="-238.16" type="line"/>
			<point x="-89.672" y="-230.736" type="line" smooth="yes"/>
			<point x="107.8" y="-214.04"/>
			<point x="232.344" y="-112.368"/>
			<point x="275.072" y="24.512" type="curve" smooth="yes"/>
			<point x="317.8" y="161.392"/>
			<point x="299.744" y="318.256"/>
			<point x="324.56" y="442.352" type="curve" smooth="yes"/>
			<point x="349.376" y="566.448"/>
			<point x="396.048" y="591.088"/>
			<point x="500.56" y="602.056" type="curve" smooth="yes"/>
			<point x="561.84" y="607.48" type="line"/>
		</contour>
	</outline>
</glyph>
<glyph name="asciitilde" format="2">
	<unicode hex="007E"/>
	<advance width="1150"/>
	<outline>
		<contour>
			<point x="506.904" y="494.368" type="curve"/>
			<point x="503.248" y="494.368" type="line"/>
			<point x="515.208" y="517.088"/>
			<point x="528.536" y="531.96"/>
			<point x="555.52" y="531.96" type="curve" smooth="yes"/>
			<point x="581.376" y="531.96"/>
			<point x="570.24" y="493.152"/>
			<point x="591.808" y="493.152" type="curve" smooth="yes"/>
			<point x="611.528" y="493.152"/>
			<point x="630.672" y="501.056"/>
			<point x="643.096" y="529.632" type="curve"/>
			<point x="646.752" y="529.632" type="line"/>
			<point x="634.792" y="506.912"/>
			<point x="621.464" y="492.04"/>
			<point x="594.48" y="492.04" type="curve" smooth="yes"/>
			<point x="568.624" y="492.04"/>
			<point x="579.76" y="530.848"/>
			<point x="558.192" y="530.848" type="curve" smooth="yes"/>
			<point x="538.472" y="530.848"/>
			<point x="519.328" y="522.944"/>
		</contour>
	</outline>
</glyph>
<glyph name="currency" format="2">
	<unicode hex="00A4"/>
	<advance width="911.736"/>
	<outline>
		<contour>
			<point x="202.008" y="818.184" type="line"/>
			<point x="281.616" y="696.696" type="line"/>
			<point x="348.912" y="745.328" type="line"/>
			<point x="266.304" y="865.24" type="line"/>
		</contour>
		<contour>
			<point x="830.552" y="843.968" type="line"/>
			<point x="673.76" y="724.056" type="line"/>
			<point x="714.696" y="664.576" type="line"/>
			<point x="872.488" y="782.488" type="line"/>
		</contour>
		<contour>
			<point x="708.728" y="205.816" type="line"/>
			<point x="629.12" y="327.304" type="line"/>
			<point x="561.824" y="278.672" type="line"/>
			<point x="644.432" y="158.76" type="line"/>
		</contour>
		<contour>
			<point x="38.248" y="241.512" type="line"/>
			<point x="80.184" y="180.032" type="line"/>
			<point x="236.976" y="299.944" type="line"/>
			<point x="196.04" y="359.424" type="line"/>
		</contour>
		<contour>
			<point x="521.608" y="812.664" type="curve" smooth="yes"/>
			<point x="316.008" y="812.664"/>
			<point x="143.704" y="654.672"/>
			<point x="143.704" y="446.456" type="curve" smooth="yes"/>
			<point x="143.704" y="309.184"/>
			<point x="232.944" y="211.336"/>
			<point x="389.704" y="211.336" type="curve" smooth="yes"/>
			<point x="595.304" y="211.336"/>
			<point x="767.608" y="369.328"/>
			<point x="767.608" y="577.544" type="curve" smooth="yes"/>
			<point x="767.608" y="714.816"/>
			<point x="678.368" y="812.664"/>
		</contour>
		<contour>
			<point x="399.76" y="285.208" type="curve" smooth="yes"/>
			<point x="289.424" y="285.208"/>
			<point x="226.152" y="356.664"/>
			<point x="226.152" y="462" type="curve" smooth="yes"/>
			<point x="226.152" y="621.28"/>
			<point x="344.488" y="738.792"/>
			<point x="511.552" y="738.792" type="curve" smooth="yes"/>
			<point x="621.888" y="738.792"/>
			<point x="685.16" y="667.336"/>
			<point x="685.16" y="562" type="curve" smooth="yes"/>
			<point x="685.16" y="402.72"/>
			<point x="566.824" y="285.208"/>
		</contour>
	</outline>
</glyph>
<glyph name="brokenbar" format="2">
	<unicode hex="00A6"/>
	<advance width="438.776"/>
	<outline>
		<contour>
			<point x="321.856" y="725" type="line"/>
			<point x="569.28" y="1535" type="line"/>
			<point x="494.496" y="1535" type="line"/>
			<point x="246.92" y="725" type="line"/>
		</contour>
		<contour>
			<point x="-117.08" y="-465" type="line"/>
			<point x="-42.144" y="-465" type="line"/>
			<point x="205.28" y="345" type="line"/>
			<point x="130.496" y="345" type="line"/>
		</contour>
	</outline>
</glyph>
<glyph name="section" format="2">
	<unicode hex="00A7"/>
	<advance width="1133.224"/>
	<outline>
		<contour>
			<point x="494.448" y="873.432" type="curve"/>
			<point x="477.176" y="895.128" type="line"/>
			<point x="215.888" y="827.344"/>
			<point x="104.912" y="719.344"/>
			<point x="104.912" y="550.248" type="curve" smooth="yes"/>
			<point x="104.912" y="208.44"/>
			<point x="619.936" y="262.536"/>
			<point x="619.936" y="14.16" type="curve" smooth="yes"/>
			<point x="619.936" y="-75.392"/>
			<point x="542.232" y="-158.16"/>
			<point x="392.216" y="-158.16" type="curve" smooth="yes"/>
			<point x="197.664" y="-158.16"/>
			<point x="165.44" y="53.68"/>
			<point x="110.28" y="53.68" type="curve" smooth="yes"/>
			<point x="37.8" y="53.68"/>
			<point x="-8.68" y="5.32"/>
			<point x="-8.68" y="-57.976" type="curve" smooth="yes"/>
			<point x="-8.68" y="-140.848"/>
			<point x="73.552" y="-218"/>
			<point x="309.944" y="-218" type="curve" smooth="yes"/>
			<point x="659.8" y="-218"/>
			<point x="838.952" y="-41.432"/>
			<point x="838.952" y="158.136" type="curve" smooth="yes"/>
			<point x="838.952" y="501.464"/>
			<point x="306.144" y="453.096"/>
			<point x="306.144" y="683.56" type="curve" smooth="yes"/>
			<point x="306.144" y="776.152"/>
			<point x="381.16" y="841.04"/>
		</contour>
		<contour>
			<point x="891.352" y="552.68" type="curve" smooth="yes"/>
			<point x="891.352" y="460.088"/>
			<point x="816.336" y="395.2"/>
			<point x="703.048" y="362.808" type="curve"/>
			<point x="720.32" y="341.112" type="line"/>
			<point x="981.608" y="408.896"/>
			<point x="1092.584" y="516.896"/>
			<point x="1092.584" y="685.992" type="curve" smooth="yes"/>
			<point x="1092.584" y="1027.8"/>
			<point x="577.56" y="973.704"/>
			<point x="577.56" y="1222.08" type="curve" smooth="yes"/>
			<point x="577.56" y="1311.632"/>
			<point x="655.264" y="1394.4"/>
			<point x="805.28" y="1394.4" type="curve" smooth="yes"/>
			<point x="999.832" y="1394.4"/>
			<point x="1032.056" y="1182.56"/>
			<point x="1087.216" y="1182.56" type="curve" smooth="yes"/>
			<point x="1159.696" y="1182.56"/>
			<point x="1206.176" y="1230.92"/>
			<point x="1206.176" y="1294.216" type="curve" smooth="yes"/>
			<point x="1206.176" y="1377.088"/>
			<point x="1123.944" y="1454.24"/>
			<point x="887.552" y="1454.24" type="curve" smooth="yes"/>
			<point x="537.696" y="1454.24"/>
			<point x="358.544" y="1277.672"/>
			<point x="358.544" y="1078.104" type="curve" smooth="yes"/>
			<point x="358.544" y="734.776"/>
			<point x="891.352" y="783.144"/>
		</contour>
	</outline>
</glyph>
<glyph name="ordfeminine" format="2">
  <advance width="906"/>
  <unicode hex="00AA"/>
  <outline>
    <contour>
      <point x="160.52" y="565.76" type="line"/>
      <point x="784.368" y="565.76" type="line"/>
      <point x="804.9119999999999" y="633.24" type="line"/>
      <point x="181.64" y="633.24" type="line"/>
    </contour>
    <contour>
      <point x="621.208" y="854.296" type="line" smooth="yes"/>
      <point x="607.816" y="813.3919999999999"/>
      <point x="629.904" y="786.336"/>
      <point x="687.896" y="786.336" type="curve" smooth="yes"/>
      <point x="767.4" y="786.336"/>
      <point x="861.5120000000001" y="842.5120000000001"/>
      <point x="969.12" y="1003.84" type="curve"/>
      <point x="960.424" y="1011.688" type="line"/>
      <point x="864.664" y="909.384"/>
      <point x="797.8720000000001" y="887.024"/>
      <point x="734.9200000000001" y="892.8159999999999" type="curve"/>
      <point x="797.3599999999999" y="854.456" type="line"/>
      <point x="994.448" y="1430.0" type="line"/>
      <point x="812.3919999999999" y="1430.0" type="line"/>
      <point x="788.6959999999999" y="1363.824" type="line"/>
      <point x="690.088" y="1091.296" type="line" smooth="yes"/>
      <point x="598.536" y="956.712"/>
      <point x="547.4639999999999" y="916.312"/>
      <point x="506.28000000000003" y="916.312" type="curve" smooth="yes"/>
      <point x="477.248" y="916.312"/>
      <point x="461.608" y="932.768"/>
      <point x="461.608" y="974.4399999999999" type="curve" smooth="yes"/>
      <point x="461.608" y="1117.6560000000002"/>
      <point x="610.376" y="1377.192"/>
      <point x="736.992" y="1377.192" type="curve" smooth="yes"/>
      <point x="769.808" y="1377.192"/>
      <point x="796.5039999999999" y="1361.528"/>
      <point x="820.4720000000001" y="1313.84" type="curve"/>
      <point x="824.776" y="1333.288" type="line"/>
      <point x="783.904" y="1411.912"/>
      <point x="732.0" y="1446.8480000000002"/>
      <point x="674.672" y="1446.8480000000002" type="curve" smooth="yes"/>
      <point x="458.64" y="1446.8480000000002"/>
      <point x="248.55200000000002" y="1129.08"/>
      <point x="248.55200000000002" y="914.784" type="curve" smooth="yes"/>
      <point x="248.55200000000002" y="836.088"/>
      <point x="300.368" y="786.336"/>
      <point x="396.336" y="786.336" type="curve" smooth="yes"/>
      <point x="472.568" y="786.336"/>
      <point x="548.6320000000001" y="827.488"/>
      <point x="709.328" y="1088.296" type="curve"/>
      <point x="698.328" y="1089.9920000000002" type="line"/>
    </contour>
  </outline>
</glyph>
<glyph name="guillemotleft" format="2">
	<unicode hex="00AB"/>
	<advance width="891.08"/>
	<outline>
		<contour>
			<point x="254.192" y="587.392" type="line"/>
			<point x="210.808" y="407.712" type="line"/>
			<point x="600.904" y="949.024" type="line"/>
			<point x="586.632" y="963.296" type="line"/>
			<point x="55.128" y="530.272" type="line"/>
			<point x="49.704" y="513.728" type="line"/>
			<point x="316.424" y="80.704" type="line"/>
			<point x="336.544" y="87.856" type="line"/>
		</contour>
		<contour>
			<point x="605.392" y="587.392" type="line"/>
			<point x="562.008" y="407.712" type="line"/>
			<point x="952.104" y="949.024" type="line"/>
			<point x="937.832" y="963.296" type="line"/>
			<point x="406.328" y="530.272" type="line"/>
			<point x="400.904" y="513.728" type="line"/>
			<point x="667.624" y="80.704" type="line"/>
			<point x="687.744" y="87.856" type="line"/>
		</contour>
	</outline>
</glyph>
<glyph name="logicalnot" format="2">
	<unicode hex="00AC"/>
	<advance width="1150"/>
	<outline>
		<contour>
			<point x="227.728" y="747.936" type="line"/>
			<point x="203.488" y="668.216" type="line"/>
			<point x="945.768" y="668.216" type="line"/>
			<point x="822.888" y="268" type="line"/>
			<point x="902.608" y="268" type="line"/>
			<point x="1049.728" y="747.936" type="line"/>
		</contour>
	</outline>
</glyph>
<glyph name="registered" format="2">
	<unicode hex="00AE"/>
	<advance width="1088.216"/>
	<outline>
		<contour>
			<point x="887.6" y="846.904" type="line"/>
			<point x="861.144" y="846.904"/>
			<point x="851.72" y="852.752"/>
			<point x="851.416" y="889.48" type="curve" smooth="yes"/>
			<point x="850.384" y="958.544" type="line" smooth="yes"/>
			<point x="850.504" y="1014.088"/>
			<point x="828.2" y="1041.816"/>
			<point x="769.84" y="1044.664" type="curve"/>
			<point x="772.384" y="1043.664" type="line"/>
			<point x="872.08" y="1046.968"/>
			<point x="930.776" y="1099.152"/>
			<point x="930.776" y="1166" type="curve" smooth="yes"/>
			<point x="930.776" y="1212"/>
			<point x="900.896" y="1248.24"/>
			<point x="805.08" y="1248.24" type="curve" smooth="yes"/>
			<point x="685.448" y="1248.24" type="line"/>
			<point x="674.752" y="1214" type="line"/>
			<point x="761.84" y="1214" type="line" smooth="yes"/>
			<point x="803.512" y="1214"/>
			<point x="823.696" y="1200.968"/>
			<point x="823.696" y="1167.632" type="curve" smooth="yes"/>
			<point x="823.696" y="1107.296"/>
			<point x="784.784" y="1057.512"/>
			<point x="716.448" y="1057.512" type="curve" smooth="yes"/>
			<point x="627.448" y="1057.512" type="line"/>
			<point x="616.6" y="1023.696" type="line"/>
			<point x="703.576" y="1023.696" type="line" smooth="yes"/>
			<point x="740.12" y="1023.696"/>
			<point x="748.728" y="1012"/>
			<point x="748.88" y="978.512" type="curve" smooth="yes"/>
			<point x="748.76" y="902.448" type="line" smooth="yes"/>
			<point x="748.216" y="823.24"/>
			<point x="758.912" y="810.272"/>
			<point x="879.904" y="821.664" type="curve"/>
		</contour>
		<contour>
			<point x="729.808" y="1248.24" type="line"/>
			<point x="561.304" y="1248.24" type="line"/>
			<point x="556.032" y="1230.272" type="line"/>
			<point x="608.64" y="1215.848" type="line"/>
			<point x="498.76" y="856.056" type="line"/>
			<point x="436.728" y="840.208" type="line"/>
			<point x="430.88" y="822.24" type="line"/>
			<point x="656.568" y="822.24" type="line"/>
			<point x="662.416" y="840.208" type="line"/>
			<point x="609.656" y="856.056" type="line"/>
		</contour>
		<contour>
			<point x="634.936" y="650.208" type="curve" smooth="yes"/>
			<point x="427.328" y="650.208"/>
			<point x="318.12" y="768.088"/>
			<point x="318.12" y="957.416" type="curve" smooth="yes"/>
			<point x="318.12" y="1216.296"/>
			<point x="509.976" y="1404.272"/>
			<point x="758.824" y="1404.272" type="curve" smooth="yes"/>
			<point x="966.432" y="1404.272"/>
			<point x="1075.64" y="1286.392"/>
			<point x="1075.64" y="1097.064" type="curve" smooth="yes"/>
			<point x="1075.64" y="838.184"/>
			<point x="883.784" y="650.208"/>
		</contour>
		<contour>
			<point x="761.4" y="1454.24" type="curve" smooth="yes"/>
			<point x="479.944" y="1454.24"/>
			<point x="260.88" y="1241.688"/>
			<point x="260.88" y="954.112" type="curve" smooth="yes"/>
			<point x="260.88" y="744.328"/>
			<point x="386.424" y="600.24"/>
			<point x="632.36" y="600.24" type="curve" smooth="yes"/>
			<point x="913.816" y="600.24"/>
			<point x="1132.88" y="812.792"/>
			<point x="1132.88" y="1100.368" type="curve" smooth="yes"/>
			<point x="1132.88" y="1310.152"/>
			<point x="1007.336" y="1454.24"/>
		</contour>
	</outline>
</glyph>
<glyph name="degree" format="2">
	<unicode hex="00B0"/>
	<advance width="746.912"/>
	<outline>
		<contour>
			<point x="604.936" y="1446.544" type="curve" smooth="yes"/>
			<point x="392.944" y="1446.544"/>
			<point x="252.248" y="1283.968"/>
			<point x="252.248" y="1094.88" type="curve" smooth="yes"/>
			<point x="252.248" y="952.304"/>
			<point x="351.488" y="853.456"/>
			<point x="518.824" y="853.456" type="curve" smooth="yes"/>
			<point x="730.816" y="853.456"/>
			<point x="871.512" y="1016.032"/>
			<point x="871.512" y="1205.12" type="curve" smooth="yes"/>
			<point x="871.512" y="1347.696"/>
			<point x="772.272" y="1446.544"/>
		</contour>
		<contour>
			<point x="528.76" y="924.328" type="curve" smooth="yes"/>
			<point x="397.936" y="924.328"/>
			<point x="332.088" y="1000.512"/>
			<point x="332.088" y="1102.696" type="curve" smooth="yes"/>
			<point x="332.088" y="1252.912"/>
			<point x="429.12" y="1375.672"/>
			<point x="595" y="1375.672" type="curve" smooth="yes"/>
			<point x="725.824" y="1375.672"/>
			<point x="791.672" y="1299.488"/>
			<point x="791.672" y="1197.304" type="curve" smooth="yes"/>
			<point x="791.672" y="1047.088"/>
			<point x="694.64" y="924.328"/>
		</contour>
	</outline>
</glyph>
<glyph name="plusminus" format="2">
  <advance width="1150.0"/>
  <unicode hex="00B1"/>
  <outline>
    <contour>
      <point x="690.64" y="1023.424" type="line"/>
      <point x="438.64000000000004" y="201.42399999999998" type="line"/>
      <point x="518.512" y="201.42399999999998" type="line"/>
      <point x="770.5120000000001" y="1023.424" type="line"/>
    </contour>
    <contour>
      <point x="205.696" y="651.784" type="line"/>
      <point x="181.45600000000002" y="573.064" type="line"/>
      <point x="1003.456" y="573.064" type="line"/>
      <point x="1027.696" y="651.784" type="line"/>
    </contour>
    <contour>
      <point x="31.240000000000002" y="78.72" type="line"/>
      <point x="7.0" y="0.0" type="line"/>
      <point x="829.0" y="0.0" type="line"/>
      <point x="853.24" y="78.72" type="line"/>
    </contour>
  </outline>
</glyph>
<glyph name="uni00B2" format="2">
	<unicode hex="00B2"/>
	<advance width="716.168"/>
	<outline>
		<contour>
			<point x="529.456" y="741.928" type="line"/>
			<point x="720.576" y="835.216" type="line"/>
			<point x="339.792" y="835.216" type="line"/>
			<point x="329.792" y="812.64" type="line"/>
			<point x="474.336" y="914.76" type="line" smooth="yes"/>
			<point x="750.992" y="1086.656"/>
			<point x="795.952" y="1164.496"/>
			<point x="795.952" y="1266.488" type="curve" smooth="yes"/>
			<point x="795.952" y="1374.24"/>
			<point x="717.928" y="1446.544"/>
			<point x="585.84" y="1446.544" type="curve" smooth="yes"/>
			<point x="411.88" y="1446.544"/>
			<point x="295.792" y="1336.064"/>
			<point x="233.312" y="1148.04" type="curve"/>
			<point x="262.432" y="1140.072" type="line"/>
			<point x="309.248" y="1263.624"/>
			<point x="379.344" y="1303.536"/>
			<point x="466.832" y="1303.536" type="curve" smooth="yes"/>
			<point x="541.624" y="1303.536"/>
			<point x="587.928" y="1262.928"/>
			<point x="587.928" y="1193.136" type="curve" smooth="yes"/>
			<point x="587.928" y="1111.6233909214"/>
			<point x="525.8357020245" y="1012.6738041631"/>
			<point x="329.296" y="845.504" type="curve" smooth="yes"/>
			<point x="131.944" y="675.696" type="line"/>
			<point x="127.944" y="662" type="line"/>
			<point x="579.568" y="662" type="line"/>
			<point x="628.2" y="628.184" type="line"/>
			<point x="641.592" y="628.184" type="line"/>
			<point x="811.976" y="950.616" type="line"/>
			<point x="797.856" y="950.616" type="line"/>
		</contour>
	</outline>
</glyph>
<glyph name="uni00B3" format="2">
	<unicode hex="00B3"/>
	<advance width="657.592"/>
	<outline>
		<contour>
			<point x="361.424" y="1025.52" type="line"/>
			<point x="394.184" y="1031.824" type="line" smooth="yes"/>
			<point x="494.816" y="1050"/>
			<point x="540.736" y="1020.488"/>
			<point x="540.736" y="951.936" type="curve" smooth="yes"/>
			<point x="540.736" y="848.8"/>
			<point x="462.544" y="694.664"/>
			<point x="336.664" y="694.664" type="curve" smooth="yes"/>
			<point x="250.392" y="694.664"/>
			<point x="211.752" y="813.352"/>
			<point x="189.904" y="813.352" type="curve" smooth="yes"/>
			<point x="142.064" y="813.352"/>
			<point x="114.368" y="781.688"/>
			<point x="114.368" y="739.752" type="curve" smooth="yes"/>
			<point x="114.368" y="692.24"/>
			<point x="154.76" y="645.456"/>
			<point x="307.632" y="645.456" type="curve" smooth="yes"/>
			<point x="573.528" y="645.456"/>
			<point x="729.92" y="784.456"/>
			<point x="729.92" y="949.576" type="curve" smooth="yes"/>
			<point x="729.92" y="1034.152"/>
			<point x="676.344" y="1103.424"/>
			<point x="544.536" y="1101.728" type="curve"/>
			<point x="533.352" y="1093.696" type="line"/>
			<point x="698.3970457038" y="1122.705411172"/>
			<point x="752.344" y="1212.576"/>
			<point x="752.344" y="1300.032" type="curve" smooth="yes"/>
			<point x="752.344" y="1377.728"/>
			<point x="701.984" y="1446.12"/>
			<point x="590.08" y="1446.12" type="curve" smooth="yes"/>
			<point x="434.9952890343" y="1446.12"/>
			<point x="337.3300354302" y="1352.9933115247"/>
			<point x="282.672" y="1210.128" type="curve"/>
			<point x="309.064" y="1199.584" type="line"/>
			<point x="344.912" y="1278.648"/>
			<point x="405.52" y="1317.984"/>
			<point x="479.28" y="1317.984" type="curve" smooth="yes"/>
			<point x="537.008" y="1317.984"/>
			<point x="573.432" y="1285.952"/>
			<point x="573.432" y="1234.224" type="curve" smooth="yes"/>
			<point x="573.432" y="1164.5902842339"/>
			<point x="531.2288117466" y="1105.9686636749"/>
			<point x="358.88" y="1062.608" type="curve"/>
		</contour>
	</outline>
</glyph>
<glyph name="uni00B5" format="2">
  <advance width="1202"/>
  <unicode hex="00B5"/>
  <outline>
    <contour>
      <point x="687.048" y="443.904" type="line"/>
      <point x="631.9359999999999" y="303.312"/>
      <point x="527.76" y="168.488"/>
      <point x="437.896" y="168.488" type="curve" smooth="yes"/>
      <point x="387.92" y="168.488"/>
      <point x="361.976" y="184.64"/>
      <point x="359.672" y="229.67200000000003" type="curve" smooth="yes"/>
      <point x="359.096" y="253.52"/>
      <point x="364.248" y="287.216"/>
      <point x="383.18399999999997" y="344.176" type="curve" smooth="yes"/>
      <point x="604.224" y="1024.0" type="line"/>
      <point x="340.312" y="1024.0" type="line"/>
      <point x="-118.296" y="-457.696" type="line"/>
      <point x="-108.29599999999999" y="-457.696" type="line"/>
      <point x="132.976" y="-437.032" type="line"/>
      <point x="128.728" y="160.256" type="line"/>
      <point x="103.92" y="147.536" type="line"/>
      <point x="107.952" y="39.024"/>
      <point x="147.49599999999998" y="-24.240000000000002"/>
      <point x="277.176" y="-24.240000000000002" type="curve" smooth="yes"/>
      <point x="418.592" y="-24.240000000000002"/>
      <point x="525.936" y="84.416"/>
      <point x="700.064" y="417.0" type="curve"/>
      <point x="691.9119999999999" y="427.176" type="line"/>
      <point x="593.2479999999999" y="91.408" type="line" smooth="yes"/>
      <point x="571.736" y="16.512"/>
      <point x="604.52" y="-24.240000000000002"/>
      <point x="674.76" y="-24.240000000000002" type="curve" smooth="yes"/>
      <point x="799.168" y="-24.240000000000002"/>
      <point x="951.216" y="73.48"/>
      <point x="1115.4879999999998" y="341.232" type="curve"/>
      <point x="1106.064" y="348.656" type="line"/>
      <point x="942.344" y="157.512"/>
      <point x="827.952" y="126.288"/>
      <point x="754.176" y="134.96" type="curve"/>
      <point x="822.208" y="86.576" type="line"/>
      <point x="1138.7839999999999" y="1024.0" type="line"/>
      <point x="879.9599999999999" y="1024.0" type="line"/>
    </contour>
  </outline>
</glyph>
<glyph name="paragraph" format="2">
	<unicode hex="00B6"/>
	<advance width="1190.376"/>
	<outline>
		<contour>
			<point x="488.168" y="-218" type="line"/>
			<point x="971.624" y="1363.096" type="line"/>
			<point x="1148.592" y="1363.096" type="line"/>
			<point x="1169.136" y="1430" type="line"/>
			<point x="919.416" y="1430" type="line"/>
			<point x="415.416" y="-218" type="line"/>
		</contour>
		<contour>
			<point x="716.768" y="-218" type="line"/>
			<point x="1200.8" y="1364.672" type="line"/>
			<point x="1393.16" y="1402.064" type="line"/>
			<point x="1401.856" y="1430" type="line"/>
			<point x="1148.592" y="1430" type="line"/>
			<point x="644.592" y="-218" type="line"/>
		</contour>
		<contour>
			<point x="973.352" y="1430" type="line"/>
			<point x="722.848" y="1430" type="line" smooth="yes"/>
			<point x="358.2132987656" y="1430"/>
			<point x="208.576" y="1164.272"/>
			<point x="208.576" y="958" type="curve" smooth="yes"/>
			<point x="208.576" y="810.608"/>
			<point x="295.272" y="708.312"/>
			<point x="515.6" y="708.312" type="curve" smooth="yes"/>
			<point x="752.688" y="708.312" type="line"/>
		</contour>
	</outline>
</glyph>
<glyph name="uni00B9" format="2">
	<unicode hex="00B9"/>
	<advance width="536.056"/>
	<outline>
		<contour>
			<point x="263.528" y="715.512" type="line"/>
			<point x="123.008" y="682.392" type="line"/>
			<point x="116.736" y="662" type="line"/>
			<point x="550.264" y="662" type="line"/>
			<point x="556.536" y="682.392" type="line"/>
			<point x="449.864" y="715.512" type="line"/>
			<point x="673.016" y="1446.544" type="line"/>
			<point x="645.352" y="1446.544" type="line"/>
			<point x="248.4" y="1267.944" type="line"/>
			<point x="256.096" y="1241.008" type="line"/>
			<point x="563.024" y="1305.464" type="line"/>
			<point x="453.288" y="1337.368" type="line"/>
		</contour>
	</outline>
</glyph>
<glyph name="ordmasculine" format="2">
	<unicode hex="00BA"/>
	<advance width="871.336"/>
	<outline>
		<contour>
			<point x="140.032" y="565.76" type="line"/>
			<point x="763.88" y="565.76" type="line"/>
			<point x="784.424" y="633.24" type="line"/>
			<point x="161.152" y="633.24" type="line"/>
		</contour>
		<contour>
			<point x="723.232" y="1454.24" type="curve" smooth="yes"/>
			<point x="505.008" y="1454.24"/>
			<point x="292.04" y="1250.448"/>
			<point x="292.04" y="1005.744" type="curve" smooth="yes"/>
			<point x="292.04" y="866.296"/>
			<point x="371.456" y="785.76"/>
			<point x="522.984" y="785.76" type="curve" smooth="yes"/>
			<point x="741.208" y="785.76"/>
			<point x="954.176" y="989.552"/>
			<point x="954.176" y="1234.256" type="curve" smooth="yes"/>
			<point x="954.176" y="1373.704"/>
			<point x="874.76" y="1454.24"/>
		</contour>
		<contour>
			<point x="523.168" y="827.936" type="curve" smooth="yes"/>
			<point x="491.952" y="827.936"/>
			<point x="478.344" y="852.032"/>
			<point x="477.92" y="913.672" type="curve" smooth="yes"/>
			<point x="476.648" y="1122.256"/>
			<point x="610.952" y="1412.064"/>
			<point x="723.048" y="1412.064" type="curve" smooth="yes"/>
			<point x="754.264" y="1412.064"/>
			<point x="767.872" y="1387.968"/>
			<point x="768.296" y="1326.328" type="curve" smooth="yes"/>
			<point x="769.568" y="1117.744"/>
			<point x="635.264" y="827.936"/>
		</contour>
	</outline>
</glyph>
<glyph name="guillemotright" format="2">
  <advance width="957.048"/>
  <unicode hex="00BB"/>
  <outline>
    <contour>
      <point x="313.08000000000004" y="457.032" type="line"/>
      <point x="356.464" y="636.712" type="line"/>
      <point x="-33.632" y="95.39999999999999" type="line"/>
      <point x="-19.36" y="81.128" type="line"/>
      <point x="512.144" y="514.1519999999999" type="line"/>
      <point x="517.568" y="530.696" type="line"/>
      <point x="250.848" y="963.72" type="line"/>
      <point x="230.728" y="956.568" type="line"/>
    </contour>
    <contour>
      <point x="671.192" y="457.032" type="line"/>
      <point x="714.5759999999999" y="636.712" type="line"/>
      <point x="324.48" y="95.39999999999999" type="line"/>
      <point x="338.752" y="81.128" type="line"/>
      <point x="870.2560000000001" y="514.1519999999999" type="line"/>
      <point x="875.68" y="530.696" type="line"/>
      <point x="608.96" y="963.72" type="line"/>
      <point x="588.84" y="956.568" type="line"/>
    </contour>
  </outline>
</glyph>
<glyph name="questiondown" format="2">
  <advance width="1009.968"/>
  <unicode hex="00BF"/>
  <outline>
    <contour>
      <point x="661.2959999999999" y="706.336" type="curve" smooth="yes"/>
      <point x="776.1919999999999" y="706.336"/>
      <point x="863.728" y="795.2959999999999"/>
      <point x="863.728" y="910.192" type="curve" smooth="yes"/>
      <point x="863.728" y="990.064"/>
      <point x="809.096" y="1044.544"/>
      <point x="723.952" y="1044.544" type="curve" smooth="yes"/>
      <point x="609.056" y="1044.544"/>
      <point x="521.52" y="955.5840000000001"/>
      <point x="521.52" y="841.264" type="curve" smooth="yes"/>
      <point x="521.52" y="760.816"/>
      <point x="576.152" y="706.336"/>
    </contour>
    <contour>
      <point x="430.55199999999996" y="-430.816" type="curve" smooth="yes"/>
      <point x="635.048" y="-430.816"/>
      <point x="722.5360000000001" y="-361.976"/>
      <point x="722.5360000000001" y="-276.832" type="curve" smooth="yes"/>
      <point x="722.5360000000001" y="-221.416"/>
      <point x="686.48" y="-180.27200000000002"/>
      <point x="635.52" y="-180.27200000000002" type="curve" smooth="yes"/>
      <point x="609.4639999999999" y="-180.27200000000002"/>
      <point x="463.632" y="-334.94399999999996"/>
      <point x="289.48" y="-334.94399999999996" type="curve" smooth="yes"/>
      <point x="155.344" y="-334.94399999999996"/>
      <point x="74.096" y="-254.05599999999998"/>
      <point x="74.096" y="-119.4" type="curve" smooth="yes"/>
      <point x="74.096" y="72.92"/>
      <point x="199.048" y="161.832"/>
      <point x="544.8639999999999" y="120.21600000000001" type="curve"/>
      <point x="628.928" y="522.264" type="line"/>
      <point x="591.416" y="522.264" type="line"/>
      <point x="449.11199999999997" y="188.896" type="line"/>
      <point x="547.92" y="341.936" type="line"/>
      <point x="139.96800000000002" y="390.064"/>
      <point x="-30.832" y="249.15999999999997"/>
      <point x="-30.832" y="-17.48" type="curve" smooth="yes"/>
      <point x="-30.832" y="-227.872"/>
      <point x="132.232" y="-430.816"/>
    </contour>
  </outline>
</glyph>
<glyph name="AE" format="2">
	<unicode hex="00C6"/>
	<advance width="2106.4"/>
	<outline>
		<contour>
			<point x="63.24" y="72.752" type="line"/>
			<point x="1244.424" y="1371.344" type="line"/>
			<point x="1231.304" y="1378.344" type="line"/>
			<point x="830.664" y="68.904" type="line"/>
			<point x="659.872" y="22.968" type="line"/>
			<point x="653.448" y="0" type="line"/>
			<point x="1117.48" y="0" type="line"/>
			<point x="1553.752" y="1430" type="line"/>
			<point x="995.28" y="1430" type="line"/>
			<point x="988.856" y="1407.032" type="line"/>
			<point x="1158.824" y="1363.128" type="line"/>
			<point x="-18.176" y="75.752" type="line"/>
			<point x="-183.664" y="22.968" type="line"/>
			<point x="-191.36" y="0" type="line"/>
			<point x="210.272" y="0" type="line"/>
			<point x="217.968" y="22.968" type="line"/>
		</contour>
		<contour>
			<point x="1768.104" y="-65.448" type="line"/>
			<point x="1785.28" y="-65.448" type="line"/>
			<point x="2041.144" y="404.616" type="line"/>
			<point x="2012.664" y="423.432" type="line"/>
			<point x="1618.32" y="45.208" type="line"/>
			<point x="1802.288" y="65.328" type="line"/>
			<point x="962.288" y="65.328" type="line"/>
			<point x="937.08" y="0" type="line"/>
			<point x="1636.016" y="0" type="line"/>
		</contour>
		<contour>
			<point x="458.296" y="530.712" type="line"/>
			<point x="1072.128" y="530.712" type="line"/>
			<point x="1092.248" y="596.04" type="line"/>
			<point x="478.992" y="596.04" type="line"/>
		</contour>
		<contour>
			<point x="1648.864" y="455" type="line"/>
			<point x="1677.496" y="455" type="line"/>
			<point x="1734.496" y="746" type="line"/>
			<point x="1856.496" y="1039" type="line"/>
			<point x="1827.864" y="1039" type="line"/>
			<point x="1647.832" y="792.056" type="line"/>
			<point x="1233.864" y="760.24" type="line"/>
			<point x="1220.504" y="732.76" type="line"/>
			<point x="1626.896" y="704.944" type="line"/>
		</contour>
		<contour>
			<point x="2127.04" y="1011.072" type="line"/>
			<point x="2159.52" y="1011.072" type="line"/>
			<point x="2228.432" y="1497.992" type="line"/>
			<point x="2213.376" y="1497.992" type="line"/>
			<point x="2049.416" y="1430" type="line"/>
			<point x="1374.08" y="1430" type="line"/>
			<point x="1349.72" y="1364.672" type="line"/>
			<point x="2165.536" y="1364.672" type="line"/>
			<point x="2038.84" y="1389.336" type="line"/>
		</contour>
	</outline>
	<anchor name="UCtop" x="1390.608" y="1430"/>
	<anchor name="bottom" x="961.664" y="0"/>
</glyph>
<glyph name="Ccedilla" format="2">
	<unicode hex="00C7"/>
	<advance width="1402.656"/>
	<outline>
		<contour>
			<point x="1064.888" y="127.888" type="line"/>
			<point x="965.872" y="61.176"/>
			<point x="855.464" y="35.688"/>
			<point x="752.912" y="35.688" type="curve" smooth="yes"/>
			<point x="547.72" y="35.688"/>
			<point x="411.072" y="183.024"/>
			<point x="411.072" y="489.312" type="curve" smooth="yes"/>
			<point x="411.072" y="956.184"/>
			<point x="677.064" y="1392.976"/>
			<point x="1091.896" y="1392.976" type="curve" smooth="yes"/>
			<point x="1199.416" y="1392.976"/>
			<point x="1284.872" y="1363.704"/>
			<point x="1362.752" y="1254.592" type="curve"/>
			<point x="1310.544" y="1353.52" type="line"/>
			<point x="1415.928" y="966.864" type="line"/>
			<point x="1447.288" y="966.864" type="line"/>
			<point x="1493.832" y="1495.024" type="line"/>
			<point x="1479.984" y="1495.024" type="line"/>
			<point x="1313.456" y="1396.728" type="line"/>
			<point x="1452.248" y="1409.032" type="line"/>
			<point x="1343.072" y="1439.696"/>
			<point x="1237.928" y="1454.24"/>
			<point x="1120.48" y="1454.24" type="curve" smooth="yes"/>
			<point x="540.48" y="1454.24"/>
			<point x="123.464" y="1037.48"/>
			<point x="123.464" y="515.672" type="curve" smooth="yes"/>
			<point x="123.464" y="191.36"/>
			<point x="330.168" y="-24.24"/>
			<point x="739.824" y="-24.24" type="curve" smooth="yes"/>
			<point x="873.704" y="-24.24"/>
			<point x="993.56" y="-9.816"/>
			<point x="1137.776" y="26.368" type="curve"/>
			<point x="1319.376" y="384.744" type="line"/>
			<point x="1289.864" y="384.744" type="line"/>
			<point x="975.704" y="64.792" type="line"/>
		</contour>
		<contour>
			<point x="549.704" y="-418.368" type="curve" smooth="yes"/>
			<point x="475.28" y="-418.368"/>
			<point x="443.496" y="-332.736"/>
			<point x="428.496" y="-332.736" type="curve" smooth="yes"/>
			<point x="394.528" y="-332.736"/>
			<point x="371.136" y="-355.584"/>
			<point x="371.136" y="-392.672" type="curve" smooth="yes"/>
			<point x="371.136" y="-430.912"/>
			<point x="402.376" y="-465"/>
			<point x="496.312" y="-465" type="curve"/>
			<point x="657.968" y="-465"/>
			<point x="769.36" y="-362.672"/>
			<point x="769.36" y="-257.28" type="curve" smooth="yes"/>
			<point x="769.36" y="-191.28"/>
			<point x="730.544" y="-138.856"/>
			<point x="589.28" y="-91.464" type="curve"/>
			<point x="553.864" y="-174.448" type="line"/>
			<point x="740.456" y="29.416" type="line"/>
			<point x="687.16" y="29.416" type="line"/>
			<point x="474.416" y="-205.568" type="line"/>
			<point x="474.416" y="-209.992" type="line"/>
			<point x="618.832" y="-246.568"/>
			<point x="654.408" y="-288.176"/>
			<point x="654.408" y="-332.936" type="curve" smooth="yes"/>
			<point x="654.408" y="-384.032"/>
			<point x="611.888" y="-418.368"/>
		</contour>
	</outline>
</glyph>
<glyph name="multiply" format="2">
	<unicode hex="00D7"/>
	<advance width="1150"/>
	<outline>
		<contour>
			<point x="128.608" y="218.512" type="line"/>
			<point x="169.392" y="158.76" type="line"/>
			<point x="1021.392" y="805.488" type="line"/>
			<point x="980.608" y="865.24" type="line"/>
		</contour>
		<contour>
			<point x="323.76" y="819.032" type="line"/>
			<point x="764.064" y="158.76" type="line"/>
			<point x="826.24" y="204.968" type="line"/>
			<point x="385.936" y="865.24" type="line"/>
		</contour>
	</outline>
</glyph>
<glyph name="Oslash" format="2">
	<unicode hex="00D8"/>
	<advance width="1585.264"/>
	<outline>
		<contour>
			<point x="1775.376" y="1430" type="line"/>
			<point x="1662.624" y="1430" type="line"/>
			<point x="1421.88" y="1232.888" type="line"/>
			<point x="1332.832" y="1179.04" type="line"/>
			<point x="333.04" y="308.048" type="line"/>
			<point x="240.264" y="251.048" type="line"/>
			<point x="-66.536" y="0" type="line"/>
			<point x="46.216" y="0" type="line"/>
			<point x="286.96" y="197.112" type="line"/>
			<point x="376.008" y="250.96" type="line"/>
			<point x="1375.8" y="1121.952" type="line"/>
			<point x="1468.576" y="1178.952" type="line"/>
		</contour>
		<contour>
			<point x="411.864" y="368.744" type="curve" smooth="yes"/>
			<point x="411.864" y="750.936"/>
			<point x="672.68" y="1391.552"/>
			<point x="1047.344" y="1391.552" type="curve" smooth="yes"/>
			<point x="1205.984" y="1391.552"/>
			<point x="1296.4" y="1284.016"/>
			<point x="1296.4" y="1061.256" type="curve" smooth="yes"/>
			<point x="1296.4" y="679.064"/>
			<point x="1035.584" y="38.448"/>
			<point x="660.92" y="38.448" type="curve" smooth="yes"/>
			<point x="502.28" y="38.448"/>
			<point x="411.864" y="145.984"/>
		</contour>
		<contour>
			<point x="1577.616" y="915.904" type="curve" smooth="yes"/>
			<point x="1577.616" y="1241.032"/>
			<point x="1384.032" y="1454.24"/>
			<point x="1030.376" y="1454.24" type="curve" smooth="yes"/>
			<point x="506.28" y="1454.24"/>
			<point x="130.648" y="967.92"/>
			<point x="130.648" y="514.096" type="curve" smooth="yes"/>
			<point x="130.648" y="188.968"/>
			<point x="324.232" y="-24.24"/>
			<point x="677.888" y="-24.24" type="curve" smooth="yes"/>
			<point x="1201.984" y="-24.24"/>
			<point x="1577.616" y="462.08"/>
		</contour>
	</outline>
	<anchor name="UCtop" x="1086.2" y="1430"/>
	<anchor name="bottom" x="601.24" y="0"/>
</glyph>
<glyph name="Thorn" format="2">
	<unicode hex="00DE"/>
	<advance width="1338.224"/>
	<outline>
		<contour>
			<point x="642.248" y="397.272" type="curve" smooth="yes"/>
			<point x="321.736" y="397.272" type="line"/>
			<point x="306.552" y="331.944" type="line"/>
			<point x="712.2" y="331.944" type="line" smooth="yes"/>
			<point x="1114.672" y="331.944"/>
			<point x="1343.824" y="531.488"/>
			<point x="1343.824" y="802.152" type="curve" smooth="yes"/>
			<point x="1343.824" y="978.816"/>
			<point x="1220.552" y="1128.936"/>
			<point x="876.376" y="1128.936" type="curve" smooth="yes"/>
			<point x="552.064" y="1128.936" type="line"/>
			<point x="520.072" y="1063.608" type="line"/>
			<point x="771.488" y="1063.608" type="line" smooth="yes"/>
			<point x="973.816" y="1063.608"/>
			<point x="1050.184" y="975.984"/>
			<point x="1050.184" y="844.072" type="curve" smooth="yes"/>
			<point x="1050.184" y="601.248"/>
			<point x="904.928" y="397.272"/>
		</contour>
		<contour>
			<point x="481.256" y="1362.792" type="line"/>
			<point x="85.224" y="68.904" type="line"/>
			<point x="-85.568" y="22.968" type="line"/>
			<point x="-91.992" y="0" type="line"/>
			<point x="537.288" y="0" type="line"/>
			<point x="542.712" y="22.968" type="line"/>
			<point x="392.16" y="67.208" type="line"/>
			<point x="787.768" y="1361.096" type="line"/>
			<point x="958.56" y="1407.032" type="line"/>
			<point x="964.984" y="1430" type="line"/>
			<point x="336.128" y="1430" type="line"/>
			<point x="329.704" y="1407.032" type="line"/>
		</contour>
	</outline>
</glyph>
<glyph name="germandbls" format="2">
  <advance width="1232.5759999999998"/>
  <unicode hex="00DF"/>
  <outline>
    <contour>
      <point x="123.672" y="958.0079999999999" type="line"/>
      <point x="452.8" y="958.0079999999999" type="line"/>
      <point x="465.344" y="1024.0" type="line"/>
      <point x="134.79199999999997" y="1024.0" type="line"/>
    </contour>
    <contour>
      <point x="418.904" y="273.888" type="curve" smooth="yes"/>
      <point x="626.8720000000001" y="1089.9199999999998" type="line" smooth="yes"/>
      <point x="695.5120000000001" y="1358.2399999999998"/>
      <point x="774.5440000000001" y="1444.488"/>
      <point x="918.488" y="1444.488" type="curve" smooth="yes"/>
      <point x="1015.76" y="1444.488"/>
      <point x="1060.7920000000001" y="1391.912"/>
      <point x="1060.7920000000001" y="1290.4" type="curve" smooth="yes"/>
      <point x="1060.7920000000001" y="1173.28"/>
      <point x="1019.368" y="1077.28"/>
      <point x="873.032" y="952.912" type="curve" smooth="yes"/>
      <point x="726.6959999999999" y="828.544"/>
      <point x="693.3679999999999" y="759.008"/>
      <point x="693.3679999999999" y="664.504" type="curve" smooth="yes"/>
      <point x="693.3679999999999" y="581.7199999999999"/>
      <point x="724.792" y="522.632"/>
      <point x="822.304" y="411.872" type="curve" smooth="yes"/>
      <point x="919.816" y="301.11199999999997"/>
      <point x="947.0" y="246.984"/>
      <point x="947.0" y="179.61599999999999" type="curve" smooth="yes"/>
      <point x="947.0" y="88.82400000000001"/>
      <point x="894.2959999999999" y="36.664"/>
      <point x="804.8639999999999" y="36.664" type="curve" smooth="yes"/>
      <point x="766.112" y="36.664"/>
      <point x="740.568" y="40.512"/>
      <point x="722.568" y="66.056" type="curve" smooth="yes"/>
      <point x="704.568" y="91.6"/>
      <point x="695.4159999999999" y="142.72000000000003"/>
      <point x="691.84" y="248.984" type="curve" smooth="yes"/>
      <point x="559.304" y="248.984"/>
      <point x="503.52" y="210.47199999999998"/>
      <point x="503.52" y="122.72" type="curve" smooth="yes"/>
      <point x="503.52" y="35.664"/>
      <point x="566.816" y="-24.240000000000002"/>
      <point x="726.384" y="-24.240000000000002" type="curve" smooth="yes"/>
      <point x="967.0640000000001" y="-24.240000000000002"/>
      <point x="1122.112" y="150.90400000000002"/>
      <point x="1122.112" y="345.50399999999996" type="curve" smooth="yes"/>
      <point x="1122.112" y="431.768"/>
      <point x="1088.8719999999998" y="513.4"/>
      <point x="993.848" y="619.944" type="curve" smooth="yes"/>
      <point x="898.824" y="726.488"/>
      <point x="878.9119999999999" y="772.648"/>
      <point x="878.9119999999999" y="825.1679999999999" type="curve" smooth="yes"/>
      <point x="878.9119999999999" y="892.592"/>
      <point x="909.6080000000001" y="943.016"/>
      <point x="1047.944" y="1021.2080000000001" type="curve" smooth="yes"/>
      <point x="1186.28" y="1099.4"/>
      <point x="1236.736" y="1169.976"/>
      <point x="1236.736" y="1270.432" type="curve" smooth="yes"/>
      <point x="1236.736" y="1395.3039999999999"/>
      <point x="1140.864" y="1488.24"/>
      <point x="932.4240000000001" y="1488.24" type="curve" smooth="yes"/>
      <point x="644.8639999999999" y="1488.24"/>
      <point x="397.67199999999997" y="1296.288"/>
      <point x="320.52000000000004" y="950.1999999999999" type="curve" smooth="yes"/>
      <point x="110.43200000000002" y="2.984000000000016" type="line" smooth="yes"/>
      <point x="38.816" y="-317.056"/>
      <point x="-50.432" y="-408.67199999999997"/>
      <point x="-139.616" y="-408.67199999999997" type="curve" smooth="yes"/>
      <point x="-182.24800000000002" y="-408.67199999999997"/>
      <point x="-192.24800000000002" y="-388.736"/>
      <point x="-171.16" y="-299.2" type="curve" smooth="yes"/>
      <point x="-150.072" y="-209.66400000000002"/>
      <point x="-170.04" y="-173.216"/>
      <point x="-244.664" y="-173.216" type="curve" smooth="yes"/>
      <point x="-324.2" y="-173.216"/>
      <point x="-370.528" y="-233.54399999999998"/>
      <point x="-370.528" y="-305.11199999999997" type="curve" smooth="yes"/>
      <point x="-370.528" y="-399.03999999999996"/>
      <point x="-299.29600000000005" y="-465.0"/>
      <point x="-169.56" y="-465.0" type="curve" smooth="yes"/>
      <point x="53.928" y="-465.0"/>
      <point x="282.424" y="-262.00800000000004"/>
    </contour>
  </outline>
</glyph>
<glyph name="ae" format="2">
	<unicode hex="00E6"/>
	<advance width="1544.68"/>
	<outline>
		<contour>
			<point x="1068" y="863.28" type="line"/>
			<point x="1121.816" y="1024" type="line"/>
			<point x="882.92" y="1024" type="line"/>
			<point x="844.104" y="910.704" type="line"/>
			<point x="692.248" y="469.32" type="line" smooth="yes"/>
			<point x="527.12" y="211.656"/>
			<point x="430.016" y="150.432"/>
			<point x="361.496" y="150.432" type="curve" smooth="yes"/>
			<point x="309.312" y="150.432"/>
			<point x="280.608" y="175.344"/>
			<point x="280.608" y="252.288" type="curve" smooth="yes"/>
			<point x="280.608" y="481.752"/>
			<point x="521.592" y="942.776"/>
			<point x="736.032" y="942.776" type="curve" smooth="yes"/>
			<point x="792.28" y="942.776"/>
			<point x="835.92" y="918.288"/>
			<point x="870.952" y="838.76" type="curve"/>
			<point x="879.648" y="872.76" type="line"/>
			<point x="820.352" y="991.36"/>
			<point x="740.416" y="1045.936"/>
			<point x="651.752" y="1045.936" type="curve" smooth="yes"/>
			<point x="333" y="1045.936"/>
			<point x="-6.208" y="526.68"/>
			<point x="-6.208" y="178.328" type="curve" smooth="yes"/>
			<point x="-6.208" y="53.904"/>
			<point x="77.576" y="-24.24"/>
			<point x="199.536" y="-24.24" type="curve" smooth="yes"/>
			<point x="318.704" y="-24.24"/>
			<point x="461.304" y="40.368"/>
			<point x="711.52" y="450.752" type="curve"/>
			<point x="697.672" y="450.752" type="line"/>
			<point x="641.48" y="136.536"/>
			<point x="761.536" y="-24.24"/>
			<point x="997.608" y="-24.24" type="curve" smooth="yes"/>
			<point x="1166.928" y="-24.24"/>
			<point x="1317.496" y="60.368"/>
			<point x="1455.704" y="413.232" type="curve"/>
			<point x="1442.584" y="414.384" type="line"/>
			<point x="1324.008" y="204.136"/>
			<point x="1214.672" y="148.856"/>
			<point x="1105.368" y="148.856" type="curve" smooth="yes"/>
			<point x="1000.312" y="148.856"/>
			<point x="950.432" y="206.672"/>
			<point x="950.432" y="344.008" type="curve" smooth="yes"/>
			<point x="950.432" y="630.128"/>
			<point x="1111.824" y="995.52"/>
			<point x="1292.576" y="995.52" type="curve" smooth="yes"/>
			<point x="1339.128" y="995.52"/>
			<point x="1366.344" y="961.272"/>
			<point x="1366.344" y="894.12" type="curve" smooth="yes"/>
			<point x="1366.344" y="749.12"/>
			<point x="1278.824" y="643.456"/>
			<point x="898.152" y="512.552" type="curve"/>
			<point x="892.152" y="477.312" type="line"/>
			<point x="1118.52" y="533.768"/>
			<point x="1388.488" y="620.136"/>
			<point x="1504.648" y="674.224" type="curve"/>
			<point x="1546.768" y="732.8"/>
			<point x="1566.432" y="799.04"/>
			<point x="1566.432" y="865.368" type="curve" smooth="yes"/>
			<point x="1566.432" y="961.368"/>
			<point x="1512.64" y="1048.24"/>
			<point x="1363.352" y="1048.24" type="curve" smooth="yes"/>
			<point x="1229.576" y="1048.24"/>
			<point x="1131.096" y="978.4"/>
			<point x="1062.152" y="863.28" type="curve"/>
		</contour>
	</outline>
	<anchor name="top" x="986.328" y="1024"/>
	<anchor name="bottom" x="689.864" y="0"/>
</glyph>
<glyph name="ccedilla" format="2">
	<unicode hex="00E7"/>
	<advance width="873.648"/>
	<outline>
		<contour>
			<point x="147.608" y="-465" type="curve"/>
			<point x="309.264" y="-465"/>
			<point x="420.656" y="-362.672"/>
			<point x="420.656" y="-257.28" type="curve" smooth="yes"/>
			<point x="420.656" y="-191.28"/>
			<point x="381.84" y="-138.856"/>
			<point x="240.576" y="-91.464" type="curve"/>
			<point x="205.16" y="-174.448" type="line"/>
			<point x="391.752" y="29.416" type="line"/>
			<point x="338.456" y="29.416" type="line"/>
			<point x="125.712" y="-205.568" type="line"/>
			<point x="125.712" y="-209.992" type="line"/>
			<point x="270.128" y="-246.568"/>
			<point x="305.704" y="-288.176"/>
			<point x="305.704" y="-332.936" type="curve" smooth="yes"/>
			<point x="305.704" y="-384.032"/>
			<point x="263.184" y="-418.368"/>
			<point x="201" y="-418.368" type="curve" smooth="yes"/>
			<point x="126.576" y="-418.368"/>
			<point x="94.792" y="-332.736"/>
			<point x="79.792" y="-332.736" type="curve" smooth="yes"/>
			<point x="45.824" y="-332.736"/>
			<point x="22.432" y="-355.584"/>
			<point x="22.432" y="-392.672" type="curve" smooth="yes"/>
			<point x="22.432" y="-430.912"/>
			<point x="53.672" y="-465"/>
		</contour>
		<contour>
			<point x="658.696" y="998.4" type="curve" smooth="yes"/>
			<point x="712.088" y="998.4"/>
			<point x="728.208" y="973.584"/>
			<point x="701.816" y="877.528" type="curve" smooth="yes"/>
			<point x="675.424" y="781.472"/>
			<point x="699" y="748.384"/>
			<point x="768.24" y="748.384" type="curve" smooth="yes"/>
			<point x="857.504" y="748.384"/>
			<point x="919.584" y="810.624"/>
			<point x="919.584" y="890.432" type="curve" smooth="yes"/>
			<point x="919.584" y="979.88"/>
			<point x="854.528" y="1048.24"/>
			<point x="684.64" y="1048.24" type="curve" smooth="yes"/>
			<point x="314.488" y="1048.24"/>
			<point x="34.064" y="679.504"/>
			<point x="34.064" y="286.704" type="curve" smooth="yes"/>
			<point x="34.064" y="94.2"/>
			<point x="140.48" y="-24.24"/>
			<point x="343.304" y="-24.24" type="curve" smooth="yes"/>
			<point x="526.104" y="-24.24"/>
			<point x="665.584" y="75"/>
			<point x="797.368" y="413.232" type="curve"/>
			<point x="784.248" y="414.384" type="line"/>
			<point x="672.216" y="213.648"/>
			<point x="565.12" y="148.856"/>
			<point x="449.912" y="148.856" type="curve" smooth="yes"/>
			<point x="346.584" y="148.856"/>
			<point x="300.16" y="206.672"/>
			<point x="300.16" y="344.008" type="curve" smooth="yes"/>
			<point x="300.16" y="674.48"/>
			<point x="475.432" y="998.4"/>
		</contour>
	</outline>
</glyph>
<glyph name="eth" format="2">
	<unicode hex="00F0"/>
	<advance width="1027.032"/>
	<outline>
		<contour>
			<point x="814.904" y="859.936" type="line"/>
			<point x="814.056" y="947.272"/>
			<point x="764.304" y="1012"/>
			<point x="649.864" y="1012" type="curve" smooth="yes"/>
			<point x="325.024" y="1012"/>
			<point x="31.184" y="659.04"/>
			<point x="31.184" y="302.312" type="curve" smooth="yes"/>
			<point x="31.184" y="99.688"/>
			<point x="139.08" y="-24.24"/>
			<point x="346.904" y="-24.24" type="curve" smooth="yes"/>
			<point x="726.16" y="-24.24"/>
			<point x="1004.936" y="386.48"/>
			<point x="1004.936" y="835.008" type="curve" smooth="yes"/>
			<point x="1004.936" y="1128.264"/>
			<point x="857.168" y="1374.08"/>
			<point x="457.256" y="1488.088" type="curve"/>
			<point x="442.256" y="1452.152" type="line"/>
			<point x="740.072" y="1342.4"/>
			<point x="830.664" y="1122.08"/>
			<point x="784.064" y="860.512" type="curve"/>
		</contour>
		<contour>
			<point x="334.64" y="26.296" type="curve" smooth="yes"/>
			<point x="283.6" y="26.296"/>
			<point x="261.536" y="61.912"/>
			<point x="261.536" y="145.352" type="curve" smooth="yes"/>
			<point x="261.536" y="478.792"/>
			<point x="492.928" y="961.464"/>
			<point x="674.424" y="961.464" type="curve" smooth="yes"/>
			<point x="725.464" y="961.464"/>
			<point x="747.528" y="925.848"/>
			<point x="747.528" y="842.408" type="curve" smooth="yes"/>
			<point x="747.528" y="508.968"/>
			<point x="516.136" y="26.296"/>
		</contour>
		<contour>
			<point x="480.728" y="1083.968" type="line"/>
			<point x="1034.376" y="1449.296" type="line"/>
			<point x="1008.832" y="1490.384" type="line"/>
			<point x="454.76" y="1125.632" type="line"/>
		</contour>
	</outline>
</glyph>
<glyph name="divide" format="2">
	<unicode hex="00F7"/>
	<advance width="1150"/>
	<outline>
		<contour>
			<point x="176.12" y="551.36" type="line"/>
			<point x="151.88" y="472.64" type="line"/>
			<point x="973.88" y="472.64" type="line"/>
			<point x="998.12" y="551.36" type="line"/>
		</contour>
		<contour>
			<point x="684" y="981.752" type="curve" smooth="yes"/>
			<point x="618.64" y="981.752"/>
			<point x="570.824" y="931.512"/>
			<point x="570.824" y="870" type="curve" smooth="yes"/>
			<point x="570.824" y="808.488"/>
			<point x="618.64" y="757.824"/>
			<point x="684" y="757.824" type="curve" smooth="yes"/>
			<point x="749.36" y="757.824"/>
			<point x="797.176" y="808.488"/>
			<point x="797.176" y="870" type="curve" smooth="yes"/>
			<point x="797.176" y="931.512"/>
			<point x="749.36" y="981.752"/>
		</contour>
		<contour>
			<point x="466.424" y="266.752" type="curve" smooth="yes"/>
			<point x="401.064" y="266.752"/>
			<point x="353.248" y="215.512"/>
			<point x="353.248" y="154" type="curve" smooth="yes"/>
			<point x="353.248" y="92.488"/>
			<point x="401.064" y="42.248"/>
			<point x="466.424" y="42.248" type="curve" smooth="yes"/>
			<point x="531.784" y="42.248"/>
			<point x="579.6" y="92.488"/>
			<point x="579.6" y="154" type="curve" smooth="yes"/>
			<point x="579.6" y="215.512"/>
			<point x="531.784" y="266.752"/>
		</contour>
	</outline>
</glyph>
<glyph name="oslash" format="2">
	<unicode hex="00F8"/>
	<advance width="1051.128"/>
	<outline>
		<contour>
			<point x="681.616" y="1048.24" type="curve" smooth="yes"/>
			<point x="344.48" y="1048.24"/>
			<point x="50.64" y="683.28"/>
			<point x="50.64" y="313.856" type="curve" smooth="yes"/>
			<point x="50.64" y="103.96"/>
			<point x="158.536" y="-24.24"/>
			<point x="366.36" y="-24.24" type="curve" smooth="yes"/>
			<point x="703.496" y="-24.24"/>
			<point x="997.336" y="340.72"/>
			<point x="997.336" y="710.144" type="curve" smooth="yes"/>
			<point x="997.336" y="920.04"/>
			<point x="889.44" y="1048.24"/>
		</contour>
		<contour>
			<point x="354.096" y="26.296" type="curve" smooth="yes"/>
			<point x="303.056" y="26.296"/>
			<point x="280.992" y="63.488"/>
			<point x="280.992" y="150.928" type="curve" smooth="yes"/>
			<point x="280.992" y="496.216"/>
			<point x="512.384" y="997.704"/>
			<point x="693.88" y="997.704" type="curve" smooth="yes"/>
			<point x="744.92" y="997.704"/>
			<point x="766.984" y="960.512"/>
			<point x="766.984" y="873.072" type="curve" smooth="yes"/>
			<point x="766.984" y="527.784"/>
			<point x="535.592" y="26.296"/>
		</contour>
		<contour>
			<point x="1036.888" y="1024" type="line"/>
			<point x="897.384" y="898.064" type="line"/>
			<point x="828.944" y="868.4" type="line"/>
			<point x="196.4" y="212.536" type="line"/>
			<point x="131.32" y="189.264" type="line"/>
			<point x="-77.992" y="0" type="line"/>
			<point x="25.848" y="0" type="line"/>
			<point x="165.776" y="125.936" type="line"/>
			<point x="234.216" y="155.6" type="line"/>
			<point x="866.76" y="811.464" type="line"/>
			<point x="931.416" y="834.736" type="line"/>
			<point x="1140.728" y="1024" type="line"/>
		</contour>
	</outline>
	<anchor name="top" x="684.728" y="1024"/>
	<anchor name="bottom" x="346.488" y="0"/>
</glyph>
<glyph name="thorn" format="2">
	<unicode hex="00FE"/>
	<advance width="1103.12"/>
	<outline>
		<contour>
			<point x="310.832" y="265.056" type="curve" smooth="yes"/>
			<point x="387.768" y="537.16" type="line" smooth="yes"/>
			<point x="463.24" y="726.216"/>
			<point x="596.568" y="883.056"/>
			<point x="714.656" y="883.056" type="curve" smooth="yes"/>
			<point x="770.296" y="883.056"/>
			<point x="799.816" y="845.448"/>
			<point x="799.816" y="750.536" type="curve" smooth="yes"/>
			<point x="799.816" y="421.312"/>
			<point x="564.736" y="27.448"/>
			<point x="396.872" y="27.448" type="curve" smooth="yes"/>
			<point x="326.624" y="27.448"/>
			<point x="296.408" y="90.48"/>
			<point x="296.408" y="167.12" type="curve" smooth="yes"/>
			<point x="296.408" y="198.664"/>
			<point x="301.832" y="233.208"/>
		</contour>
		<contour>
			<point x="398.144" y="593.28" type="line"/>
			<point x="690.8" y="1488.24" type="line"/>
			<point x="679.744" y="1488.24" type="line"/>
			<point x="220.496" y="1398.944" type="line"/>
			<point x="216.528" y="1381.496" type="line"/>
			<point x="273.528" y="1334.7478145695"/>
			<point x="331.952" y="1286.7331697456"/>
			<point x="367.952" y="1257.208" type="curve"/>
			<point x="-134.448" y="-379.52" type="line"/>
			<point x="-262.608" y="-412.064" type="line"/>
			<point x="-269.184" y="-440.76" type="line"/>
			<point x="261.024" y="-440.76" type="line"/>
			<point x="268.024" y="-411.64" type="line"/>
			<point x="132.008" y="-379.944" type="line"/>
			<point x="274.008" y="97.784" type="line"/>
			<point x="159.76" y="120.848" type="line"/>
			<point x="189.032" y="34.912"/>
			<point x="267.6" y="-24.24"/>
			<point x="418.376" y="-24.24" type="curve" smooth="yes"/>
			<point x="750.192" y="-24.24"/>
			<point x="1086.12" y="386.832"/>
			<point x="1086.12" y="782.688" type="curve" smooth="yes"/>
			<point x="1086.12" y="956.584"/>
			<point x="1001.28" y="1048.24"/>
			<point x="858.256" y="1048.24" type="curve" smooth="yes"/>
			<point x="706.664" y="1048.24"/>
			<point x="555.304" y="941.248"/>
			<point x="383.296" y="593.28" type="curve"/>
		</contour>
	</outline>
</glyph>
<glyph name="Aogonek" format="2">
	<unicode hex="0104"/>
	<advance width="1472.656"/>
	<outline>
		<contour>
			<point x="350.744" y="510.36" type="line"/>
			<point x="1028.256" y="510.36" type="line"/>
			<point x="1048.376" y="575.688" type="line"/>
			<point x="371.44" y="575.688" type="line"/>
		</contour>
		<contour>
			<point x="1236.528" y="71.568" type="line"/>
			<point x="1062.8" y="1441.52" type="line"/>
			<point x="920.8" y="1441.52" type="line"/>
			<point x="6.64" y="75.752" type="line"/>
			<point x="-158.848" y="22.968" type="line"/>
			<point x="-166.544" y="0" type="line"/>
			<point x="230.968" y="0" type="line"/>
			<point x="238.664" y="22.968" type="line"/>
			<point x="83.936" y="72.752" type="line"/>
			<point x="839.52" y="1214.912" type="line"/>
			<point x="813.4" y="1214.912" type="line"/>
			<point x="945.464" y="68.296" type="line"/>
			<point x="782.8" y="22.968" type="line"/>
			<point x="774.68" y="0" type="line"/>
			<point x="1363.656" y="0" type="line"/>
			<point x="1371.352" y="22.968" type="line"/>
		</contour>
		<contour>
			<point x="953.136" y="-284.344" type="curve" smooth="yes"/>
			<point x="953.136" y="-231.288"/>
			<point x="973.192" y="-174.104"/>
			<point x="1092.144" y="-36.92" type="curve" smooth="yes"/>
			<point x="1193.616" y="82.024" type="line"/>
			<point x="1167.104" y="82.024" type="line"/>
			<point x="1014.544" y="-68.832" type="line" smooth="yes"/>
			<point x="847.304" y="-224.704"/>
			<point x="814.784" y="-280.216"/>
			<point x="814.784" y="-357.792" type="curve" smooth="yes"/>
			<point x="814.784" y="-420.608"/>
			<point x="853.936" y="-465"/>
			<point x="945.6" y="-465" type="curve" smooth="yes"/>
			<point x="1014.872" y="-465"/>
			<point x="1073.384" y="-433.24"/>
			<point x="1167.584" y="-317.824" type="curve"/>
			<point x="1160.008" y="-307.552" type="line"/>
			<point x="1118.04" y="-341.432"/>
			<point x="1084.04" y="-356.008"/>
			<point x="1035.984" y="-356.008" type="curve" smooth="yes"/>
			<point x="983.32" y="-356.008"/>
			<point x="953.136" y="-331.616"/>
		</contour>
	</outline>
</glyph>
<glyph name="aogonek" format="2">
  <advance width="1144.728"/>
  <unicode hex="0105"/>
  <outline>
    <contour>
      <point x="1111.816" y="341.232" type="curve"/>
      <point x="1101.12" y="349.504" type="line"/>
      <point x="969.1999999999999" y="194.824"/>
      <point x="869.648" y="138.16"/>
      <point x="799.264" y="136.232" type="curve"/>
      <point x="824.504" y="100.144" type="line"/>
      <point x="1135.688" y="1024.0" type="line"/>
      <point x="884.072" y="1024.0" type="line"/>
      <point x="845.256" y="910.7040000000001" type="line"/>
      <point x="691.28" y="464.656" type="line" smooth="yes"/>
      <point x="529.544" y="208.688"/>
      <point x="428.2" y="150.432"/>
      <point x="362.648" y="150.432" type="curve" smooth="yes"/>
      <point x="309.312" y="150.432"/>
      <point x="281.76" y="176.496"/>
      <point x="281.76" y="252.28799999999998" type="curve" smooth="yes"/>
      <point x="281.76" y="517.784"/>
      <point x="545.384" y="942.776"/>
      <point x="737.184" y="942.776" type="curve" smooth="yes"/>
      <point x="788.672" y="942.776"/>
      <point x="829.856" y="922.472"/>
      <point x="862.736" y="859.952" type="curve"/>
      <point x="872.5840000000001" y="889.768" type="line"/>
      <point x="813.288" y="996.696"/>
      <point x="735.808" y="1045.936"/>
      <point x="651.752" y="1045.936" type="curve" smooth="yes"/>
      <point x="344.52" y="1045.936"/>
      <point x="-5.055999999999999" y="542.808"/>
      <point x="-5.055999999999999" y="178.328" type="curve" smooth="yes"/>
      <point x="-5.055999999999999" y="53.903999999999996"/>
      <point x="78.72800000000001" y="-24.240000000000002"/>
      <point x="200.68800000000002" y="-24.240000000000002" type="curve" smooth="yes"/>
      <point x="340.096" y="-24.240000000000002"/>
      <point x="474.03200000000004" y="68.032"/>
      <point x="720.304" y="464.32" type="curve"/>
      <point x="706.336" y="467.288" type="line"/>
      <point x="581.096" y="86.744" type="line" smooth="yes"/>
      <point x="558.5840000000001" y="19.904"/>
      <point x="592.792" y="-24.240000000000002"/>
      <point x="671.0880000000001" y="-24.240000000000002" type="curve" smooth="yes"/>
      <point x="734.712" y="-24.240000000000002"/>
      <point x="800.096" y="-1.032"/>
      <point x="883.08" y="62.712" type="curve"/>
      <point x="877.776" y="70.592" type="line"/>
      <point x="771.304" y="-35.0" type="line" smooth="yes"/>
      <point x="595.864" y="-212.256"/>
      <point x="537.6320000000001" y="-259.016"/>
      <point x="537.6320000000001" y="-350.16" type="curve" smooth="yes"/>
      <point x="537.6320000000001" y="-412.976"/>
      <point x="576.784" y="-465.0"/>
      <point x="668.448" y="-465.0" type="curve" smooth="yes"/>
      <point x="737.72" y="-465.0"/>
      <point x="796.232" y="-433.24"/>
      <point x="890.4319999999999" y="-317.824" type="curve"/>
      <point x="882.856" y="-307.552" type="line"/>
      <point x="840.888" y="-341.43199999999996"/>
      <point x="806.888" y="-356.008"/>
      <point x="758.832" y="-356.008" type="curve" smooth="yes"/>
      <point x="706.1679999999999" y="-356.008"/>
      <point x="678.288" y="-333.344"/>
      <point x="678.288" y="-286.072" type="curve" smooth="yes"/>
      <point x="678.288" y="-233.016"/>
      <point x="701.648" y="-161.32"/>
      <point x="838.9759999999999" y="-1.8160000000000025" type="curve" smooth="yes"/>
      <point x="966.0319999999999" y="140.66400000000002" type="line" smooth="yes"/>
      <point x="1020.8800000000001" y="203.752"/>
      <point x="1064.848" y="266.568"/>
    </contour>
  </outline>
</glyph>
<glyph name="Dcroat" format="2">
	<unicode hex="0110"/>
	<advance width="1543.52"/>
	<outline>
		<contour>
			<point x="129.432" y="710.336" type="line"/>
			<point x="872.152" y="710.336" type="line"/>
			<point x="893.696" y="781.968" type="line"/>
			<point x="150.976" y="781.968" type="line"/>
		</contour>
		<contour>
			<point x="555.288" y="65.328" type="curve" smooth="yes"/>
			<point x="229.128" y="65.328" type="line"/>
			<point x="209.312" y="0" type="line"/>
			<point x="537.224" y="0" type="line" smooth="yes"/>
			<point x="1162.496" y="0"/>
			<point x="1537.968" y="403.768"/>
			<point x="1537.968" y="891.184" type="curve" smooth="yes"/>
			<point x="1537.968" y="1236.52"/>
			<point x="1284.656" y="1430"/>
			<point x="895.24" y="1430" type="curve" smooth="yes"/>
			<point x="647.312" y="1430" type="line"/>
			<point x="666.504" y="1364.672" type="line"/>
			<point x="885.752" y="1364.672" type="line" smooth="yes"/>
			<point x="1120.488" y="1364.672"/>
			<point x="1248.232" y="1235.32"/>
			<point x="1248.232" y="989.336" type="curve" smooth="yes"/>
			<point x="1248.232" y="447.696"/>
			<point x="941.424" y="65.328"/>
		</contour>
		<contour>
			<point x="485.376" y="1362.792" type="line"/>
			<point x="89.344" y="68.904" type="line"/>
			<point x="-81.448" y="22.968" type="line"/>
			<point x="-87.872" y="0" type="line"/>
			<point x="376.16" y="0" type="line"/>
			<point x="812.432" y="1430" type="line"/>
			<point x="340.248" y="1430" type="line"/>
			<point x="333.824" y="1407.032" type="line"/>
		</contour>
	</outline>
</glyph>
<glyph name="dcroat" format="2">
	<unicode hex="0111"/>
	<advance width="1155.352"/>
	<outline>
		<contour>
			<point x="886.64" y="803.992" type="curve"/>
			<point x="892.792" y="847.744" type="line"/>
			<point x="830.528" y="984.576"/>
			<point x="745.928" y="1045.936"/>
			<point x="651.752" y="1045.936" type="curve" smooth="yes"/>
			<point x="333" y="1045.936"/>
			<point x="-6.208" y="526.68"/>
			<point x="-6.208" y="178.328" type="curve" smooth="yes"/>
			<point x="-6.208" y="53.904"/>
			<point x="77.576" y="-24.24"/>
			<point x="199.536" y="-24.24" type="curve" smooth="yes"/>
			<point x="320.4" y="-24.24"/>
			<point x="460.032" y="42.912"/>
			<point x="719.152" y="464.32" type="curve"/>
			<point x="707.304" y="465.168" type="line"/>
			<point x="592.76" y="115.32" type="line" smooth="yes"/>
			<point x="562.944" y="24.144"/>
			<point x="594.968" y="-24.24"/>
			<point x="680.536" y="-24.24" type="curve" smooth="yes"/>
			<point x="806.096" y="-24.24"/>
			<point x="965.656" y="82.12"/>
			<point x="1135.112" y="341.232" type="curve"/>
			<point x="1124.416" y="349.504" type="line"/>
			<point x="949.752" y="155.632"/>
			<point x="838.6" y="121.352"/>
			<point x="765.976" y="128.872" type="curve"/>
			<point x="836.072" y="86.576" type="line"/>
			<point x="1292.488" y="1488.24" type="line"/>
			<point x="1281.432" y="1488.24" type="line"/>
			<point x="872.4" y="1428.624" type="line"/>
			<point x="868.432" y="1411.176" type="line"/>
			<point x="925.432" y="1271.957269115"/>
			<point x="933.4" y="1374.3916195063"/>
			<point x="969.4" y="1286.464" type="curve"/>
			<point x="692.248" y="469.32" type="line" smooth="yes"/>
			<point x="535.176" y="226.072"/>
			<point x="430.016" y="150.432"/>
			<point x="361.496" y="150.432" type="curve" smooth="yes"/>
			<point x="309.312" y="150.432"/>
			<point x="280.608" y="175.344"/>
			<point x="280.608" y="252.288" type="curve" smooth="yes"/>
			<point x="280.608" y="481.752"/>
			<point x="525.832" y="942.776"/>
			<point x="736.032" y="942.776" type="curve" smooth="yes"/>
			<point x="800.336" y="942.776"/>
			<point x="848.216" y="910.656"/>
		</contour>
		<contour>
			<point x="642.704" y="1171.184" type="line"/>
			<point x="1360.08" y="1171.184" type="line"/>
			<point x="1382.2" y="1242.816" type="line"/>
			<point x="664.824" y="1242.816" type="line"/>
		</contour>
	</outline>
</glyph>
<glyph name="Eogonek" format="2">
	<unicode hex="0118"/>
	<advance width="1360.96"/>
	<outline>
		<contour>
			<point x="481.256" y="1362.792" type="line"/>
			<point x="85.224" y="68.904" type="line"/>
			<point x="-85.568" y="22.968" type="line"/>
			<point x="-91.992" y="0" type="line"/>
			<point x="372.04" y="0" type="line"/>
			<point x="808.312" y="1430" type="line"/>
			<point x="336.128" y="1430" type="line"/>
			<point x="329.704" y="1407.032" type="line"/>
		</contour>
		<contour>
			<point x="903.424" y="455" type="line"/>
			<point x="932.056" y="455" type="line"/>
			<point x="989.056" y="746" type="line"/>
			<point x="1111.056" y="1039" type="line"/>
			<point x="1082.424" y="1039" type="line"/>
			<point x="902.392" y="792.056" type="line"/>
			<point x="488.424" y="760.24" type="line"/>
			<point x="475.064" y="732.76" type="line"/>
			<point x="881.456" y="704.944" type="line"/>
		</contour>
		<contour>
			<point x="1414.08" y="1011.072" type="line"/>
			<point x="1482.992" y="1497.992" type="line"/>
			<point x="1467.936" y="1497.992" type="line"/>
			<point x="1303.976" y="1430" type="line"/>
			<point x="628.64" y="1430" type="line"/>
			<point x="604.28" y="1364.672" type="line"/>
			<point x="1420.096" y="1364.672" type="line"/>
			<point x="1293.4" y="1389.336" type="line"/>
			<point x="1381.6" y="1011.072" type="line"/>
		</contour>
		<contour>
			<point x="1022.664" y="-65.448" type="line"/>
			<point x="1039.84" y="-65.448" type="line"/>
			<point x="1295.704" y="404.616" type="line"/>
			<point x="1267.224" y="423.432" type="line"/>
			<point x="872.88" y="45.208" type="line"/>
			<point x="1007.888" y="65.328" type="line"/>
			<point x="216.848" y="65.328" type="line"/>
			<point x="191.64" y="0" type="line"/>
			<point x="890.576" y="0" type="line"/>
		</contour>
		<contour>
			<point x="766.024" y="-278.584" type="curve" smooth="yes"/>
			<point x="766.024" y="-221.496"/>
			<point x="783.6" y="-160.768"/>
			<point x="879.504" y="-34.136" type="curve" smooth="yes"/>
			<point x="967.024" y="82.024" type="line"/>
			<point x="940.512" y="82.024" type="line"/>
			<point x="804.568" y="-66.048" type="line" smooth="yes"/>
			<point x="647.336" y="-234.408"/>
			<point x="628.824" y="-291.736"/>
			<point x="628.824" y="-356.064" type="curve" smooth="yes"/>
			<point x="628.824" y="-420.608"/>
			<point x="667.976" y="-465"/>
			<point x="759.64" y="-465" type="curve" smooth="yes"/>
			<point x="828.912" y="-465"/>
			<point x="887.424" y="-433.24"/>
			<point x="981.624" y="-317.824" type="curve"/>
			<point x="974.048" y="-307.552" type="line"/>
			<point x="932.08" y="-341.432"/>
			<point x="898.08" y="-356.008"/>
			<point x="850.024" y="-356.008" type="curve" smooth="yes"/>
			<point x="792.752" y="-356.008"/>
			<point x="766.024" y="-330.464"/>
		</contour>
	</outline>
</glyph>
<glyph name="eogonek" format="2">
  <advance width="906.7919999999999"/>
  <unicode hex="0119"/>
  <outline>
    <contour>
      <point x="659.1039999999999" y="125.496" type="line" smooth="yes"/>
      <point x="714.856" y="189.584"/>
      <point x="767.76" y="284.91200000000003"/>
      <point x="817.816" y="413.23199999999997" type="curve"/>
      <point x="804.696" y="414.384" type="line"/>
      <point x="684.848" y="202.016"/>
      <point x="566.6080000000001" y="148.856"/>
      <point x="452.21599999999995" y="148.856" type="curve" smooth="yes"/>
      <point x="347.16" y="148.856"/>
      <point x="297.28" y="206.672"/>
      <point x="297.28" y="344.008" type="curve" smooth="yes"/>
      <point x="297.28" y="630.128"/>
      <point x="458.67199999999997" y="995.52"/>
      <point x="639.424" y="995.52" type="curve" smooth="yes"/>
      <point x="685.976" y="995.52"/>
      <point x="713.192" y="961.272"/>
      <point x="713.192" y="894.12" type="curve" smooth="yes"/>
      <point x="713.192" y="749.12"/>
      <point x="625.6719999999999" y="643.456"/>
      <point x="245.0" y="512.552" type="curve"/>
      <point x="239.0" y="477.312" type="line"/>
      <point x="470.032" y="535.0400000000001"/>
      <point x="747.208" y="618.8639999999999"/>
      <point x="866.76" y="674.2239999999999" type="curve"/>
      <point x="908.88" y="732.8"/>
      <point x="928.544" y="799.04"/>
      <point x="928.544" y="865.368" type="curve" smooth="yes"/>
      <point x="928.544" y="961.3679999999999"/>
      <point x="868.0" y="1048.24"/>
      <point x="676.0" y="1048.24" type="curve" smooth="yes"/>
      <point x="276.648" y="1048.24"/>
      <point x="31.184000000000005" y="619.384"/>
      <point x="31.184000000000005" y="286.704" type="curve" smooth="yes"/>
      <point x="31.184000000000005" y="99.288"/>
      <point x="134.24" y="-24.240000000000002"/>
      <point x="344.456" y="-24.240000000000002" type="curve" smooth="yes"/>
      <point x="418.632" y="-24.240000000000002"/>
      <point x="503.952" y="-8.088"/>
      <point x="571.16" y="39.608" type="curve"/>
      <point x="565.312" y="46.879999999999995" type="line"/>
      <point x="492.328" y="-24.504000000000005" type="line" smooth="yes"/>
      <point x="306.024" y="-221.096"/>
      <point x="278.93600000000004" y="-279.15200000000004"/>
      <point x="278.93600000000004" y="-348.576" type="curve" smooth="yes"/>
      <point x="278.93600000000004" y="-411.968"/>
      <point x="314.632" y="-465.0"/>
      <point x="409.752" y="-465.0" type="curve" smooth="yes"/>
      <point x="479.024" y="-465.0"/>
      <point x="537.5360000000001" y="-433.24"/>
      <point x="631.736" y="-317.824" type="curve"/>
      <point x="624.1600000000001" y="-307.552" type="line"/>
      <point x="582.1919999999999" y="-341.43199999999996"/>
      <point x="548.192" y="-356.008"/>
      <point x="500.136" y="-356.008" type="curve" smooth="yes"/>
      <point x="441.13599999999997" y="-356.008"/>
      <point x="412.10400000000004" y="-328.736"/>
      <point x="412.10400000000004" y="-272.248" type="curve" smooth="yes"/>
      <point x="412.10400000000004" y="-214.584"/>
      <point x="441.44" y="-128.696"/>
      <point x="582.0400000000001" y="34.336000000000006" type="curve" smooth="yes"/>
    </contour>
  </outline>
</glyph>
<glyph name="Hbar" format="2">
	<unicode hex="0126"/>
	<advance width="1661.352"/>
	<outline>
		<contour>
			<point x="419.344" y="707.76" type="line"/>
			<point x="1353.344" y="707.76" type="line"/>
			<point x="1377.856" y="773.088" type="line"/>
			<point x="442.856" y="773.088" type="line"/>
		</contour>
		<contour>
			<point x="231.16" y="1050.064" type="line"/>
			<point x="1766.952" y="1050.064" type="line"/>
			<point x="1790.768" y="1126.784" type="line"/>
			<point x="254.4" y="1126.784" type="line"/>
		</contour>
		<contour>
			<point x="482.68" y="1362.792" type="line"/>
			<point x="86.648" y="68.904" type="line"/>
			<point x="-84.144" y="22.968" type="line"/>
			<point x="-90.568" y="0" type="line"/>
			<point x="538.712" y="0" type="line"/>
			<point x="544.136" y="22.968" type="line"/>
			<point x="393.584" y="67.208" type="line"/>
			<point x="789.192" y="1361.096" type="line"/>
			<point x="959.984" y="1407.032" type="line"/>
			<point x="966.408" y="1430" type="line"/>
			<point x="337.552" y="1430" type="line"/>
			<point x="331.128" y="1407.032" type="line"/>
		</contour>
		<contour>
			<point x="1389.192" y="1362.792" type="line"/>
			<point x="993.16" y="68.904" type="line"/>
			<point x="822.368" y="22.968" type="line"/>
			<point x="815.944" y="0" type="line"/>
			<point x="1445.224" y="0" type="line"/>
			<point x="1451.648" y="22.968" type="line"/>
			<point x="1301.096" y="67.208" type="line"/>
			<point x="1697.128" y="1361.096" type="line"/>
			<point x="1866.92" y="1407.032" type="line"/>
			<point x="1873.344" y="1430" type="line"/>
			<point x="1244.064" y="1430" type="line"/>
			<point x="1238.64" y="1407.032" type="line"/>
		</contour>
	</outline>
</glyph>
